<svg width="20" height="18" viewBox="0 0 20 18" fill="none" xmlns="http://www.w3.org/2000/svg">
<path d="M13.1934 2.98518e-06C11.9754 0.00200299 10.8385 0.749659 10.3125 1.84766C9.1095 4.36066 11.692 6.69513 12.668 7.57813L12.8301 7.72656C13.4991 8.35156 15 9.38281 15 9.38281C15 9.38281 16.5009 8.35056 17.1699 7.72656L17.332 7.57813C18.308 6.69513 20.8905 4.36066 19.6875 1.84766C19.1615 0.749659 18.0246 0.00200299 16.8066 2.98518e-06C16.0386 -0.000997015 15.433 0.249394 15 0.525394C14.567 0.249394 13.9614 -0.000997015 13.1934 2.98518e-06ZM13.1992 2C14.2542 2 14.9852 2.63953 14.9902 2.64453C14.9902 2.64453 15.6548 2 16.8008 2C17.4628 2 18 2.53722 18 3.19922C18 4.27722 16.5402 5.59871 15.9902 6.09571L15.8047 6.26563C15.5527 6.50063 15.255 6.74532 15 6.94532C14.745 6.74532 14.4464 6.49967 14.1934 6.26367L14.0098 6.09571C13.4598 5.59871 12 4.27722 12 3.19922C12 2.53722 12.5372 2 13.1992 2ZM1 6C0.447 6 0 6.447 0 7V7.5V16.5V17C0 17.553 0.447 18 1 18H1.5H18.5H19C19.553 18 20 17.553 20 17V16.5V7.20703C19.409 7.88303 18.815 8.4203 18.418 8.7793L18.2227 8.95703C18.1507 9.02403 18.075 9.09121 18 9.15821V15.0879C17.5741 15.239 17.239 15.5741 17.0879 16H2.91211C2.761 15.5741 2.42591 15.239 2 15.0879V8.91211C2.42591 8.761 2.761 8.42592 2.91211 8H10.75C10.21 7.467 9.59308 6.79 9.08008 6H1.5H1ZM10 9C8.34315 9 7 10.3431 7 12C7 13.6569 8.34315 15 10 15C11.6569 15 13 13.6569 13 12C13 10.3431 11.6569 9 10 9ZM5 11C4.448 11 4 11.447 4 12C4 12.553 4.448 13 5 13C5.552 13 6 12.553 6 12C6 11.447 5.552 11 5 11ZM15 11C14.448 11 14 11.447 14 12C14 12.553 14.448 13 15 13C15.552 13 16 12.553 16 12C16 11.447 15.552 11 15 11Z" fill="black" fill-opacity="0.64"/>
</svg>
