<svg width="24" height="24" viewBox="0 0 24 24" fill="none" xmlns="http://www.w3.org/2000/svg">
<path fill-rule="evenodd" clip-rule="evenodd" d="M2.86464 9.89545C0.903004 8.89855 1.12811 7.78731 3.09868 7.90344L3.53996 8.73061L4.44931 5.9025C4.80662 4.78948 5.40155 3.78008 6.56816 3.78008H18.1986C19.3652 3.78008 20.037 4.76983 20.3193 5.90071L21.0017 8.64307L21.3948 7.90344C23.4207 7.78553 23.6012 8.96287 21.4573 9.97941L21.8057 10.5136C23.2153 11.9625 23.0831 14.5244 22.8633 18.1029V19.5571C22.8633 19.9216 22.565 20.2199 22.2005 20.2199H19.3724C19.0079 20.2199 18.7096 19.9216 18.7096 19.5571V18.746H5.34259V19.5571C5.34259 19.9216 5.04423 20.2199 4.67978 20.2199H1.85166C1.48721 20.2199 1.18885 19.9216 1.18885 19.5571V17.7509C1.18885 17.7152 1.19243 17.6812 1.196 17.6473C0.981613 14.9014 0.679685 11.3104 2.86464 9.89545ZM6.47526 14.2671L3.96337 13.9509C3.37023 13.8848 3.21123 14.1349 3.41311 14.6459L3.68467 15.3051C3.77221 15.4749 3.88833 15.5981 4.02411 15.6839C4.18312 15.7821 4.37428 15.8304 4.58688 15.8393L6.82721 15.8572C7.36854 15.8554 7.60258 15.6392 7.43286 15.1426C7.29351 14.6763 6.9755 14.3833 6.47526 14.2671ZM10.763 13.2113H13.3356C13.4875 13.2113 13.6125 13.3363 13.6125 13.4882C13.6125 13.6401 13.4875 13.7651 13.3356 13.7651H10.763C10.6111 13.7651 10.4861 13.6401 10.4861 13.4882C10.4843 13.3363 10.6093 13.2113 10.763 13.2113ZM17.1195 16.8487H19.6922C19.844 16.8487 19.9691 16.9738 19.9691 17.1256C19.9691 17.2775 19.844 17.4025 19.6922 17.4025H17.1195C16.9677 17.4025 16.8426 17.2775 16.8426 17.1256C16.8426 16.9738 16.9659 16.8487 17.1195 16.8487ZM17.5733 14.2671L20.0852 13.9509C20.6784 13.8848 20.8374 14.1349 20.6355 14.6459L20.3639 15.3051C20.2764 15.4749 20.1603 15.5981 20.0245 15.6839C19.8655 15.7821 19.6743 15.8304 19.4617 15.8393L17.2214 15.8572C16.6801 15.8554 16.446 15.6392 16.6157 15.1426C16.7551 14.6763 17.0731 14.3833 17.5733 14.2671ZM4.33676 16.8487H6.9094C7.06125 16.8487 7.18631 16.9738 7.18631 17.1256C7.18631 17.2775 7.06125 17.4025 6.9094 17.4025H4.33676C4.1849 17.4025 4.05984 17.2775 4.05984 17.1256C4.05984 16.9738 4.1849 16.8487 4.33676 16.8487ZM4.48326 9.35412H19.9941L19.3099 6.50993C19.1223 5.64345 18.5827 4.8931 17.693 4.8931H6.95406C6.06614 4.8931 5.61057 5.6631 5.33723 6.50993L4.48326 9.35412Z" fill="black" fill-opacity="0.49"/>
</svg>
