<svg width="24" height="24" viewBox="0 0 24 24" fill="none" xmlns="http://www.w3.org/2000/svg">
<path d="M17.81 3.69995V6.18995H19.47V3.69995H17.81ZM14.49 4.52995V6.18995H16.15V4.52995H14.49ZM11.17 7.84995C10.643 7.84995 10.1321 7.97479 9.66728 8.21632C8.55509 7.59465 7.08115 7.82012 6.20301 8.71237C4.46001 8.44594 2.87004 9.84029 2.87004 11.585C2.87004 11.7281 2.89899 11.863 2.92029 12H2.04004V12.83C2.04004 15.1216 3.89841 16.98 6.19004 16.98H12.4475C11.6556 16.0977 11.17 14.9365 11.17 13.66V12H4.60623C4.55983 11.8697 4.53004 11.731 4.53004 11.585C4.53004 10.7533 5.34282 10.0889 6.21598 10.4259L6.85145 10.6707L7.21457 10.0952C7.44614 9.72914 7.83925 9.50995 8.26504 9.50995C8.64933 9.50995 8.92501 9.68643 9.09018 9.83417L9.60893 10.2978L10.1569 9.86983C10.3652 9.70549 10.711 9.50995 11.17 9.50995V7.84995ZM12.83 7.84995V13.66C12.83 15.4909 14.3191 16.98 16.15 16.98H17.81C19.641 16.98 21.13 15.4909 21.13 13.66V7.84995H12.83ZM2.04004 18.64V20.3H21.96V18.64H2.04004Z" fill="black" fill-opacity="0.64"/>
</svg>
