<svg width="20" height="20" viewBox="0 0 20 20" fill="none" xmlns="http://www.w3.org/2000/svg">
<path d="M10 20C15.5013 20 20 15.5013 20 10C20 4.4987 15.5013 0 10 0C4.4987 0 0 4.4987 0 10C0 15.5013 4.4987 20 10 20ZM5.33203 9.00065C6.9987 6.58203 9.4987 4.33268 9.66797 4.2513C9.74935 4.2513 9.83398 4.16667 10 4.16667C10.166 4.16667 10.2507 4.2513 10.4167 4.33268C10.5013 4.41732 13.0827 6.66667 14.7493 9.08203C14.9154 9.2513 14.9154 9.4987 14.7493 9.74935C14.5833 9.83398 14.4173 10 14.1667 10H11.9987C11.9987 10 11.7513 15.0846 11.582 15.332C11.3346 15.5827 10.6673 15.8333 10 15.8333C9.41732 15.8333 8.75 15.5827 8.49935 15.332C8.33333 15.0846 8.0013 10 8.0013 10H5.83333C5.58268 10 5.41667 9.91537 5.33203 9.66797C5.16602 9.4987 5.16602 9.2513 5.33203 9.00065Z" fill="#F05658"/>
</svg>
