<svg width="330" height="298" viewBox="0 0 330 298" fill="none" xmlns="http://www.w3.org/2000/svg">
<g clip-path="url(#clip0_1_204)">
<path d="M252.719 238.85C304.643 186.833 304.643 102.495 252.719 50.4774C200.795 -1.54032 116.609 -1.54032 64.6856 50.4774C12.7617 102.495 12.7617 186.833 64.6856 238.85C116.609 290.868 200.795 290.868 252.719 238.85Z" fill="#ECEEEF"/>
<path d="M92.0171 121.889C112.157 101.714 112.157 69.0019 92.0171 48.826C71.8775 28.65 39.2249 28.65 19.0854 48.826C-1.05418 69.0019 -1.05417 101.714 19.0854 121.89C39.2249 142.065 71.8775 142.065 92.0171 121.889Z" fill="#FFDC19"/>
<path d="M269.456 233.533C271.269 237.801 272.266 242.522 272.266 247.516C272.266 267.31 256.133 283.472 236.375 283.472C225.589 283.472 215.891 278.66 209.275 271.124" stroke="black" stroke-width="0.75" stroke-miterlimit="10" stroke-linecap="round" stroke-dasharray="2.57 2.57"/>
<path d="M236.375 280.294C254.495 280.294 269.184 265.578 269.184 247.425C269.184 229.272 254.495 214.556 236.375 214.556C218.254 214.556 203.565 229.272 203.565 247.425C203.565 265.578 218.254 280.294 236.375 280.294Z" fill="#FFDC19"/>
<path d="M18.3988 126.21C5.52871 114.406 -1.63141 96.7002 0.815718 78.0865C4.80363 47.8507 32.6284 26.5131 62.8097 30.5082C68.3384 31.2346 73.5952 32.7782 78.3988 34.9573" stroke="black" stroke-width="0.75" stroke-miterlimit="10" stroke-linecap="round" stroke-dasharray="3 3"/>
<path d="M326.375 116.857H298.55C296.465 116.857 294.834 115.223 294.834 113.135C294.834 111.046 296.465 109.412 298.55 109.412H300.091C302.175 109.412 303.807 107.687 303.807 105.689C303.807 103.601 302.175 101.966 300.091 101.966H262.387C260.302 101.966 258.671 103.601 258.671 105.689C258.671 107.778 260.302 109.412 262.387 109.412H266.284C268.369 109.412 270 111.137 270 113.135C270 115.223 268.369 116.857 266.284 116.857H245.347C243.263 116.857 241.631 118.492 241.631 120.58C241.631 122.669 243.263 124.303 245.347 124.303H280.423C282.508 124.303 284.139 126.028 284.139 128.026C284.139 130.114 282.508 131.748 280.423 131.748H270C267.915 131.748 266.284 133.383 266.284 135.471C266.284 137.559 267.915 139.194 270 139.194H310.876C312.961 139.194 314.592 137.469 314.592 135.471C314.592 133.383 312.961 131.748 310.876 131.748H307.069C304.985 131.748 303.353 130.114 303.353 128.026C303.353 125.937 304.985 124.303 307.069 124.303H326.284C328.369 124.303 330 122.578 330 120.58C330 118.583 328.369 116.857 326.375 116.857Z" fill="#FFDC19"/>
<path d="M310.514 109.321H314.683C316.767 109.321 318.399 107.596 318.399 105.598C318.399 103.51 316.767 101.876 314.683 101.876H310.604C308.52 101.876 306.888 103.51 306.888 105.598C306.888 107.687 308.429 109.321 310.514 109.321Z" fill="#FFDC19"/>
<path d="M259.305 131.839H256.495C254.411 131.839 252.779 133.473 252.779 135.562C252.779 137.65 254.411 139.285 256.495 139.285H259.305C261.39 139.285 263.021 137.559 263.021 135.562C263.021 133.473 261.39 131.839 259.305 131.839Z" fill="#FFDC19"/>
<path d="M6.97881 212.014H29.0936C30.725 212.014 32.0845 213.376 32.0845 215.01C32.0845 216.645 30.725 218.007 29.0936 218.007H27.9154C26.2839 218.007 25.0151 219.369 25.0151 221.003C25.0151 222.637 26.2839 223.999 27.9154 223.999H57.8247C59.4561 223.999 60.8157 222.637 60.8157 221.003C60.8157 219.369 59.4561 218.007 57.8247 218.007H54.7432C53.1117 218.007 51.8429 216.645 51.8429 215.01C51.8429 213.376 53.1117 212.014 54.7432 212.014H71.3293C72.9607 212.014 74.3202 210.652 74.3202 209.018C74.3202 207.383 72.9607 206.021 71.3293 206.021H43.5045C41.8731 206.021 40.6042 204.659 40.6042 203.025C40.6042 201.391 41.8731 200.029 43.5045 200.029H51.7522C53.3836 200.029 54.7432 198.667 54.7432 197.032C54.7432 195.398 53.3836 194.036 51.7522 194.036H19.2145C17.583 194.036 16.3142 195.398 16.3142 197.032C16.3142 198.667 17.583 200.029 19.2145 200.029H22.2054C23.8368 200.029 25.1963 201.391 25.1963 203.025C25.1963 204.659 23.8368 206.021 22.2054 206.021H6.97881C5.34739 206.021 4.0785 207.383 4.0785 209.018C3.98787 210.652 5.34739 212.014 6.97881 212.014Z" fill="#FFDC19"/>
<path d="M19.577 217.916C19.4863 217.916 19.4863 217.916 19.577 217.916H16.3141C14.6827 217.916 13.4138 219.278 13.4138 220.912C13.4138 222.547 14.6827 223.909 16.3141 223.909H19.577C21.2084 223.909 22.5679 222.547 22.5679 220.912C22.4773 219.278 21.2084 217.916 19.577 217.916Z" fill="#FFDC19"/>
<path d="M60.0906 200.119H62.3565C63.9879 200.119 65.3474 198.757 65.3474 197.123C65.3474 195.489 63.9879 194.127 62.3565 194.127H60.0906C58.4592 194.127 57.1903 195.489 57.1903 197.123C57.0997 198.757 58.4592 200.119 60.0906 200.119Z" fill="#FFDC19"/>
<path d="M163.686 245.973H167.311" stroke="black" stroke-width="0.75" stroke-miterlimit="10" stroke-linecap="round" stroke-linejoin="round"/>
<path d="M165.498 247.789V244.157" stroke="black" stroke-width="0.75" stroke-miterlimit="10" stroke-linecap="round" stroke-linejoin="round"/>
<path d="M290.937 108.05C286.133 90.4351 277.795 74.1822 266.918 60.1993" stroke="black" stroke-width="0.75" stroke-miterlimit="10" stroke-linecap="round"/>
<path d="M221.601 266.765C250.151 251.965 272.81 227.541 285.227 197.668" stroke="black" stroke-width="0.75" stroke-miterlimit="10" stroke-linecap="round"/>
<path d="M40.8761 214.92C48.2175 227.177 57.3716 238.164 67.9758 247.607" stroke="black" stroke-width="0.75" stroke-miterlimit="10" stroke-linecap="round"/>
<path d="M24.7432 115.405C22.7492 124.848 21.6616 134.563 21.6616 144.642C21.6616 160.985 24.5619 176.693 29.8187 191.312" stroke="black" stroke-width="0.75" stroke-miterlimit="10" stroke-linecap="round"/>
<path d="M145.921 7.89948C126.073 9.71544 107.402 15.7989 90.9064 25.2419" stroke="black" stroke-width="0.75" stroke-miterlimit="10" stroke-linecap="round"/>
<path d="M188.792 242.159H192.779" stroke="black" stroke-width="0.75" stroke-miterlimit="10" stroke-linecap="round" stroke-linejoin="round"/>
<path d="M192.598 245.973H209.456" stroke="black" stroke-width="0.75" stroke-miterlimit="10" stroke-linecap="round" stroke-linejoin="round"/>
<path d="M214.35 245.973H215.891" stroke="black" stroke-width="0.75" stroke-miterlimit="10" stroke-linecap="round" stroke-linejoin="round"/>
<path d="M197.946 242.159H222.326" stroke="black" stroke-width="0.75" stroke-miterlimit="10" stroke-linecap="round" stroke-linejoin="round"/>
<path d="M170.937 207.928H174.562" stroke="black" stroke-width="0.75" stroke-miterlimit="10" stroke-linecap="round" stroke-linejoin="round"/>
<path d="M172.749 209.744V206.112" stroke="black" stroke-width="0.75" stroke-miterlimit="10" stroke-linecap="round" stroke-linejoin="round"/>
<path d="M131.329 34.9573H134.955" stroke="black" stroke-width="0.75" stroke-miterlimit="10" stroke-linecap="round" stroke-linejoin="round"/>
<path d="M133.142 36.7733V33.1414" stroke="black" stroke-width="0.75" stroke-miterlimit="10" stroke-linecap="round" stroke-linejoin="round"/>
<path d="M78.3082 231.99C79.3093 231.99 80.1209 231.177 80.1209 230.174C80.1209 229.171 79.3093 228.358 78.3082 228.358C77.3071 228.358 76.4955 229.171 76.4955 230.174C76.4955 231.177 77.3071 231.99 78.3082 231.99Z" stroke="black" stroke-width="0.75" stroke-miterlimit="10" stroke-linecap="round" stroke-linejoin="round"/>
<path d="M83.7462 53.6618H87.4622" stroke="black" stroke-width="0.75" stroke-miterlimit="10" stroke-linecap="round" stroke-linejoin="round"/>
<path d="M87.3716 57.4753H107.583" stroke="black" stroke-width="0.75" stroke-miterlimit="10" stroke-linecap="round" stroke-linejoin="round"/>
<path d="M112.296 57.4753H113.746" stroke="black" stroke-width="0.75" stroke-miterlimit="10" stroke-linecap="round" stroke-linejoin="round"/>
<path d="M92.3564 53.6618H119.819" stroke="black" stroke-width="0.75" stroke-miterlimit="10" stroke-linecap="round" stroke-linejoin="round"/>
<path d="M186.526 278.024C186.526 278.206 186.707 278.297 186.888 278.297C187.069 278.297 187.16 278.115 187.16 277.934C187.16 277.752 186.979 277.661 186.798 277.661C186.616 277.752 186.526 277.843 186.526 278.024Z" fill="#B3B3B3"/>
<path d="M187.795 278.388C187.795 278.569 187.976 278.66 188.157 278.66C188.338 278.66 188.429 278.478 188.429 278.297C188.429 278.115 188.248 278.024 188.066 278.024C187.885 278.024 187.795 278.206 187.795 278.388Z" fill="#B3B3B3"/>
<path d="M91.9033 167.16H87.9154" stroke="black" stroke-width="0.75" stroke-miterlimit="10" stroke-linecap="round" stroke-linejoin="round"/>
<path d="M88.006 163.346H71.2386" stroke="black" stroke-width="0.75" stroke-miterlimit="10" stroke-linecap="round" stroke-linejoin="round"/>
<path d="M66.3444 163.346H64.8036" stroke="black" stroke-width="0.75" stroke-miterlimit="10" stroke-linecap="round" stroke-linejoin="round"/>
<path d="M82.7492 167.16H58.3685" stroke="black" stroke-width="0.75" stroke-miterlimit="10" stroke-linecap="round" stroke-linejoin="round"/>
<path d="M21.571 63.7404H40.9668C42.4169 63.7404 43.5952 64.9208 43.5952 66.3736C43.5952 67.8264 42.4169 69.0067 40.9668 69.0067H39.8791C38.429 69.0067 37.3414 70.1871 37.3414 71.6399C37.3414 73.0927 38.5196 74.273 39.8791 74.273H66.1631C67.6133 74.273 68.7915 73.0927 68.7915 71.6399C68.7915 70.1871 67.6133 69.0067 66.1631 69.0067H63.4441C61.9939 69.0067 60.9063 67.8264 60.9063 66.3736C60.9063 64.9208 62.0846 63.7404 63.4441 63.7404H77.9456C79.3958 63.7404 80.574 62.5601 80.574 61.1073C80.574 59.6545 79.3958 58.4741 77.9456 58.4741H53.5649C52.1148 58.4741 51.0272 57.2938 51.0272 55.841C51.0272 54.3882 52.2054 53.2078 53.5649 53.2078H60.8157C62.2659 53.2078 63.4441 52.0275 63.4441 50.5747C63.4441 49.1219 62.2659 47.9415 60.8157 47.9415H32.2658C30.8157 47.9415 29.7281 49.1219 29.7281 50.5747C29.7281 52.0275 30.9063 53.2078 32.2658 53.2078H34.8942C36.3444 53.2078 37.5226 54.3882 37.5226 55.841C37.5226 57.2938 36.3444 58.4741 34.8942 58.4741H21.571C20.1208 58.4741 19.0332 59.6545 19.0332 61.1073C18.9426 62.5601 20.1208 63.7404 21.571 63.7404Z" fill="white"/>
<path d="M32.5378 69.0067H29.6375C28.1873 69.0067 27.0997 70.1871 27.0997 71.6399C27.0997 73.0926 28.278 74.273 29.6375 74.273H32.5378C33.988 74.273 35.1662 73.0926 35.1662 71.6399C35.1662 70.0963 33.988 69.0067 32.5378 69.0067Z" fill="white"/>
<path d="M68.1571 53.2986H70.1511C71.6013 53.2986 72.7795 52.1183 72.7795 50.6655C72.7795 49.2127 71.6013 48.0323 70.1511 48.0323H68.1571C66.707 48.0323 65.6194 49.2127 65.6194 50.6655C65.6194 52.1183 66.707 53.2986 68.1571 53.2986Z" fill="white"/>
<path d="M243.535 56.2042V8.44425C243.535 4.72152 240.544 1.81598 236.918 1.81598H161.42C157.704 1.81598 154.804 4.81232 154.804 8.44425V56.2042C154.804 56.2042 147.825 64.1036 145.559 66.646C145.015 67.1908 144.834 68.0079 145.015 68.8251C145.65 71.2767 147.825 73.0926 150.453 73.0926H247.795C250.423 73.0926 252.689 71.2767 253.233 68.8251C253.414 68.0987 253.233 67.2815 252.689 66.646C250.514 64.1036 243.535 56.2042 243.535 56.2042Z" fill="black"/>
<path d="M149.728 71.1858H247.07C250.06 71.1858 252.417 68.8251 252.508 65.8287H144.29C144.29 68.7343 146.737 71.1858 149.728 71.1858Z" fill="#FFDC19"/>
<path d="M147.734 67.3723H252.236C252.417 66.9183 252.508 66.3735 252.508 65.8287H144.29C144.29 68.0987 145.74 70.0963 147.825 70.8226C147.281 70.1871 146.918 69.5515 146.737 68.7343C146.465 68.0079 147.009 67.3723 147.734 67.3723Z" fill="white"/>
<path d="M242.538 6.8099C242.538 3.26877 239.637 0.36322 236.103 0.36322H160.604C157.069 0.36322 154.169 3.26877 154.169 6.8099V7.08229H242.447V6.8099H242.538Z" fill="#FFDC19"/>
<path d="M242.628 54.6606V7.1731H154.169V54.6606L144.199 65.738H252.508L242.628 54.6606Z" fill="white"/>
<path d="M154.169 54.6606H242.628" stroke="black" stroke-width="0.75" stroke-miterlimit="10" stroke-linecap="round" stroke-linejoin="round"/>
<path d="M252.508 65.738C252.508 68.7343 250.06 71.1859 247.07 71.1859H149.728C146.737 71.1859 144.29 68.7343 144.29 65.738" stroke="black" stroke-width="0.75" stroke-miterlimit="10" stroke-linecap="round" stroke-linejoin="round"/>
<path d="M212.266 67.3723H184.532C183.716 67.3723 182.991 66.6459 182.991 65.8287H213.897C213.807 66.6459 213.082 67.3723 212.266 67.3723Z" fill="black" stroke="black" stroke-width="0.75" stroke-miterlimit="10" stroke-linecap="round" stroke-linejoin="round"/>
<path d="M198.943 3.08716H197.946C197.492 3.08716 197.221 3.45035 197.221 3.81354C197.221 4.26754 197.583 4.53993 197.946 4.53993H198.943C199.396 4.53993 199.668 4.17674 199.668 3.81354C199.668 3.45035 199.305 3.08716 198.943 3.08716Z" fill="black"/>
<path d="M149.003 62.8324L154.169 57.1121C154.622 56.5673 155.347 56.2949 156.073 56.2949H240.906C241.631 56.2949 242.266 56.5673 242.81 57.1121L247.976 62.8324C248.429 63.2864 248.066 64.1036 247.432 64.1036H149.547C148.912 64.1036 148.55 63.3772 149.003 62.8324Z" fill="#E6E6E6"/>
<path d="M161.964 1.81595H237.462C239.003 1.81595 240.453 2.36074 241.541 3.26873C240.363 1.54356 238.459 0.453979 236.193 0.453979H160.695C157.16 0.453979 154.26 3.35952 154.26 6.90066V7.17305H155.619C156.163 4.08591 158.792 1.81595 161.964 1.81595Z" fill="white"/>
<path d="M242.628 54.6606V6.8099C242.628 3.26877 239.728 0.36322 236.193 0.36322H160.695C157.16 0.36322 154.26 3.26877 154.26 6.8099V54.6606L144.29 65.738H252.598L242.628 54.6606Z" stroke="black" stroke-width="0.75" stroke-miterlimit="10" stroke-linecap="round" stroke-linejoin="round"/>
<path d="M154.169 7.1731H242.628" stroke="black" stroke-width="0.75" stroke-miterlimit="10" stroke-linecap="round" stroke-linejoin="round"/>
<path d="M177.734 40.5869H176.556C175.015 40.5869 173.746 41.858 173.746 43.4016C173.746 44.9452 175.015 46.2163 176.556 46.2163H177.734C179.275 46.2163 180.544 44.9452 180.544 43.4016C180.544 41.858 179.275 40.5869 177.734 40.5869Z" fill="#FFDC19"/>
<path d="M224.411 29.2371H211.631C210.091 29.2371 208.822 27.9659 208.822 26.4223C208.822 24.8788 210.091 23.6076 211.631 23.6076H212.81C214.35 23.6076 215.619 22.3364 215.619 20.7928C215.619 19.2493 214.35 17.9781 212.81 17.9781H182.538C180.997 17.9781 179.728 19.2493 179.728 20.7928C179.728 22.3364 180.997 23.6076 182.538 23.6076H185.166C186.707 23.6076 187.976 24.8788 187.976 26.4223C187.976 27.9659 186.707 29.2371 185.166 29.2371H170.393C168.852 29.2371 167.583 30.5083 167.583 32.0518C167.583 33.5954 168.852 34.8666 170.393 34.8666H188.066C189.607 34.8666 190.967 36.1377 190.967 37.6813C190.967 39.2249 189.698 40.4961 188.157 40.4961H185.619C184.079 40.4961 182.81 41.7672 182.81 43.3108C182.81 44.8544 184.079 46.1256 185.619 46.1256H187.432H215.166H221.148C222.689 46.1256 223.958 44.8544 223.958 43.3108C223.958 41.7672 222.689 40.4961 221.148 40.4961H216.707C215.166 40.4961 213.897 39.2249 213.897 37.6813C213.897 36.1377 215.166 34.8666 216.707 34.8666H224.32C225.861 34.8666 227.13 33.5954 227.13 32.0518C227.13 30.5083 226.042 29.2371 224.411 29.2371Z" fill="#FFDC19"/>
<path d="M220.695 23.5168H221.873C223.414 23.5168 224.683 22.2456 224.683 20.702C224.683 19.1584 223.414 17.8873 221.873 17.8873H220.695C219.154 17.8873 217.885 19.1584 217.885 20.702C217.885 22.2456 219.154 23.5168 220.695 23.5168Z" fill="#FFDC19"/>
<path d="M248.248 103.782C249.97 104.327 251.511 104.327 251.873 103.419C252.326 102.33 251.964 101.24 250.967 100.695C250.151 100.15 248.61 99.6965 247.341 99.6057C245.71 99.4241 243.988 99.5149 243.716 100.514C243.353 101.694 246.344 103.147 248.248 103.782Z" fill="#FFDC19"/>
<path d="M243.716 100.514C243.716 100.423 243.807 100.423 243.716 100.514C243.625 101.694 246.888 102.874 248.882 103.51C250.423 103.964 251.692 103.782 251.964 103.056C251.964 103.056 251.873 103.51 251.873 103.692C251.601 104.418 250.242 104.6 248.61 104.055C246.707 103.419 243.716 102.239 243.716 100.786C243.716 100.695 243.716 100.605 243.716 100.514Z" fill="black"/>
<path d="M247.16 100.695C247.16 100.786 247.251 100.877 247.341 100.877C247.432 100.877 247.523 100.786 247.523 100.695C247.523 100.604 247.432 100.514 247.341 100.514C247.16 100.514 247.069 100.604 247.16 100.695Z" fill="black"/>
<path d="M246.344 100.605C246.344 100.695 246.435 100.786 246.526 100.786C246.616 100.786 246.707 100.695 246.707 100.605C246.707 100.514 246.616 100.423 246.526 100.423C246.344 100.423 246.344 100.514 246.344 100.605Z" fill="black"/>
<path d="M245.619 100.514C245.619 100.604 245.71 100.604 245.801 100.604C245.891 100.604 245.891 100.514 245.891 100.423C245.891 100.332 245.801 100.332 245.71 100.332C245.619 100.332 245.529 100.423 245.619 100.514Z" fill="black"/>
<path d="M250.786 101.422C248.701 100.06 244.35 99.8781 243.716 100.514C244.079 99.5149 245.801 99.5149 247.341 99.6057C248.52 99.6965 250.06 100.151 250.967 100.695C251.873 101.24 252.326 102.33 251.873 103.419C251.873 103.51 251.782 103.601 251.692 103.692C252.054 102.602 251.692 101.966 250.786 101.422Z" fill="white"/>
<path d="M248.248 103.782C249.97 104.327 251.511 104.327 251.873 103.419C252.326 102.33 251.964 101.24 250.967 100.695C250.151 100.15 248.61 99.6965 247.341 99.6057C245.71 99.4241 243.988 99.5149 243.716 100.514C243.353 101.694 246.344 103.147 248.248 103.782Z" stroke="black" stroke-width="0.5" stroke-miterlimit="10" stroke-linecap="round" stroke-linejoin="round"/>
<path d="M251.692 97.8805C251.601 98.5161 251.42 99.7873 251.239 100.695C251.148 101.058 250.967 100.968 250.604 101.24C250.06 101.694 250.06 102.148 249.698 101.966C248.066 101.331 247.976 98.6069 247.885 97.7897L251.692 97.8805Z" fill="white" stroke="black" stroke-width="0.5" stroke-miterlimit="10" stroke-linecap="round" stroke-linejoin="round"/>
<path d="M238.006 104.236C239.728 104.781 241.269 104.781 241.631 103.873C242.085 102.784 241.722 101.694 240.725 101.149C239.909 100.605 238.369 100.151 237.1 100.06C235.468 99.8781 233.746 99.9689 233.474 100.968C233.112 102.148 236.103 103.601 238.006 104.236Z" fill="#FFDC19"/>
<path d="M233.474 100.968C233.565 100.877 233.565 100.877 233.474 100.968C233.384 102.148 236.647 103.328 238.64 103.964C240.181 104.418 241.45 104.236 241.722 103.51C241.722 103.51 241.631 103.964 241.631 104.146C241.36 104.872 240 105.054 238.369 104.509C236.465 103.873 233.474 102.693 233.474 101.24C233.474 101.149 233.474 101.058 233.474 100.968Z" fill="black"/>
<path d="M236.918 101.149C236.918 101.24 237.009 101.331 237.1 101.331C237.19 101.331 237.281 101.24 237.281 101.149C237.281 101.059 237.19 100.968 237.1 100.968C237.009 100.968 236.918 101.059 236.918 101.149Z" fill="black"/>
<path d="M236.103 101.058C236.103 101.149 236.193 101.24 236.284 101.24C236.375 101.24 236.465 101.149 236.465 101.058C236.465 100.968 236.375 100.877 236.284 100.877C236.193 100.877 236.103 100.968 236.103 101.058Z" fill="black"/>
<path d="M235.378 100.968C235.378 101.059 235.468 101.059 235.559 101.059C235.65 101.059 235.65 100.968 235.65 100.877C235.65 100.786 235.559 100.786 235.468 100.786C235.378 100.786 235.378 100.877 235.378 100.968Z" fill="black"/>
<path d="M240.544 101.785C237.915 100.332 234.381 100.423 233.474 100.968C233.837 99.9689 235.559 99.9689 237.1 100.06C238.278 100.151 239.819 100.605 240.725 101.149C241.631 101.694 242.085 102.784 241.631 103.873C241.631 103.964 241.541 104.055 241.45 104.146C241.813 103.056 241.541 102.33 240.544 101.785Z" fill="white"/>
<path d="M238.006 104.236C239.728 104.781 241.269 104.781 241.631 103.873C242.085 102.784 241.722 101.694 240.725 101.149C239.909 100.605 238.369 100.151 237.1 100.06C235.468 99.8781 233.746 99.9689 233.474 100.968C233.112 102.148 236.103 103.601 238.006 104.236Z" stroke="black" stroke-width="0.5" stroke-miterlimit="10" stroke-linecap="round" stroke-linejoin="round"/>
<path d="M241.45 98.3346C241.359 98.9702 241.178 100.241 240.997 101.149C240.906 101.513 240.725 101.422 240.363 101.694C239.819 102.148 239.819 102.602 239.456 102.421C237.825 101.785 237.734 99.061 237.643 98.2438L241.45 98.3346Z" fill="white" stroke="black" stroke-width="0.5" stroke-miterlimit="10" stroke-linecap="round" stroke-linejoin="round"/>
<path d="M244.441 67.6447L244.169 57.0213H251.782C254.864 63.8312 254.411 87.0755 252.145 97.9713C251.964 98.6977 251.511 99.2425 250.695 99.4241C250.151 99.5149 249.426 99.6057 248.792 99.4241C247.885 99.1517 247.523 98.6069 247.341 97.7897C246.616 94.7934 244.441 73.7282 244.441 67.6447Z" fill="black"/>
<path d="M244.894 68.0987L245.166 57.4753H237.553C234.471 64.2852 234.924 87.5296 237.19 98.4254C237.372 99.1518 237.825 99.6965 238.64 99.8781C239.184 99.9689 239.909 100.06 240.544 99.8781C241.45 99.6058 241.813 99.061 241.994 98.2438C242.719 95.2474 244.894 74.1822 244.894 68.0987Z" fill="black"/>
<path d="M248.248 59.2913C248.792 58.6557 256.949 50.1207 256.495 48.4863C256.042 47.0335 251.873 42.8568 249.789 39.3157C248.701 37.4997 249.426 35.3206 251.057 34.231C252.779 33.0506 254.773 33.777 256.133 35.6838C257.221 37.2273 261.027 44.0372 261.934 46.3979C263.384 50.1207 254.502 58.9281 251.057 61.7429C250.423 62.2877 247.885 59.8361 248.248 59.2913Z" fill="#FFDC19"/>
<path d="M260.937 46.3979C260.03 44.128 256.224 37.2273 255.136 35.6837C254.32 34.5941 253.505 33.6862 252.598 32.9598C253.142 33.1414 255.136 34.3218 256.133 35.6837C257.221 37.2273 261.027 44.0372 261.934 46.3979C263.384 50.1207 254.502 58.9281 251.057 61.7428C250.876 61.9244 250.604 61.8336 250.242 61.652C253.776 58.7465 262.387 50.1207 260.937 46.3979Z" fill="white"/>
<path d="M248.248 59.2913C248.792 58.6557 256.949 50.1207 256.495 48.4863C256.042 47.0335 251.873 42.8568 249.789 39.3157C248.701 37.4997 249.426 35.3206 251.057 34.231C252.779 33.0506 254.773 33.777 256.133 35.6838C257.221 37.2273 261.027 44.0372 261.934 46.3979C263.384 50.1207 254.502 58.9281 251.057 61.7429C250.423 62.2877 247.885 59.8361 248.248 59.2913Z" stroke="black" stroke-width="0.5" stroke-miterlimit="10" stroke-linecap="round" stroke-linejoin="round"/>
<path d="M221.511 30.145C221.601 29.0554 221.692 28.1474 221.601 27.6027C221.511 27.1487 221.511 26.6947 221.511 26.2407C221.511 25.8775 221.601 25.5143 221.329 25.5143C220.967 25.5143 220.695 26.2407 220.695 26.5131C220.695 26.7855 220.695 27.1487 220.695 27.4211C220.695 27.4211 220.695 27.6027 220.604 27.6027H220.514C220.242 26.9671 219.517 24.8787 219.517 24.8787C219.335 24.5155 219.154 23.7891 218.792 23.7891C218.338 23.8799 218.52 24.5155 218.701 24.8787C218.882 25.5143 219.063 26.2407 219.245 26.7855C219.245 26.7855 219.245 26.8763 219.154 26.7855C219.063 26.6947 218.973 26.6039 218.792 26.6039C218.429 26.6039 218.429 26.8763 218.429 27.2395C218.429 27.2395 218.429 27.2395 218.338 27.2395C218.248 27.1487 218.157 27.0579 217.976 27.0579C217.704 27.0579 217.613 27.3303 217.613 27.6934C217.523 27.6027 217.432 27.6027 217.341 27.6027C216.888 27.6027 216.979 28.1474 217.16 28.6014C217.251 28.9646 217.523 29.691 218.338 30.7806C218.701 31.2346 219.063 31.961 219.607 33.5045L222.054 32.415C221.601 31.2346 221.511 30.6898 221.511 30.145Z" fill="white" stroke="black" stroke-width="0.5" stroke-miterlimit="10" stroke-linecap="round" stroke-linejoin="round"/>
<path d="M222.508 31.6886C222.961 32.415 227.764 44.7636 229.305 43.7648C230.393 43.1292 234.743 37.7721 236.556 35.7745C238.459 33.777 241.178 31.507 246.616 31.5978C250.151 31.6886 253.595 32.6874 255.77 35.2297C260.121 40.3144 251.964 39.4065 253.867 58.0201C254.23 61.2889 254.955 63.1956 254.773 64.376C254.23 68.4619 241.36 68.4619 236.193 65.6472C232.568 63.7404 237.915 60.0177 237.915 44.582C237.19 45.2176 235.378 46.4887 234.653 47.1243C231.752 49.5759 230.574 50.4839 229.305 50.7563C225.136 51.4826 220.151 37.8629 218.792 33.5046C218.701 32.6874 222.145 31.1438 222.508 31.6886Z" fill="#FFDC19"/>
<path d="M240.453 22.6996C240.272 19.0677 242.991 16.5253 245.619 16.7069C248.248 16.8885 250.151 19.9756 249.879 23.6076C249.698 25.4235 249.063 27.0579 248.248 28.2383C248.338 30.2358 248.882 31.8702 250.151 32.1426H250.242C250.876 32.3242 251.511 32.5058 252.054 32.7782C251.601 33.6862 249.154 34.231 246.254 34.1402C243.263 34.0494 240.997 33.777 240.634 32.869C241.45 32.415 243.535 32.0518 243.988 30.5082C244.079 30.3266 244.079 30.0542 244.169 29.8727C242.085 28.9647 240.634 26.0591 240.453 22.6996Z" fill="white" stroke="black" stroke-width="0.5" stroke-miterlimit="10" stroke-linecap="round" stroke-linejoin="round"/>
<path d="M230.03 44.128C231.118 43.4924 235.468 38.1353 237.281 36.1378C239.184 34.1402 241.903 31.8702 247.341 31.961C248.973 31.961 250.695 32.2334 252.145 32.7782C250.423 32.0518 248.52 31.6886 246.526 31.6886C241.088 31.507 238.369 33.8678 236.465 35.8654C234.562 37.7721 230.211 43.1292 229.214 43.8556C229.214 43.8556 229.214 43.8556 229.124 43.8556C229.577 44.128 229.849 44.2188 230.03 44.128Z" fill="white"/>
<path d="M237.009 66.0104C233.384 64.1036 239.456 57.0213 238.459 45.49C238.369 44.7636 238.006 44.582 238.006 45.49C237.825 60.1085 232.749 63.7404 236.284 65.6472C236.737 65.9196 237.281 66.1012 237.915 66.3736C237.643 66.2828 237.281 66.192 237.009 66.0104Z" fill="white"/>
<path d="M219.698 33.777C219.517 33.1414 221.511 32.0518 222.598 31.8702C222.598 31.7794 222.508 31.6886 222.508 31.6886C222.145 31.053 218.701 32.6874 218.973 33.5046C220.242 37.6813 224.683 49.8483 228.671 50.7563C224.864 48.6679 220.876 37.6813 219.698 33.777Z" fill="white"/>
<path d="M222.508 31.6886C222.961 32.415 227.764 44.7636 229.305 43.7648C230.393 43.1292 234.743 37.7721 236.556 35.7745C238.459 33.777 241.178 31.507 246.616 31.5978C250.151 31.6886 253.595 32.6874 255.77 35.2297C260.121 40.3144 251.964 39.4065 253.867 58.0201C254.23 61.2889 254.955 63.1956 254.773 64.376C254.23 68.4619 241.36 68.4619 236.193 65.6472C232.568 63.7404 237.915 60.0177 237.915 44.582C237.19 45.2176 235.378 46.4887 234.653 47.1243C231.752 49.5759 230.574 50.4839 229.305 50.7563C225.136 51.4826 220.151 37.8629 218.792 33.5046C218.701 32.6874 222.145 31.1438 222.508 31.6886Z" stroke="black" stroke-width="0.5" stroke-miterlimit="10" stroke-linecap="round" stroke-linejoin="round"/>
<path d="M239.909 31.1438C244.169 26.4223 243.082 22.4272 241.45 22.8812C239.003 23.5167 239.184 20.9744 239.909 19.2492C240.725 17.4333 242.991 15.7989 245.257 16.0713C250.332 16.7069 250.151 22.972 254.773 28.9646C258.399 33.6862 257.583 36.9549 257.039 39.2249C255.952 43.5832 261.571 40.496 258.218 44.4912C255.136 48.2139 245.801 49.0311 240.363 45.3083C234.109 40.95 236.556 34.8665 239.909 31.1438Z" fill="black"/>
<path d="M241.813 24.6064C241.813 25.3327 241.994 25.8775 242.356 25.9683C242.628 26.0591 243.082 25.6051 243.263 24.4248C243.353 23.6076 242.991 23.2444 242.628 23.2444C242.085 23.3352 241.813 23.88 241.813 24.6064Z" fill="white"/>
<path d="M203.928 28.9647C206.556 33.2322 216.526 40.042 216.526 48.0323C216.526 55.4778 208.731 60.8349 199.758 60.8349H199.486C190.514 60.8349 182.719 55.4778 182.719 48.0323C182.719 40.1328 192.236 33.5954 195.317 28.8739C197.402 25.6959 190.786 20.702 189.607 19.0676C188.429 17.4333 190.332 15.2541 193.776 15.3449C198.308 15.4357 199.486 18.3413 202.205 17.6149C204.199 17.1609 207.281 16.0713 208.006 17.5241C209.456 20.0664 201.48 24.8787 203.928 28.9647Z" fill="black" stroke="black" stroke-width="0.45" stroke-miterlimit="10" stroke-linecap="round" stroke-linejoin="round"/>
<path d="M202.84 28.4199C205.468 32.6874 215.438 39.4972 215.438 47.4875C215.438 54.933 207.643 60.2901 198.671 60.2901H198.489C189.517 60.2901 181.722 54.933 181.722 47.4875C181.722 39.588 191.239 33.0506 194.32 28.3291C196.405 25.1511 189.789 20.1572 188.61 18.5228C187.432 16.8885 189.335 14.7093 192.779 14.8001C197.311 14.8909 198.489 17.7965 201.208 17.0701C203.202 16.6161 206.284 15.5265 207.009 16.9793C208.369 19.5216 200.393 24.3339 202.84 28.4199Z" fill="#FFDC19"/>
<path d="M193.776 49.2127C194.411 50.5746 196.133 51.5734 198.036 51.5734C200.574 51.5734 202.659 49.939 202.659 47.8507C202.659 45.0359 200.483 44.4911 198.036 44.128C194.864 43.7648 193.414 42.4936 193.414 40.4052C193.414 38.4077 195.498 36.6825 198.036 36.6825C199.94 36.6825 201.571 37.5905 202.296 38.9525" stroke="white" stroke-width="1.2001" stroke-miterlimit="10" stroke-linecap="round" stroke-linejoin="round"/>
<path d="M198.036 34.5941V53.6618" stroke="white" stroke-width="1.2001" stroke-miterlimit="10" stroke-linecap="round" stroke-linejoin="round"/>
<path d="M190.151 53.2986C188.52 51.8459 187.432 50.2115 187.069 47.9415" stroke="black" stroke-width="0.75" stroke-miterlimit="10" stroke-linecap="round" stroke-linejoin="round"/>
<path d="M183.988 47.7599C183.988 39.8605 193.505 33.323 196.586 28.6015C198.671 25.4235 192.326 19.9757 191.239 18.3413C190.06 16.7069 191.692 14.9817 195.045 14.9817C194.411 14.8001 193.686 14.7094 192.961 14.7094C189.517 14.6186 187.613 16.7977 188.792 18.4321C189.97 20.0664 196.586 25.1512 194.502 28.2383C191.329 32.9598 181.903 39.4065 181.903 47.3967C181.903 54.3882 188.792 59.5637 197.13 60.1085C189.698 58.9281 183.988 54.1158 183.988 47.7599Z" fill="white"/>
<path d="M202.84 28.4199C205.468 32.6874 215.438 39.4972 215.438 47.4875C215.438 54.933 207.643 60.2901 198.671 60.2901H198.489C189.517 60.2901 181.722 54.933 181.722 47.4875C181.722 39.588 191.239 33.0506 194.32 28.3291C196.405 25.1511 189.789 20.1572 188.61 18.5228C187.432 16.8885 189.335 14.7093 192.779 14.8001C197.311 14.8909 198.489 17.7965 201.208 17.0701C203.202 16.6161 206.284 15.5265 207.009 16.9793C208.369 19.5216 200.393 24.3339 202.84 28.4199Z" stroke="black" stroke-width="0.75" stroke-miterlimit="10" stroke-linecap="round" stroke-linejoin="round"/>
<path d="M194.592 26.6947H203.565" stroke="black" stroke-width="1.2001" stroke-miterlimit="10" stroke-linecap="round" stroke-linejoin="round"/>
<path d="M194.32 49.7575C194.955 51.1194 196.677 52.1182 198.58 52.1182C201.118 52.1182 203.202 50.4838 203.202 48.3955C203.202 45.5807 201.027 45.0359 198.58 44.6728C195.408 44.3096 193.958 43.0384 193.958 40.95C193.958 38.8617 196.042 37.2273 198.58 37.2273C200.483 37.2273 202.115 38.1353 202.84 39.4973" stroke="black" stroke-width="1.2001" stroke-miterlimit="10" stroke-linecap="round" stroke-linejoin="round"/>
<path d="M198.58 35.1389V54.2066" stroke="black" stroke-width="1.2001" stroke-miterlimit="10" stroke-linecap="round" stroke-linejoin="round"/>
<path d="M159.607 261.317C157.07 254.054 147.281 244.157 126.254 246.971C123.716 247.335 117.915 248.697 117.915 248.697L110.846 202.026C102.236 198.213 92.3565 204.205 97.1601 221.275C100.786 233.987 92.719 243.793 88.7311 253.963C83.9275 266.13 88.8218 277.934 98.1571 282.11C103.233 284.38 110.03 286.923 124.985 286.923C128.61 286.923 131.873 286.741 134.864 286.287C138.218 285.924 142.024 285.288 146.284 284.108C160.604 280.567 162.598 270.034 159.607 261.317Z" fill="black"/>
<path d="M135.68 234.623C125.347 226.542 122.991 215.01 114.653 205.386C105.861 195.216 89.4562 199.393 95.4381 220.458C99.0635 233.17 90.997 242.976 87.0091 253.146C82.2055 265.313 87.0997 277.116 96.4351 281.293C101.511 283.563 108.308 286.105 123.263 286.105C142.749 286.105 155.076 280.113 158.429 272.758C165.68 256.959 146.737 243.158 135.68 234.623Z" fill="#FFDC19"/>
<path d="M88.8218 254.054C92.8097 243.884 100.876 234.078 97.2508 221.366C92.4471 204.478 102.145 198.485 110.665 202.026C101.782 196.76 90.3626 202.389 95.4381 220.458C99.0635 233.17 90.997 242.976 87.0091 253.146C82.2055 265.313 87.0997 277.116 96.4351 281.293C96.5257 281.293 96.5257 281.384 96.6163 281.384C88.3686 276.572 84.29 265.494 88.8218 254.054Z" fill="white"/>
<path d="M122.719 197.668C125.257 197.123 127.613 198.757 128.429 201.209C129.426 204.296 132.598 219.732 133.958 222.274C135.77 225.452 143.202 231.172 149.094 234.169C149.909 234.623 150.997 234.714 151.994 234.986C153.444 235.349 155.257 235.803 155.619 235.894C155.891 235.985 156.344 236.166 156.254 236.439C156.073 236.893 154.985 236.711 154.35 236.62C154.441 236.62 154.713 236.802 154.985 236.893C155.891 237.347 157.16 237.982 158.248 238.618C158.61 238.799 158.973 238.981 158.882 239.344C158.792 239.707 158.429 239.707 158.157 239.617C157.16 239.253 155.619 238.436 154.532 237.982C154.169 237.801 154.079 237.892 154.532 238.164C155.166 238.527 157.251 239.617 158.248 240.161C158.701 240.434 158.792 240.706 158.701 240.888C158.61 241.16 158.248 241.16 157.704 240.979C156.888 240.615 155.076 239.798 153.897 239.253C153.535 239.072 153.263 239.072 153.988 239.526C154.985 240.071 156.435 240.797 157.341 241.342C157.704 241.614 157.704 241.887 157.432 242.068C157.251 242.25 156.888 242.068 156.526 241.887C155.71 241.523 154.26 240.888 153.082 240.343C152.81 240.252 152.628 240.252 152.991 240.434C153.535 240.797 154.169 241.069 155.166 241.614C155.529 241.796 155.619 242.159 155.438 242.341C155.257 242.522 154.894 242.431 154.532 242.25C153.353 241.705 153.082 241.523 151.813 240.888C150.634 240.252 149.547 239.072 148.369 238.436C146.012 237.256 133.686 231.082 129.426 228.267C125.438 225.543 120.091 208.927 119.094 203.57C118.731 200.846 120.091 198.213 122.719 197.668Z" fill="white" stroke="black" stroke-width="0.5" stroke-miterlimit="10" stroke-linecap="round" stroke-linejoin="round"/>
<path d="M122.357 196.487C126.073 195.67 129.426 198.394 130.423 202.117C131.057 204.296 131.601 209.744 131.782 211.469C131.782 211.742 131.601 212.014 131.329 212.105L121.903 214.193C121.631 214.284 121.36 214.102 121.269 213.921C120.544 212.559 118.187 207.837 117.644 205.204C116.828 201.209 118.55 197.305 122.357 196.487Z" fill="black"/>
<path d="M154.26 286.741C153.353 289.193 151.994 290.01 151.45 292.28C151.178 293.46 151.36 295.367 153.535 295.639C157.251 296.093 164.773 297.092 170.03 297.728C172.931 298.091 173.746 296.184 172.205 294.55C170.121 292.37 165.227 290.918 160.514 286.741C159.426 285.742 158.429 285.107 157.16 284.925C156.163 284.743 154.894 285.016 154.26 286.741Z" fill="#FFDC19"/>
<path d="M171.934 295.458C169.849 293.278 164.955 291.826 160.242 287.649C159.154 286.65 158.157 286.015 156.888 285.833C155.891 285.742 156.163 284.743 157.251 284.834C158.52 285.016 159.517 285.651 160.604 286.65C165.317 290.827 170.302 292.28 172.296 294.459C173.112 295.367 173.293 296.366 172.749 297.001C172.659 296.547 172.387 296.002 171.934 295.458Z" fill="white"/>
<path d="M154.26 286.741C153.353 289.193 151.994 290.01 151.45 292.28C151.178 293.46 151.36 295.367 153.535 295.639C157.251 296.093 164.773 297.092 170.03 297.728C172.931 298.091 173.746 296.184 172.205 294.55C170.121 292.37 165.227 290.918 160.514 286.741C159.426 285.742 158.429 285.107 157.16 284.925C156.163 284.743 154.894 285.016 154.26 286.741Z" stroke="black" stroke-width="0.5" stroke-miterlimit="10" stroke-linecap="round" stroke-linejoin="round"/>
<path d="M151.541 291.826C151.631 292.824 152.175 293.823 153.716 294.005C157.432 294.459 164.955 295.458 170.211 296.093C171.48 296.275 172.387 296.002 172.84 295.458C173.293 296.82 172.387 298 170.03 297.637C164.773 297.001 157.251 296.002 153.535 295.548C151.36 295.276 151.178 293.369 151.45 292.189C151.541 292.098 151.541 292.007 151.541 291.826Z" fill="black"/>
<path d="M162.598 290.464C162.598 290.736 162.779 290.918 162.961 290.918C163.233 290.918 163.414 290.736 163.414 290.555C163.414 290.282 163.233 290.101 163.051 290.101C162.779 290.01 162.598 290.191 162.598 290.464Z" fill="black"/>
<path d="M164.048 291.281C164.048 291.553 164.23 291.735 164.411 291.735C164.683 291.735 164.864 291.553 164.864 291.372C164.864 291.099 164.683 290.918 164.502 290.918C164.32 290.827 164.139 291.009 164.048 291.281Z" fill="black"/>
<path d="M165.589 292.098C165.589 292.371 165.77 292.552 165.952 292.552C166.224 292.552 166.405 292.37 166.405 292.189C166.405 291.916 166.224 291.735 166.042 291.735C165.77 291.735 165.589 291.917 165.589 292.098Z" fill="black"/>
<path d="M181.631 280.022C181.269 282.564 180.181 283.745 180.181 286.015C180.181 287.195 180.816 289.011 182.991 288.739C186.707 288.375 194.23 287.649 199.486 287.104C202.387 286.832 202.749 284.743 200.937 283.472C198.489 281.838 193.323 281.566 187.795 278.478C186.526 277.752 185.347 277.298 184.079 277.48C182.991 277.57 181.903 278.206 181.631 280.022Z" fill="#FFDC19"/>
<path d="M200.574 284.471C198.127 282.837 192.961 282.564 187.432 279.477C186.163 278.751 184.985 278.297 183.716 278.478C182.991 278.569 182.175 278.932 181.631 279.75C181.903 278.115 182.991 277.57 183.988 277.48C185.257 277.389 186.435 277.843 187.704 278.478C193.233 281.475 198.399 281.747 200.846 283.472C202.024 284.289 202.296 285.379 201.662 286.105C201.662 285.561 201.299 284.925 200.574 284.471Z" fill="white"/>
<path d="M190.604 281.747C190.604 281.929 190.876 282.11 191.057 282.11C191.239 282.11 191.42 281.838 191.42 281.656C191.42 281.475 191.148 281.293 190.967 281.293C190.695 281.293 190.514 281.475 190.604 281.747Z" fill="black"/>
<path d="M192.236 282.201C192.236 282.383 192.508 282.564 192.689 282.564C192.87 282.564 193.051 282.292 193.051 282.11C193.051 281.929 192.779 281.747 192.598 281.747C192.326 281.747 192.236 282.019 192.236 282.201Z" fill="black"/>
<path d="M193.958 282.655C193.958 282.837 194.23 283.018 194.411 283.018C194.592 283.018 194.773 282.746 194.773 282.564C194.773 282.383 194.502 282.201 194.32 282.201C194.048 282.201 193.867 282.473 193.958 282.655Z" fill="black"/>
<path d="M180.181 285.561C180.453 286.469 181.269 287.377 182.81 287.195C186.526 286.832 194.048 286.105 199.305 285.561C200.665 285.47 201.39 284.925 201.752 284.289C202.477 285.47 201.843 286.832 199.486 287.104C194.23 287.649 186.707 288.375 182.991 288.739C180.816 288.92 180.181 287.195 180.181 286.015C180.181 285.833 180.181 285.742 180.181 285.561Z" fill="black"/>
<path d="M181.631 280.022C181.269 282.564 180.181 283.745 180.181 286.015C180.181 287.195 180.816 289.011 182.991 288.739C186.707 288.375 194.23 287.649 199.486 287.104C202.387 286.832 202.749 284.743 200.937 283.472C198.489 281.838 193.323 281.566 187.795 278.478C186.526 277.752 185.347 277.298 184.079 277.48C182.991 277.57 181.903 278.206 181.631 280.022Z" stroke="black" stroke-width="0.5" stroke-miterlimit="10" stroke-linecap="round" stroke-linejoin="round"/>
<path opacity="0.36" d="M110.121 203.388C105.317 207.292 106.767 216.282 108.036 222.274C111.208 236.53 104.773 243.43 111.934 248.152C113.565 249.241 120.363 249.423 120.816 238.618C121.178 230.628 113.837 200.301 110.121 203.388Z" fill="#E78D00"/>
<path d="M133.233 234.623C140.212 234.169 168.671 237.619 175.287 249.241C180.997 259.048 185.982 273.03 187.976 278.66C188.429 280.113 187.795 281.747 186.344 282.383C185.076 282.927 183.625 282.564 182.81 281.475C179.275 277.026 170.212 265.131 166.586 255.779C166.314 255.143 165.77 254.78 165.136 254.78C160.876 254.689 145.196 254.326 137.492 252.964C117.372 249.605 120.272 235.531 133.233 234.623Z" fill="white" stroke="black" stroke-width="0.5" stroke-miterlimit="10"/>
<path d="M122.538 242.25C122.628 240.252 123.716 238.255 125.619 236.802C127.523 235.258 130.151 234.35 133.233 234.169C136.677 233.987 145.559 234.623 154.532 236.984C162.145 238.981 172.024 242.613 175.65 249.06L176.103 249.877C181.088 258.684 185.529 270.67 187.795 276.935C188.248 278.297 181.36 280.476 180.725 279.386C179.275 277.389 177.372 274.846 175.378 272.032C171.39 266.311 168.943 261.953 167.13 257.958C166.314 256.233 165.136 255.325 162.598 255.143C156.979 254.871 144.471 254.598 137.402 253.418C132.508 252.601 128.61 250.966 125.982 248.878C123.625 246.971 122.447 244.611 122.538 242.25Z" fill="black"/>
<path d="M125.166 233.715C133.142 233.624 168.671 239.707 167.311 255.87C166.405 267.038 162.508 281.293 160.785 287.195C160.423 288.466 159.245 289.374 157.795 289.374H157.251C155.891 289.102 154.894 288.012 154.804 286.65C154.441 281.021 153.897 266.584 156.073 256.868C156.254 256.233 155.801 255.597 155.076 255.506C150.634 255.143 135.68 253.963 128.157 252.238C108.671 247.789 112.205 233.806 125.166 233.715Z" fill="white" stroke="black" stroke-width="0.5" stroke-miterlimit="10"/>
<path d="M161.601 286.105C164.048 279.386 166.949 266.402 167.764 255.87C168.036 252.601 166.858 249.605 164.32 246.79C159.517 241.523 150.634 238.255 144.018 236.439C136.677 234.35 129.063 233.352 125.438 233.352C125.347 233.352 125.347 233.352 125.257 233.352C122.266 233.352 115.015 233.987 113.746 240.888C113.293 243.249 114.199 246.336 116.375 248.333C118.822 250.603 122.991 251.784 128.338 252.692C134.773 253.781 146.284 255.052 152.447 256.142C154.713 256.505 155.801 257.776 155.347 260.5C154.169 268.945 153.807 278.66 154.532 284.562C154.622 285.651 161.239 287.195 161.601 286.105Z" fill="#141414"/>
<g opacity="0.15">
<path d="M109.758 256.687C111.118 252.147 114.743 248.515 119.547 246.881C122.266 245.882 125.076 245.065 129.517 244.52C145.196 242.704 154.169 251.33 156.616 258.503C159.607 267.038 157.523 277.389 143.474 280.93C104.32 290.827 106.042 268.945 109.758 256.687Z" fill="black"/>
</g>
<path d="M110.574 246.971C113.927 250.058 116.828 247.153 124.532 246.063C145.468 243.249 155.347 253.055 157.885 260.409C160.876 269.126 158.792 279.659 144.653 283.291C90.8157 297.183 110.574 246.971 110.574 246.971Z" fill="#FFDC19"/>
<path d="M138.399 242.25L155.982 248.243C156.163 248.333 156.254 248.243 156.435 248.152L164.592 241.251C164.683 241.16 164.773 241.069 164.773 240.888C164.773 240.706 164.773 240.343 164.773 240.343L147.19 234.714C146.918 234.623 146.556 234.714 146.375 234.895L138.218 241.251V241.887C138.036 242.068 138.127 242.25 138.399 242.25Z" fill="#ECEEEF"/>
<path d="M138.308 241.614L155.891 247.607C156.072 247.698 156.163 247.607 156.344 247.516L164.501 240.706C164.773 240.525 164.683 240.071 164.411 239.98L147.1 234.078C146.828 233.987 146.465 234.078 146.284 234.26L138.308 240.979C137.946 241.069 138.036 241.523 138.308 241.614Z" fill="white"/>
<path d="M150.634 237.256C149.819 236.984 147.553 236.257 146.828 235.985C146.647 235.894 146.465 235.985 146.284 236.076C145.468 236.711 142.568 239.163 141.752 239.889C141.662 239.98 141.662 240.161 141.843 240.252L145.65 241.523C145.831 241.614 146.012 241.523 146.193 241.433L150.725 237.619C150.816 237.528 150.725 237.347 150.634 237.256Z" fill="#E6E6E6"/>
<path d="M153.897 245.337C153.807 245.337 153.444 245.155 153.263 245.155H153.172C153.082 245.246 152.628 245.609 152.447 245.791C152.447 245.791 152.447 245.791 152.447 245.882L153.082 246.063H153.172L153.897 245.337Z" fill="#E6E6E6"/>
<path d="M155.257 244.157C155.166 244.157 154.804 243.975 154.622 243.975H154.532C154.441 244.066 153.988 244.429 153.807 244.611C153.807 244.611 153.807 244.611 153.807 244.701L154.441 244.883H154.532L155.257 244.157C155.347 244.157 155.347 244.157 155.257 244.157Z" fill="#E6E6E6"/>
<path d="M156.707 242.976C156.616 242.976 156.254 242.795 156.072 242.795H155.982C155.891 242.885 155.438 243.249 155.257 243.43C155.257 243.43 155.257 243.43 155.257 243.521L155.891 243.703H155.982L156.707 242.976Z" fill="#E6E6E6"/>
<path d="M158.066 241.796C157.976 241.796 157.613 241.614 157.432 241.614H157.341C157.251 241.705 156.798 242.068 156.616 242.25C156.616 242.25 156.616 242.25 156.616 242.341L157.251 242.522H157.341L158.066 241.796Z" fill="#E6E6E6"/>
<path d="M159.426 240.615C159.335 240.615 158.973 240.434 158.792 240.434H158.701C158.61 240.525 158.157 240.888 157.976 241.069C157.976 241.069 157.976 241.069 157.976 241.16L158.61 241.342H158.701L159.426 240.615Z" fill="#E6E6E6"/>
<path d="M160.876 239.435C160.785 239.435 160.423 239.253 160.242 239.253H160.151C160.06 239.344 159.607 239.707 159.426 239.889C159.426 239.889 159.426 239.889 159.426 239.98L160.06 240.161H160.151L160.876 239.435Z" fill="#E6E6E6"/>
<path d="M152.447 244.883C152.356 244.883 151.994 244.701 151.813 244.701H151.722C151.631 244.792 151.178 245.155 150.997 245.337C150.997 245.337 150.997 245.337 150.997 245.428L151.631 245.609H151.722L152.447 244.883Z" fill="#E6E6E6"/>
<path d="M153.807 243.703C153.716 243.703 153.353 243.521 153.172 243.521H153.082C152.991 243.612 152.538 243.975 152.357 244.157C152.357 244.157 152.357 244.157 152.357 244.247L152.991 244.429H153.082L153.807 243.703Z" fill="#E6E6E6"/>
<path d="M155.166 242.431C155.076 242.431 154.713 242.25 154.532 242.25H154.441C154.35 242.341 153.897 242.704 153.716 242.885C153.716 242.885 153.716 242.885 153.716 242.976L154.35 243.158H154.441L155.166 242.431C155.257 242.522 155.257 242.522 155.166 242.431Z" fill="#E6E6E6"/>
<path d="M156.616 241.251C156.526 241.251 156.163 241.069 155.982 241.069H155.891C155.801 241.16 155.347 241.523 155.166 241.705C155.166 241.705 155.166 241.705 155.166 241.796L155.801 241.977H155.891L156.616 241.251Z" fill="#E6E6E6"/>
<path d="M157.976 240.071C157.885 240.071 157.523 239.889 157.341 239.889H157.251C157.16 239.98 156.707 240.343 156.526 240.525C156.526 240.525 156.526 240.525 156.526 240.615L157.16 240.797H157.251L157.976 240.071Z" fill="#E6E6E6"/>
<path d="M159.335 238.89C159.245 238.89 158.882 238.709 158.701 238.709H158.61C158.52 238.799 158.066 239.163 157.885 239.344C157.885 239.344 157.885 239.344 157.885 239.435L158.52 239.617H158.61L159.335 238.89Z" fill="#E6E6E6"/>
<path d="M150.997 244.338C150.906 244.338 150.544 244.157 150.363 244.157H150.272C150.181 244.247 149.728 244.611 149.547 244.792C149.547 244.792 149.547 244.792 149.547 244.883L150.181 245.065H150.272L150.997 244.338Z" fill="#E6E6E6"/>
<path d="M152.357 243.158C152.266 243.158 151.903 242.976 151.722 242.976H151.631C151.541 243.067 151.088 243.43 150.906 243.612C150.906 243.612 150.906 243.612 150.906 243.703L151.541 243.884H151.631L152.357 243.158Z" fill="#E6E6E6"/>
<path d="M153.716 241.977C153.625 241.977 153.263 241.796 153.082 241.796H152.991C152.9 241.887 152.447 242.25 152.266 242.431C152.266 242.431 152.266 242.431 152.266 242.522L152.9 242.704H152.991L153.716 241.977Z" fill="#E6E6E6"/>
<path d="M155.076 240.797C154.985 240.797 154.622 240.615 154.441 240.615H154.35C154.26 240.706 153.807 241.069 153.625 241.251C153.625 241.251 153.625 241.251 153.625 241.342L154.26 241.523H154.35L155.076 240.797C155.166 240.797 155.166 240.797 155.076 240.797Z" fill="#E6E6E6"/>
<path d="M156.526 239.617C156.435 239.617 156.073 239.435 155.891 239.435H155.801C155.71 239.526 155.257 239.889 155.076 240.071C155.076 240.071 155.076 240.071 155.076 240.161L155.71 240.343H155.801L156.526 239.617Z" fill="#E6E6E6"/>
<path d="M157.885 238.436C157.795 238.436 157.432 238.255 157.251 238.255H157.16C157.069 238.345 156.616 238.709 156.435 238.89C156.435 238.89 156.435 238.89 156.435 238.981L157.069 239.163H157.16L157.885 238.436Z" fill="#E6E6E6"/>
<path d="M149.547 243.793C149.456 243.793 149.094 243.612 148.912 243.612H148.822C148.731 243.703 148.278 244.066 148.097 244.247C148.097 244.247 148.097 244.247 148.097 244.338L148.731 244.52H148.822L149.547 243.793Z" fill="#E6E6E6"/>
<path d="M150.906 242.613C150.816 242.613 150.453 242.431 150.272 242.431H150.181C150.091 242.522 149.637 242.885 149.456 243.067C149.456 243.067 149.456 243.067 149.456 243.158L150.091 243.339H150.181L150.906 242.613Z" fill="#E6E6E6"/>
<path d="M152.266 241.433C152.175 241.433 151.813 241.251 151.631 241.251H151.541C151.45 241.342 150.997 241.705 150.816 241.887C150.816 241.887 150.816 241.887 150.816 241.977L151.45 242.159H151.541L152.266 241.433Z" fill="#E6E6E6"/>
<path d="M153.625 240.252C153.535 240.252 153.172 240.071 152.991 240.071H152.9C152.81 240.161 152.357 240.525 152.175 240.706C152.175 240.706 152.175 240.706 152.175 240.797L152.81 240.979H152.9L153.625 240.252C153.716 240.343 153.716 240.252 153.625 240.252Z" fill="#E6E6E6"/>
<path d="M155.076 239.072C154.985 239.072 154.622 238.89 154.441 238.89H154.35C154.26 238.981 153.807 239.344 153.625 239.526C153.625 239.526 153.625 239.526 153.625 239.617L154.26 239.798H154.35L155.076 239.072Z" fill="#E6E6E6"/>
<path d="M156.435 237.892C156.344 237.892 155.982 237.71 155.801 237.71H155.71C155.619 237.801 155.166 238.164 154.985 238.345C154.985 238.345 154.985 238.346 154.985 238.436L155.619 238.618H155.71L156.435 237.892Z" fill="#E6E6E6"/>
<path d="M164.411 229.538L156.254 247.335C156.254 247.425 156.344 247.425 156.344 247.425L164.502 240.615C164.683 240.434 164.773 240.252 164.955 240.071L172.659 223.091C172.749 222.91 172.477 222.728 172.296 222.819L164.773 228.993C164.683 229.175 164.502 229.356 164.411 229.538Z" fill="#FFDC19"/>
<path d="M164.139 235.258C163.686 236.257 163.595 237.165 163.867 237.256C164.139 237.347 164.683 236.62 165.136 235.712C165.589 234.714 165.68 233.806 165.408 233.715C165.136 233.533 164.592 234.26 164.139 235.258Z" fill="white"/>
<path d="M124.622 194.49C122.085 193.128 115.106 192.129 110.937 197.668C106.949 203.025 108.671 211.015 110.393 216.917C114.471 230.9 109.758 240.979 112.568 243.884C113.927 245.337 114.834 241.614 119.275 238.436C125.801 233.896 133.867 234.441 137.039 234.895C140.03 235.258 135.77 230.174 133.867 215.737C132.417 204.296 130.514 197.668 124.622 194.49Z" fill="#FFDC19"/>
<path d="M116.193 247.879C116.193 247.879 121.994 246.427 124.532 246.154C145.468 243.339 155.347 253.146 157.885 260.5C160.876 269.217 158.792 279.75 144.653 283.381C140.393 284.471 136.586 285.197 133.233 285.561C130.242 285.924 126.979 286.196 123.353 286.196C108.399 286.196 101.601 283.563 96.5257 281.384C87.0997 277.207 82.2054 265.494 87.0997 253.236C91.0876 243.067 99.1541 233.261 95.5287 220.549C90.7251 203.479 100.604 197.577 109.214 201.3" stroke="black" stroke-width="0.5" stroke-miterlimit="10" stroke-linecap="round" stroke-linejoin="round"/>
<path d="M111.662 217.28C109.94 211.288 108.127 203.116 112.205 197.759C114.743 194.308 118.459 193.4 121.45 193.491C118.278 193.037 113.927 193.673 111.027 197.577C107.039 202.934 108.761 210.924 110.483 216.826C114.562 230.809 109.849 240.888 112.659 243.793C112.931 244.066 113.202 244.157 113.474 244.066C111.571 240.434 115.468 230.628 111.662 217.28Z" fill="white"/>
<path d="M124.622 194.49C122.085 193.128 115.106 192.129 110.937 197.668C106.949 203.025 108.671 211.015 110.393 216.917C114.471 230.9 109.758 240.979 112.568 243.884C113.927 245.337 114.834 241.614 119.275 238.436C125.801 233.896 133.867 234.441 137.039 234.895C140.03 235.258 135.77 230.174 133.867 215.737C132.417 204.296 130.514 197.668 124.622 194.49Z" stroke="black" stroke-width="0.5" stroke-miterlimit="10" stroke-linecap="round" stroke-linejoin="round"/>
<path d="M117.553 198.757C120.181 198.303 122.538 200.029 123.263 202.662C124.169 205.931 126.707 221.911 128.066 224.453C129.789 227.813 137.13 233.987 143.021 237.256C143.837 237.71 144.924 237.891 145.921 238.164C147.372 238.618 149.184 239.163 149.637 239.253C149.909 239.344 150.363 239.526 150.272 239.889C150.091 240.343 148.912 240.161 148.278 239.98C148.369 239.98 148.64 240.161 148.912 240.343C149.819 240.797 151.088 241.523 152.175 242.25C152.538 242.431 152.9 242.704 152.81 243.067C152.719 243.43 152.266 243.43 151.994 243.249C150.997 242.795 149.456 241.887 148.369 241.433C148.006 241.251 147.915 241.342 148.369 241.614C149.003 241.977 151.088 243.158 152.085 243.793C152.538 244.066 152.628 244.338 152.538 244.52C152.447 244.792 152.085 244.792 151.541 244.52C150.725 244.157 148.912 243.158 147.734 242.613C147.372 242.431 147.1 242.431 147.825 242.885C148.822 243.521 150.272 244.247 151.178 244.883C151.541 245.155 151.541 245.428 151.269 245.609C150.997 245.791 150.725 245.609 150.363 245.428C149.547 244.974 148.006 244.247 146.918 243.703C146.647 243.521 146.465 243.521 146.828 243.793C147.372 244.157 148.006 244.52 149.003 245.155C149.366 245.337 149.456 245.7 149.275 245.882C149.094 246.063 148.731 245.973 148.369 245.791C147.19 245.155 146.918 244.974 145.65 244.247C144.471 243.521 143.384 242.341 142.205 241.614C139.849 240.343 127.523 233.533 123.263 230.355C119.275 227.45 114.471 210.198 113.746 204.659C113.384 201.935 114.834 199.302 117.553 198.757Z" fill="white" stroke="black" stroke-width="0.5" stroke-miterlimit="10" stroke-linecap="round" stroke-linejoin="round"/>
<path d="M117.281 197.577C121.088 196.851 124.441 199.847 125.347 203.661C125.891 205.931 126.254 211.56 126.344 213.285C126.344 213.558 126.163 213.83 125.891 213.921L116.103 215.646C115.831 215.737 115.559 215.555 115.468 215.283C114.834 213.83 112.568 208.927 112.115 206.203C111.39 202.208 113.293 198.303 117.281 197.577Z" fill="black"/>
<path d="M115.559 194.127C118.097 192.946 118.64 188.134 118.822 183.594C117.009 178.419 118.006 172.154 124.169 171.881C128.429 171.7 131.329 174.968 131.42 178.237C131.511 180.325 130.242 181.415 130.151 182.686C130.06 183.594 131.148 184.775 130.967 185.683C130.785 186.227 129.607 186.227 129.245 186.5C128.882 186.681 128.429 186.681 128.338 188.406C128.157 190.495 126.798 190.676 125.619 190.586C125.076 190.495 124.532 190.404 123.988 190.132C123.988 190.767 123.988 191.403 123.988 191.948C123.988 193.128 124.26 194.127 125.076 194.762C125.257 194.944 125.438 195.035 125.438 195.035C124.622 195.307 123.716 195.489 122.81 195.67C119.909 196.034 117.1 195.58 115.106 194.399C115.287 194.218 115.468 194.127 115.559 194.127Z" fill="white" stroke="black" stroke-width="0.5" stroke-miterlimit="10" stroke-linecap="round" stroke-linejoin="round"/>
<path d="M125.076 179.508C126.888 178.237 126.616 177.057 127.885 176.421C129.335 175.695 130.695 177.511 131.42 176.875C133.323 175.241 133.414 170.065 129.335 170.882C124.622 171.881 118.187 168.976 115.831 175.059C115.015 177.057 115.831 179.871 116.284 181.324C117.009 183.413 117.734 184.865 118.006 185.319C118.731 186.591 120.544 185.229 119.547 182.959C118.822 181.233 119.275 179.69 120.453 179.871C121.178 179.962 121.631 180.416 121.722 181.687C121.722 182.051 122.085 182.777 122.628 182.414C123.444 182.051 122.447 180.961 125.076 179.508Z" fill="black"/>
<path d="M188.61 85.986C159.335 84.8964 134.048 107.505 131.964 136.833C130.967 151.179 135.499 164.526 143.746 174.877C144.109 175.331 144.29 175.876 144.381 176.421C144.381 176.966 144.381 177.511 144.199 177.874C142.387 184.502 135.952 190.132 135.861 190.222C135.77 190.313 135.77 190.404 135.77 190.495C135.77 190.586 135.861 190.676 136.042 190.676C142.477 191.13 149.003 189.496 153.807 188.316C155.257 187.952 156.526 187.68 157.523 187.498C157.704 187.498 157.976 187.498 158.157 187.589C166.586 192.765 176.556 195.67 187.251 195.579C215.619 195.307 239.275 172.971 241.269 144.642C243.263 113.589 219.426 87.1663 188.61 85.986Z" fill="black"/>
<path d="M184.079 83.262C154.713 83.3528 130.423 106.96 129.517 136.288C129.063 150.634 134.139 163.8 142.749 173.788C143.112 174.242 143.384 174.696 143.384 175.241C143.474 175.785 143.384 176.33 143.293 176.693C141.752 183.322 135.499 189.314 135.499 189.314C135.408 189.405 135.408 189.496 135.408 189.587C135.408 189.678 135.589 189.768 135.68 189.768C142.115 189.95 148.641 188.043 153.354 186.681C154.804 186.227 155.982 185.955 156.979 185.682C157.16 185.592 157.432 185.683 157.613 185.773C166.224 190.586 176.284 193.128 186.979 192.674C215.257 191.312 238.097 167.977 238.912 139.648C239.909 108.686 214.985 83.1712 184.079 83.262Z" fill="#FFDC19"/>
<path d="M146.465 176.149C146.556 175.695 146.647 175.241 146.556 174.696C146.465 174.151 146.193 173.606 145.831 173.243C137.039 163.346 132.508 151.815 132.961 137.65C133.867 108.686 158.701 85.3504 188.61 85.2596C195.136 85.2596 201.39 86.3492 207.19 88.256C200.121 84.9872 192.326 83.1713 183.988 83.1713C154.622 83.2621 130.332 106.87 129.426 136.197C128.973 150.544 134.048 163.709 142.659 173.697C143.021 174.151 143.293 174.605 143.293 175.15C143.384 175.695 143.293 176.24 143.202 176.603C141.662 183.231 135.408 189.224 135.408 189.224C135.317 189.314 135.317 189.405 135.317 189.496C135.317 189.587 135.499 189.678 135.589 189.678C136.405 189.678 137.13 189.678 137.946 189.678C138.489 189.859 145.106 181.96 146.465 176.149Z" fill="white"/>
<path d="M184.079 83.262C154.713 83.3528 130.423 106.96 129.517 136.288C129.063 150.634 134.139 163.8 142.749 173.788C143.112 174.242 143.384 174.696 143.384 175.241C143.474 175.785 143.384 176.33 143.293 176.693C141.752 183.322 135.499 189.314 135.499 189.314C135.408 189.405 135.408 189.496 135.408 189.587C135.408 189.678 135.589 189.768 135.68 189.768C142.115 189.95 148.641 188.043 153.354 186.681C154.804 186.227 155.982 185.955 156.979 185.682C157.16 185.592 157.432 185.683 157.613 185.773C166.224 190.586 176.284 193.128 186.979 192.674C215.257 191.312 238.097 167.977 238.912 139.648C239.909 108.686 214.985 83.1712 184.079 83.262Z" stroke="black" stroke-width="0.75" stroke-miterlimit="10" stroke-linecap="round" stroke-linejoin="round"/>
<path d="M67.704 61.1072C64.0786 64.1036 52.9305 72.5478 39.426 73.365C38.1571 73.5466 37.1602 74.5454 37.1602 75.8166V107.596C37.1602 114.678 40.0605 121.034 44.8641 124.666C49.2145 127.935 63.8973 137.65 67.8852 140.283C68.5197 140.647 69.3354 140.647 69.8792 140.283C73.8671 137.65 88.5499 127.935 92.9003 124.666C97.704 121.034 100.604 114.678 100.604 107.596V75.8166C100.604 74.5454 99.6073 73.5466 98.429 73.4558C84.9245 72.6386 73.6858 64.1944 70.1511 61.198C69.426 60.5625 68.429 60.5625 67.704 61.1072Z" fill="black"/>
<path d="M66.707 60.1993C63.0816 63.1956 51.9335 71.6399 38.429 72.4571C37.1601 72.5479 36.2538 73.5466 36.2538 74.8178V106.597C36.2538 113.679 39.1541 120.035 43.9577 123.667C48.3082 126.936 62.9909 136.651 66.9789 139.285C67.6133 139.648 68.429 139.648 68.9728 139.285C72.9607 136.651 87.6435 126.936 91.994 123.667C96.7976 120.035 99.6979 113.679 99.6979 106.597V74.8178C99.6979 73.5466 98.7009 72.5479 97.5227 72.4571C84.0181 71.6399 72.7795 63.1956 69.2447 60.1993C68.429 59.5637 67.432 59.5637 66.707 60.1993Z" fill="white" stroke="black" stroke-width="0.75" stroke-miterlimit="10" stroke-linecap="round" stroke-linejoin="round"/>
<path d="M67.7945 68.8251C64.8942 71.2767 56.0121 77.905 45.2266 78.6314C44.2296 78.7221 43.5045 79.5393 43.5045 80.5381V105.871C43.5045 111.5 45.7704 116.585 49.6677 119.491C53.1118 122.033 64.8036 129.842 67.9758 131.93C68.429 132.293 69.0634 132.293 69.6072 131.93C72.7794 129.842 84.4713 122.124 87.9154 119.491C91.8127 116.585 94.0785 111.591 94.0785 105.871V80.4473C94.0785 79.4485 93.3535 78.6314 92.3565 78.5406C81.571 77.905 72.6888 71.1859 69.7885 68.7343C69.1541 68.2803 68.3384 68.2803 67.7945 68.8251Z" fill="black"/>
<path d="M66.9789 68.0079C64.0786 70.4595 55.1058 77.1785 44.3203 77.8141C43.3233 77.9049 42.5076 78.7221 42.5076 79.7209V105.144C42.5076 110.865 44.8641 115.949 48.6707 118.764C52.2055 121.307 63.8973 129.115 67.0695 131.204C67.5227 131.567 68.1571 131.567 68.7009 131.204C71.8731 129.115 83.6556 121.307 87.0997 118.764C90.997 115.859 93.2629 110.774 93.2629 105.144V79.7209C93.2629 78.7221 92.4471 77.9049 91.4502 77.8141C80.574 77.0877 71.6919 70.3687 68.7916 68.0079C68.3384 67.5539 67.5227 67.5539 66.9789 68.0079Z" fill="#FFDC19"/>
<path d="M67.7946 131.476C64.3505 129.206 52.8399 121.579 49.3958 119.037C45.5891 116.222 43.4139 111.228 43.4139 105.78V80.3565C43.4139 79.6301 44.0484 78.9037 44.7734 78.9037C55.5589 78.2681 64.4411 71.7306 67.7039 68.9159C67.8852 68.7343 68.1571 68.6435 68.429 68.6435C68.7009 68.6435 68.9728 68.7343 69.1541 68.9159C72.4169 71.6398 81.2991 78.1773 92.0846 78.9037C92.8097 78.9945 93.4441 79.6301 93.4441 80.3565V79.9025C93.4441 78.9037 92.6284 78.0865 91.6314 77.9957C80.7553 77.2693 71.8731 70.5502 68.9728 68.1895C68.429 67.7355 67.6133 67.7355 66.9789 68.1895C64.0786 70.641 55.1058 77.3601 44.3203 77.9957C43.3233 78.0865 42.5076 78.9037 42.5076 79.9025V105.326C42.5076 111.046 44.8641 116.131 48.6707 118.946C52.2055 121.488 63.8973 129.297 67.0695 131.385C67.432 131.567 67.7946 131.657 68.1571 131.567C68.0665 131.567 67.8852 131.476 67.7946 131.476Z" fill="white"/>
<path d="M66.9789 68.0079C64.0786 70.4595 55.1058 77.1785 44.3203 77.8141C43.3233 77.9049 42.5076 78.7221 42.5076 79.7209V105.144C42.5076 110.865 44.8641 115.949 48.6707 118.764C52.2055 121.307 63.8973 129.115 67.0695 131.204C67.5227 131.567 68.1571 131.567 68.7009 131.204C71.8731 129.115 83.6556 121.307 87.0997 118.764C90.997 115.859 93.2629 110.774 93.2629 105.144V79.7209C93.2629 78.7221 92.4471 77.9049 91.4502 77.8141C80.574 77.0877 71.6919 70.3687 68.7916 68.0079C68.3384 67.5539 67.5227 67.5539 66.9789 68.0079Z" stroke="black" stroke-width="0.75" stroke-miterlimit="10" stroke-linecap="round" stroke-linejoin="round"/>
<path d="M70.5535 114.486C78.7564 113.159 84.3325 105.421 83.008 97.2036C81.6835 88.9858 73.96 83.3996 65.757 84.7265C57.5541 86.0534 51.978 93.7909 53.3025 102.009C54.627 110.226 62.3505 115.813 70.5535 114.486Z" fill="white"/>
<path d="M73.3233 108.686L88.8218 90.2535C89.4562 89.4363 89.5468 88.3467 88.9124 87.5296C88.1873 86.5308 86.6465 86.3492 85.7402 87.1664L70.8761 99.8781C70.6042 100.151 70.1511 100.151 69.8792 99.8781L62.6284 95.3382C61.5408 94.7026 60.1813 94.7934 59.2749 95.7014C58.278 96.7002 58.1873 98.3346 59.1843 99.3333L67.5227 108.776C69.1541 110.502 71.8731 110.502 73.3233 108.686Z" fill="black"/>
<path d="M71.9638 107.233L87.4623 88.8008C88.0967 87.9836 88.1873 86.894 87.5529 86.0768C86.8278 85.078 85.287 84.8964 84.3807 85.7136L69.5166 98.3346C69.2447 98.607 68.7916 98.607 68.5197 98.3346L61.2689 93.7947C60.1813 93.1591 58.8218 93.2499 57.9154 94.1578C56.9185 95.1566 56.8278 96.791 57.8248 97.7898L66.1632 107.233C67.704 109.049 70.423 109.049 71.9638 107.233Z" fill="#FFDC19"/>
<path d="M58.0967 95.7014C59.003 94.7934 60.3626 94.7026 61.4502 95.3382L68.7009 99.8781C68.9728 100.151 69.426 100.151 69.6979 99.8781L84.4713 87.1664C85.4683 86.3492 86.9184 86.5308 87.6435 87.5296C87.7341 87.6204 87.8248 87.802 87.9154 87.8928C88.0967 87.2572 87.9154 86.6216 87.5529 86.0768C86.8278 85.078 85.287 84.8964 84.3807 85.7136L69.5166 98.3346C69.2447 98.607 68.7915 98.607 68.5196 98.3346L61.2689 93.7947C60.1813 93.1591 58.8218 93.2499 57.9154 94.1578C57.1903 94.8842 56.9184 96.0646 57.281 97.0634C57.4622 96.5186 57.6435 96.0646 58.0967 95.7014Z" fill="white"/>
<path d="M71.9638 107.233L87.4623 88.8008C88.0967 87.9836 88.1873 86.894 87.5529 86.0768C86.8278 85.078 85.287 84.8964 84.3807 85.7136L69.5166 98.3346C69.2447 98.607 68.7916 98.607 68.5197 98.3346L61.2689 93.7947C60.1813 93.1591 58.8218 93.2499 57.9154 94.1578C56.9185 95.1566 56.8278 96.791 57.8248 97.7898L66.1632 107.233C67.704 109.049 70.423 109.049 71.9638 107.233Z" stroke="black" stroke-width="0.75" stroke-miterlimit="10" stroke-linecap="round" stroke-linejoin="round"/>
<path d="M77.7643 84.8964C75.0453 83.0804 71.6918 81.9908 68.1571 81.9908C58.4592 81.9908 50.574 89.8903 50.574 99.6057C50.574 109.321 58.4592 117.221 68.1571 117.221C77.8549 117.221 85.7401 109.321 85.7401 99.6057C85.7401 99.0609 85.7401 98.6069 85.6495 98.0621" stroke="black" stroke-width="0.75" stroke-miterlimit="10" stroke-linecap="round" stroke-linejoin="round"/>
<path d="M201.934 160.713H166.042C163.686 160.713 161.782 158.806 161.782 156.445C161.782 154.085 163.686 152.178 166.042 152.178H201.934C204.29 152.178 206.193 154.085 206.193 156.445C206.193 158.715 204.29 160.713 201.934 160.713Z" fill="white"/>
<path d="M201.934 148.183H166.042C163.686 148.183 161.782 146.276 161.782 143.915C161.782 141.555 163.686 139.648 166.042 139.648H201.934C204.29 139.648 206.193 141.555 206.193 143.915C206.193 146.276 204.29 148.183 201.934 148.183Z" fill="white"/>
<path d="M183.988 136.47C175.015 136.47 167.674 129.115 167.674 120.126C167.674 111.137 175.015 103.782 183.988 103.782C192.961 103.782 200.302 111.137 200.302 120.126C200.302 129.115 192.961 136.47 183.988 136.47Z" fill="white"/>
<path d="M194.23 174.151H175.468C173.112 174.151 171.208 172.244 171.208 169.884C171.208 167.523 173.112 165.616 175.468 165.616H194.23C196.586 165.616 198.489 167.523 198.489 169.884C198.58 172.154 196.586 174.151 194.23 174.151Z" fill="white"/>
<path d="M202.84 161.621H166.949C164.592 161.621 162.689 159.714 162.689 157.353C162.689 154.993 164.592 153.086 166.949 153.086H202.84C205.196 153.086 207.1 154.993 207.1 157.353C207.1 159.623 205.196 161.621 202.84 161.621Z" fill="black"/>
<path d="M202.84 149.091H166.949C164.592 149.091 162.689 147.184 162.689 144.823C162.689 142.463 164.592 140.556 166.949 140.556H202.84C205.196 140.556 207.1 142.463 207.1 144.823C207.1 147.184 205.196 149.091 202.84 149.091Z" fill="black"/>
<path d="M168.218 144.732H194.32" stroke="white" stroke-width="0.75" stroke-miterlimit="10" stroke-linecap="round"/>
<path d="M168.852 157.263C168.852 157.717 168.489 158.08 168.036 158.08C167.583 158.08 167.221 157.717 167.221 157.263C167.221 156.809 167.583 156.445 168.036 156.445C168.489 156.445 168.852 156.809 168.852 157.263Z" fill="white"/>
<path d="M172.659 157.263C172.659 157.717 172.296 158.08 171.843 158.08C171.39 158.08 171.027 157.717 171.027 157.263C171.027 156.809 171.39 156.445 171.843 156.445C172.296 156.445 172.659 156.809 172.659 157.263Z" fill="white"/>
<path d="M176.465 157.263C176.465 157.717 176.103 158.08 175.65 158.08C175.196 158.08 174.834 157.717 174.834 157.263C174.834 156.809 175.196 156.445 175.65 156.445C176.103 156.445 176.465 156.809 176.465 157.263Z" fill="white"/>
<path d="M180.272 157.263C180.272 157.717 179.909 158.08 179.456 158.08C179.003 158.08 178.641 157.717 178.641 157.263C178.641 156.809 179.003 156.445 179.456 156.445C179.909 156.445 180.272 156.809 180.272 157.263Z" fill="white"/>
<path d="M184.079 157.263C184.079 157.717 183.716 158.08 183.263 158.08C182.81 158.08 182.447 157.717 182.447 157.263C182.447 156.809 182.81 156.445 183.263 156.445C183.716 156.445 184.079 156.809 184.079 157.263Z" fill="white"/>
<path d="M187.795 157.263C187.795 157.717 187.432 158.08 186.979 158.08C186.526 158.08 186.163 157.717 186.163 157.263C186.163 156.809 186.526 156.445 186.979 156.445C187.432 156.445 187.795 156.809 187.795 157.263Z" fill="white"/>
<path d="M184.894 137.378C175.921 137.378 168.58 130.023 168.58 121.034C168.58 112.045 175.921 104.69 184.894 104.69C193.867 104.69 201.208 112.045 201.208 121.034C201.208 130.023 193.867 137.378 184.894 137.378Z" fill="black"/>
<mask id="mask0_1_204" style="mask-type:luminance" maskUnits="userSpaceOnUse" x="169" y="105" width="32" height="32">
<path d="M184.894 136.288C176.465 136.288 169.668 129.478 169.668 121.034C169.668 112.59 176.465 105.78 184.894 105.78C193.323 105.78 200.121 112.59 200.121 121.034C200.121 129.388 193.233 136.288 184.894 136.288Z" fill="white"/>
</mask>
<g mask="url(#mask0_1_204)">
<path d="M184.894 124.757C188.61 124.757 191.601 121.761 191.601 118.038C191.601 114.315 188.61 111.319 184.894 111.319C181.178 111.319 178.187 114.315 178.187 118.038C178.097 121.761 181.178 124.757 184.894 124.757Z" fill="white"/>
<path d="M184.894 126.573C179.819 126.573 175.468 130.386 174.743 135.38C174.653 135.743 174.924 136.107 175.196 136.197C175.378 136.288 179.184 137.741 184.894 137.741C190.514 137.741 194.411 136.288 194.592 136.197C194.955 136.107 195.136 135.743 195.136 135.38C194.32 130.296 189.97 126.573 184.894 126.573Z" fill="white"/>
</g>
<path d="M179.275 170.701C179.275 171.246 178.912 171.881 177.825 171.881C177.281 171.881 176.647 171.7 176.465 171.155C176.465 171.064 176.465 170.973 176.556 170.973L176.828 170.882C176.918 170.882 177.009 170.882 177.009 170.973C177.1 171.155 177.372 171.427 177.825 171.427C178.278 171.427 178.641 171.246 178.641 170.792C178.641 170.247 178.187 170.247 177.553 170.065C176.737 169.884 176.556 169.43 176.556 168.885C176.556 168.158 177.1 167.704 177.915 167.704C178.459 167.704 178.912 167.977 179.094 168.431C179.094 168.522 179.094 168.612 179.003 168.612L178.731 168.703C178.64 168.703 178.55 168.703 178.55 168.612C178.459 168.431 178.187 168.249 177.734 168.249C177.462 168.249 177.19 168.522 177.19 168.885C177.19 169.43 177.644 169.52 178.187 169.611C178.912 169.793 179.275 170.065 179.275 170.701Z" fill="black"/>
<path d="M179.728 168.068C179.728 167.886 179.909 167.795 180 167.795C180.181 167.795 180.272 167.886 180.272 168.068C180.272 168.249 180.181 168.34 180 168.34C179.909 168.431 179.728 168.249 179.728 168.068ZM179.819 171.7V169.066C179.819 168.976 179.909 168.885 180 168.885H180.181C180.272 168.885 180.363 168.976 180.363 169.066V171.7C180.363 171.79 180.272 171.881 180.181 171.881H180C179.819 171.881 179.819 171.79 179.819 171.7Z" fill="black"/>
<path d="M183.535 168.885H183.716C183.807 168.885 183.897 168.976 183.897 169.066V171.518C183.897 172.335 183.444 172.971 182.447 172.971C181.994 172.971 181.541 172.789 181.269 172.517C181.178 172.426 181.178 172.335 181.269 172.244L181.45 172.154C181.541 172.154 181.631 172.154 181.631 172.154C181.813 172.335 181.994 172.426 182.447 172.426C183.172 172.426 183.444 171.972 183.444 171.427V171.246C183.263 171.518 182.9 171.79 182.447 171.79C181.631 171.79 180.997 171.064 180.997 170.338C180.997 169.611 181.631 168.885 182.447 168.885C182.9 168.885 183.263 169.066 183.444 169.339V169.066C183.354 168.976 183.444 168.885 183.535 168.885ZM183.354 170.338C183.354 169.793 182.991 169.43 182.447 169.339C181.903 169.339 181.45 169.793 181.45 170.338C181.45 170.882 181.903 171.336 182.447 171.336C182.991 171.246 183.354 170.882 183.354 170.338Z" fill="black"/>
<path d="M187.16 169.974V171.609C187.16 171.7 187.069 171.79 186.979 171.79H186.798C186.707 171.79 186.616 171.7 186.616 171.609V170.065C186.616 169.611 186.435 169.248 185.891 169.248C185.347 169.248 185.076 169.702 185.076 170.065V171.609C185.076 171.7 184.985 171.79 184.894 171.79H184.713C184.622 171.79 184.532 171.7 184.532 171.609V168.976C184.532 168.885 184.622 168.794 184.713 168.794H184.894C184.985 168.794 185.076 168.885 185.076 168.976V169.248C185.257 168.976 185.529 168.794 185.982 168.794C186.707 168.885 187.16 169.43 187.16 169.974Z" fill="black"/>
<path d="M189.426 168.068C189.426 167.886 189.607 167.795 189.698 167.795C189.879 167.795 189.97 167.886 189.97 168.068C189.97 168.249 189.879 168.34 189.698 168.34C189.607 168.431 189.426 168.249 189.426 168.068ZM189.517 171.7V169.066C189.517 168.976 189.607 168.885 189.698 168.885H189.879C189.97 168.885 190.06 168.976 190.06 169.066V171.7C190.06 171.79 189.97 171.881 189.879 171.881H189.698C189.517 171.881 189.517 171.79 189.517 171.7Z" fill="black"/>
<path d="M193.323 169.974V171.609C193.323 171.7 193.233 171.79 193.142 171.79H192.961C192.87 171.79 192.779 171.7 192.779 171.609V170.065C192.779 169.611 192.598 169.248 192.054 169.248C191.511 169.248 191.239 169.702 191.239 170.065V171.609C191.239 171.7 191.148 171.79 191.057 171.79H190.876C190.786 171.79 190.695 171.7 190.695 171.609V168.976C190.695 168.885 190.786 168.794 190.876 168.794H191.057C191.148 168.794 191.239 168.885 191.239 168.976V169.248C191.42 168.976 191.692 168.794 192.145 168.794C192.87 168.885 193.323 169.43 193.323 169.974Z" fill="black"/>
</g>
<defs>
<clipPath id="clip0_1_204">
<rect width="330" height="298" fill="white"/>
</clipPath>
</defs>
</svg>
