<svg width="22" height="22" viewBox="0 0 22 22" fill="none" xmlns="http://www.w3.org/2000/svg">
<g clip-path="url(#clip0_1_1098)">
<path d="M17.5165 4.56357L11.6773 1.96848C11.2461 1.77662 10.7539 1.77662 10.3226 1.96848L4.48348 4.56357C3.88038 4.8305 3.49249 5.42777 3.49249 6.08843V10.1658C3.49249 16.6974 8.86369 19.7471 11 20.1758C13.1363 19.7471 18.5075 16.6974 18.5075 10.1658V6.08843C18.5075 5.4286 18.1196 4.8305 17.5165 4.56357ZM11 5.995C12.3797 5.995 13.5025 7.11779 13.5025 8.4975C13.5025 9.87721 12.3797 11 11 11C9.62028 11 8.49749 9.87721 8.49749 8.4975C8.49749 7.11779 9.62028 5.995 11 5.995ZM15.4978 14.8463C14.1665 16.9309 12.162 18.0963 11 18.4549C9.83883 18.0971 7.8335 16.9318 6.503 14.8472C6.24024 14.4359 6.35952 13.8704 6.79496 13.6501C8.12212 12.977 9.93893 12.6683 11 12.6683C12.0611 12.6683 13.877 12.977 15.205 13.6493C15.6405 13.8695 15.7597 14.4351 15.4978 14.8463Z" fill="#FEDD2D"/>
</g>
<defs>
<clipPath id="clip0_1_1098">
<rect width="22" height="22" fill="white"/>
</clipPath>
</defs>
</svg>
