<svg width="24" height="24" viewBox="0 0 24 24" fill="none" xmlns="http://www.w3.org/2000/svg">
<path d="M20.0949 11.4566C20.1443 11.0529 20.0195 10.6473 19.7517 10.3412C19.4806 10.0326 19.0899 9.8555 18.6792 9.85498H3.32096C2.91022 9.8555 2.51954 10.0326 2.24846 10.3412C1.98065 10.6473 1.85584 11.0529 1.90526 11.4566L2.97776 20.0366C3.06502 20.7587 3.68042 21.3002 4.40776 21.295H17.621C18.3483 21.3002 18.9637 20.7587 19.051 20.0366L20.0949 11.4566Z" stroke="black" stroke-opacity="0.64" stroke-linecap="round" stroke-linejoin="round"/>
<path d="M4.56506 9.85496V9.13996C4.56506 5.586 7.44611 2.70496 11.0001 2.70496C14.554 2.70496 17.4351 5.586 17.4351 9.13996V9.85496" stroke="black" stroke-opacity="0.64" stroke-linecap="round" stroke-linejoin="round"/>
<path d="M8.14001 14.1449V17.0049" stroke="black" stroke-opacity="0.64" stroke-linecap="round" stroke-linejoin="round"/>
<path d="M13.8601 14.1449V17.0049" stroke="black" stroke-opacity="0.64" stroke-linecap="round" stroke-linejoin="round"/>
</svg>
