<svg width="20" height="20" viewBox="0 0 20 20" fill="none" xmlns="http://www.w3.org/2000/svg">
<path d="M10 0C15.5013 0 20 4.4987 20 10C20 15.5013 15.5013 20 10 20C4.4987 20 0 15.5013 0 10C0 4.4987 4.4987 0 10 0ZM5.33203 10.9993C6.9987 13.418 9.4987 15.6673 9.66797 15.7487C9.74935 15.7487 9.83398 15.8333 10 15.8333C10.166 15.8333 10.2507 15.7487 10.4167 15.6673C10.5013 15.5827 13.0827 13.3333 14.7493 10.918C14.9154 10.7487 14.9154 10.5013 14.7493 10.2507C14.5833 10.166 14.4173 10 14.1667 10H11.9987C11.9987 10 11.7513 4.91537 11.582 4.66797C11.3346 4.41732 10.6673 4.16667 10 4.16667C9.41732 4.16667 8.75 4.41732 8.49935 4.66797C8.33333 4.91537 8.0013 10 8.0013 10H5.83333C5.58268 10 5.41667 10.0846 5.33203 10.332C5.16602 10.5013 5.16602 10.7487 5.33203 10.9993Z" fill="#6ABE7E"/>
</svg>
