<svg width="36" height="37" viewBox="0 0 36 37" fill="none" xmlns="http://www.w3.org/2000/svg">
<g clip-path="url(#clip0_1_190)">
<path d="M14.7515 3.485L14.5711 4.42344L13.8853 7.85234C12.7844 8.28547 11.7918 8.89455 10.8895 9.62094L7.53277 8.46594L6.63043 8.17719L6.16121 9.00734L3.85121 12.9777L3.38199 13.8078L4.06777 14.4214L6.66652 16.6953C6.57177 17.2863 6.44996 17.8774 6.44996 18.5C6.44996 19.1226 6.57177 19.7137 6.66652 20.3047L4.06777 22.5786L3.38199 23.1922L3.85121 24.0223L6.16121 27.9927L6.63043 28.8228L7.53277 28.5341L10.8895 27.3791C11.7918 28.1054 12.7844 28.7145 13.8853 29.1477L14.5711 32.5766L14.7515 33.515H21.2484L21.4289 32.5766L22.1146 29.1477C23.2155 28.7145 24.2081 28.1054 25.1104 27.3791L28.4671 28.5341L29.3695 28.8228L29.8387 27.9927L32.1487 24.0223L32.6179 23.1922L31.9321 22.5786L29.3334 20.3047C29.4281 19.7137 29.55 19.1226 29.55 18.5C29.55 17.8774 29.4281 17.2863 29.3334 16.6953L31.9321 14.4214L32.6179 13.8078L32.1487 12.9777L29.8387 9.00734L29.3695 8.17719L28.4671 8.46594L25.1104 9.62094C24.2081 8.89455 23.2155 8.28547 22.1146 7.85234L21.4289 4.42344L21.2484 3.485H14.7515ZM16.6284 5.795H19.3715L19.949 8.79078L20.0934 9.47656L20.7431 9.69313C22.056 10.1037 23.2471 10.7985 24.2442 11.7144L24.7495 12.1836L25.3992 11.967L28.3228 10.9564L29.6943 13.3025L27.3843 15.3598L26.8429 15.793L27.0234 16.4788C27.1723 17.1375 27.24 17.8097 27.24 18.5C27.24 19.1903 27.1723 19.8625 27.0234 20.5212L26.879 21.207L27.3843 21.6402L29.6943 23.6975L28.3228 26.0436L25.3992 25.033L24.7495 24.8164L24.2442 25.2856C23.2471 26.2015 22.056 26.8963 20.7431 27.3069L20.0934 27.5234L19.949 28.2092L19.3715 31.205H16.6284L16.0509 28.2092L15.9065 27.5234L15.2568 27.3069C13.9439 26.8963 12.7528 26.2015 11.7557 25.2856L11.2504 24.8164L10.6007 25.033L7.67715 26.0436L6.30558 23.6975L8.61558 21.6402L9.15699 21.207L8.97652 20.5212C8.82763 19.8625 8.75996 19.1903 8.75996 18.5C8.75996 17.8097 8.82763 17.1375 8.97652 16.4788L9.15699 15.793L8.61558 15.3598L6.30558 13.3025L7.67715 10.9564L10.6007 11.967L11.2504 12.1836L11.7557 11.7144C12.7528 10.7985 13.9439 10.1037 15.2568 9.69313L15.9065 9.47656L16.0509 8.79078L16.6284 5.795ZM18 12.725C14.8237 12.725 12.225 15.3238 12.225 18.5C12.225 21.6763 14.8237 24.275 18 24.275C21.1762 24.275 23.775 21.6763 23.775 18.5C23.775 15.3238 21.1762 12.725 18 12.725ZM18 15.035C19.9265 15.035 21.465 16.5735 21.465 18.5C21.465 20.4265 19.9265 21.965 18 21.965C16.0735 21.965 14.535 20.4265 14.535 18.5C14.535 16.5735 16.0735 15.035 18 15.035Z" fill="#AEAEAE"/>
</g>
<defs>
<clipPath id="clip0_1_190">
<rect width="36" height="36" fill="white" transform="translate(-3.05176e-05 0.5)"/>
</clipPath>
</defs>
</svg>
