<svg width="24" height="24" viewBox="0 0 24 24" fill="none" xmlns="http://www.w3.org/2000/svg">
<path d="M15.32 20H6.68C5.704 20 4.76798 19.613 4.07785 18.9242C3.38771 18.2354 3 17.3011 3 16.327C3.00023 15.4199 3.33676 14.545 3.94476 13.8707L9.54476 7.65781H12.4552L18.0552 13.8707C18.6632 14.545 18.9998 15.4199 19 16.327C19 17.3011 18.6123 18.2354 17.9222 18.9242C17.232 19.613 16.296 20 15.32 20Z" stroke="#020202" stroke-opacity="0.64" stroke-miterlimit="10" stroke-linecap="square"/>
<path d="M13.9105 4.03042L13.6133 5.55133C13.4871 6.14897 13.1582 6.68485 12.6821 7.06859C12.2061 7.45233 11.6119 7.66043 11 7.6578C10.3838 7.65901 9.78632 7.44658 9.30965 7.05682C8.83299 6.66706 8.50674 6.12416 8.38668 5.52091L8.08954 4L13.9105 4.03042Z" stroke="#020202" stroke-opacity="0.64" stroke-miterlimit="10" stroke-linecap="square"/>
<path d="M16.0895 5.48288L13.179 6.93535" stroke="#020202" stroke-opacity="0.64" stroke-miterlimit="10" stroke-linecap="square"/>
<path d="M16.821 7.65781H12.4553" stroke="#020202" stroke-opacity="0.64" stroke-miterlimit="10" stroke-linecap="square"/>
<path d="M9.54482 16.3726H11.3658C11.6547 16.3726 11.9319 16.258 12.1362 16.0541C12.3405 15.8502 12.4553 15.5736 12.4553 15.2852C12.4563 15.1417 12.4289 14.9995 12.3746 14.8667C12.3203 14.7339 12.2402 14.6131 12.1389 14.5113C12.0376 14.4095 11.9172 14.3287 11.7845 14.2736C11.6518 14.2185 11.5095 14.1901 11.3658 14.1901H10.6039C10.3149 14.1901 10.0378 14.0755 9.83346 13.8716C9.62913 13.6677 9.51434 13.3911 9.51434 13.1026C9.51429 12.9572 9.54344 12.8133 9.60009 12.6794C9.65674 12.5454 9.73973 12.4241 9.84416 12.3227C9.94858 12.2214 10.0723 12.1419 10.208 12.0891C10.3438 12.0363 10.4887 12.0111 10.6343 12.0152H12.4553" stroke="#020202" stroke-opacity="0.64" stroke-miterlimit="10" stroke-linecap="square"/>
<path d="M11 11.2928V12.0152" stroke="#020202" stroke-opacity="0.64" stroke-miterlimit="10" stroke-linecap="square"/>
<path d="M11 16.3726V17.0951" stroke="#020202" stroke-opacity="0.64" stroke-miterlimit="10" stroke-linecap="square"/>
</svg>
