<svg width="24" height="24" viewBox="0 0 24 24" fill="none" xmlns="http://www.w3.org/2000/svg">
<g clip-path="url(#clip0_1_2899)">
<path d="M17.9941 1.91882C14.6837 1.91882 11.9999 4.60259 11.9999 7.91303C11.9999 11.2235 14.6837 13.9072 17.9941 13.9072C21.3046 13.9072 23.9883 11.2235 23.9883 7.91303C23.9883 4.60259 21.3046 1.91882 17.9941 1.91882ZM17.9941 3.55361C18.2955 3.55361 18.5391 3.79773 18.5391 4.09854V4.65198C19.3804 4.69448 19.9171 5.17478 20.0866 5.43744C20.2501 5.69029 20.1777 6.02804 19.9248 6.19097C19.6714 6.35282 19.3337 6.28204 19.1713 6.0292C19.1696 6.0292 18.9353 5.73332 18.4231 5.73332H17.5854C17.1348 5.73332 16.7681 6.10006 16.7681 6.55071C16.7681 7.00137 17.1348 7.3681 17.5854 7.3681H18.5391C19.5908 7.3681 20.4463 8.22364 20.4463 9.27535C20.4463 10.3271 19.5908 11.1826 18.5391 11.1826V11.7275C18.5391 12.0283 18.2955 12.2725 17.9941 12.2725C17.6928 12.2725 17.4492 12.0283 17.4492 11.7275V11.1805C16.7713 11.1756 16.1512 10.9276 15.7016 10.478C15.4885 10.265 15.4885 9.92159 15.7016 9.70853C15.9147 9.49546 16.2591 9.49546 16.4722 9.70853C16.6476 9.88345 16.9632 10.0927 17.4694 10.0927H18.5391C18.9897 10.0927 19.3565 9.72601 19.3565 9.27535C19.3565 8.8247 18.9897 8.45796 18.5391 8.45796H17.5854C16.5337 8.45796 15.6782 7.60242 15.6782 6.55071C15.6782 5.54586 16.4623 4.72868 17.4492 4.6573V4.09854C17.4492 3.79773 17.6928 3.55361 17.9941 3.55361ZM4.09848 5.73332C3.04677 5.73332 2.19123 6.58886 2.19123 7.64057V17.9942C2.19123 19.0459 3.04677 19.9014 4.09848 19.9014H19.9014C20.9531 19.9014 21.8086 19.0459 21.8086 17.9942V13.8764C21.3035 14.2001 20.7558 14.4632 20.1739 14.6512V17.9942C20.1739 18.1441 20.0512 18.2667 19.9014 18.2667H4.09848C3.94862 18.2667 3.82602 18.1441 3.82602 17.9942V7.64057C3.82602 7.49071 3.94862 7.3681 4.09848 7.3681H10.9378C10.9808 6.80192 11.0876 6.25427 11.256 5.73332H4.09848ZM0.828912 20.4464C0.534131 20.4422 0.25994 20.5971 0.111333 20.8517C-0.0372738 21.1063 -0.0372738 21.4212 0.111333 21.6758C0.25994 21.9305 0.534131 22.0853 0.828912 22.0812H23.171C23.4657 22.0853 23.7399 21.9305 23.8885 21.6758C24.0371 21.4212 24.0371 21.1063 23.8885 20.8517C23.7399 20.5971 23.4657 20.4422 23.171 20.4464H0.828912Z" fill="black" fill-opacity="0.64"/>
</g>
<defs>
<clipPath id="clip0_1_2899">
<rect width="24" height="24" fill="white"/>
</clipPath>
</defs>
</svg>
