<svg width="21" height="20" viewBox="0 0 21 20" fill="none" xmlns="http://www.w3.org/2000/svg">
<path d="M19.6036 8.72674C19.4798 8.16809 19.199 7.6564 18.7944 7.25183L17.185 5.64246H3.49L1.88063 7.25183C1.31699 7.81566 1.00024 8.58021 1 9.37746C1 10.0651 1.55741 10.6225 2.245 10.6225H8.47" stroke="black" stroke-opacity="0.64" stroke-linecap="round" stroke-linejoin="round"/>
<path d="M1.26978 8.13245H4.73503" stroke="black" stroke-opacity="0.64" stroke-linecap="round" stroke-linejoin="round"/>
<path d="M3.48999 5.64248L4.90099 1.87428C5.17436 1.14458 5.87224 0.661458 6.65146 0.662477H14.0235C14.8018 0.662497 15.4985 1.14543 15.7715 1.87428L17.1825 5.64248H3.48999Z" stroke="black" stroke-opacity="0.64" stroke-linecap="round" stroke-linejoin="round"/>
<path d="M2.245 10.6224V11.8674C2.245 12.555 2.8024 13.1124 3.49 13.1124C4.17759 13.1124 4.735 12.555 4.735 11.8674V10.6224H2.245Z" stroke="black" stroke-opacity="0.64" stroke-linecap="round" stroke-linejoin="round"/>
<path d="M9.71497 14.3574C9.71497 17.1078 11.9446 19.3374 14.695 19.3374C17.4453 19.3374 19.675 17.1078 19.675 14.3574C19.675 11.6071 17.4453 9.37744 14.695 9.37744C11.9446 9.37744 9.71497 11.6071 9.71497 14.3574Z" stroke="black" stroke-opacity="0.64" stroke-linecap="round" stroke-linejoin="round"/>
<path d="M16.9145 12.9099L14.5033 16.1245C14.3948 16.2687 14.2292 16.3588 14.0492 16.3717C13.8693 16.3846 13.6925 16.3189 13.5646 16.1917L12.3196 14.9467" stroke="black" stroke-opacity="0.64" stroke-linecap="round" stroke-linejoin="round"/>
</svg>
