<svg width="19" height="18" viewBox="0 0 19 18" fill="none" xmlns="http://www.w3.org/2000/svg">
<path d="M10.3698 0L10.0826 0.329114L7.01872 3.96203L6.44425 4.63291H8.83787V6.25316H1.94425V7.46835H0.795319V18H17.2634V16.7848H18.7953V6.25316H11.9017V4.63291H14.2953L13.7209 3.96203L10.657 0.329114L10.3698 0ZM10.3698 1.21519L12.5839 3.82278H11.1357V6.25316H9.60383V3.82278H8.15569L10.3698 1.21519ZM2.71021 7.06329H3.59585C3.51357 7.2231 3.45223 7.37658 3.40436 7.49367C3.3505 7.62342 3.29216 7.71361 3.30862 7.6962C3.32507 7.6788 3.24728 7.73418 3.1291 7.78481C3.0139 7.83386 2.86729 7.88766 2.71021 7.96203V7.06329ZM4.84053 7.06329H15.899C16.2371 7.06329 16.3224 7.18671 16.4496 7.41772C16.5124 7.53323 16.5708 7.6788 16.6291 7.82278C16.6874 7.96677 16.7338 8.11076 16.8804 8.26582C17.0255 8.4193 17.1811 8.47152 17.3232 8.53165C17.4654 8.59177 17.5985 8.6519 17.7182 8.70886C17.8379 8.76582 17.9381 8.82753 17.9815 8.87342C18.0249 8.9193 18.0294 8.93038 18.0294 8.98734V14.0506C18.0294 14.1076 18.0249 14.1187 17.9815 14.1646C17.9381 14.2104 17.8379 14.2722 17.7182 14.3291C17.5985 14.3861 17.4654 14.4462 17.3232 14.5063C17.1811 14.5665 17.0255 14.6187 16.8804 14.7722V14.7848C16.7413 14.9367 16.6859 15.0744 16.6291 15.2152C16.5708 15.3592 16.5124 15.5047 16.4496 15.6203C16.3224 15.8513 16.2371 15.9747 15.899 15.9747H4.84053C4.58621 15.9747 4.4785 15.9035 4.38574 15.7722C4.35433 15.7278 4.32142 15.6772 4.29 15.6203C4.22717 15.5047 4.16882 15.3576 4.11048 15.2152C4.05213 15.0728 4.00576 14.9272 3.85915 14.7722C3.71404 14.6187 3.55845 14.5665 3.41633 14.5063C3.27421 14.4462 3.14106 14.3861 3.02138 14.3291C2.9017 14.2722 2.80147 14.2104 2.75808 14.1646C2.7147 14.1187 2.71021 14.1076 2.71021 14.0506V8.98734C2.71021 8.93038 2.7147 8.9193 2.75808 8.87342C2.80147 8.82753 2.9017 8.76582 3.02138 8.70886C3.14106 8.6519 3.27421 8.59177 3.41633 8.53165C3.55845 8.47152 3.71404 8.4193 3.85915 8.26582C4.00576 8.11076 4.05213 7.96519 4.11048 7.82278C4.16882 7.68038 4.22717 7.53323 4.29 7.41772C4.41716 7.18671 4.50243 7.06329 4.84053 7.06329ZM17.1437 7.06329H18.0294V7.96203C17.8723 7.88766 17.7257 7.83386 17.6105 7.78481C17.4938 7.73418 17.4145 7.6788 17.431 7.6962C17.4474 7.71361 17.3891 7.62342 17.3352 7.49367C17.2873 7.37658 17.226 7.2231 17.1437 7.06329ZM10.3698 7.46835C8.44442 7.46835 6.92298 9.31171 6.92298 11.519C6.92298 13.7263 8.44442 15.5696 10.3698 15.5696C12.2952 15.5696 13.8166 13.7263 13.8166 11.519C13.8166 9.31171 12.2952 7.46835 10.3698 7.46835ZM1.56128 8.27848H1.94425V16.7848H16.4974V17.1899H1.56128V8.27848ZM10.3698 8.27848C11.8284 8.27848 13.0506 9.70095 13.0506 11.519C13.0506 13.337 11.8284 14.7595 10.3698 14.7595C8.91118 14.7595 7.68894 13.337 7.68894 11.519C7.68894 9.70095 8.91118 8.27848 10.3698 8.27848ZM4.8166 10.3038C4.29299 10.3038 3.85915 10.7627 3.85915 11.3165C3.85915 11.8703 4.29299 12.3291 4.8166 12.3291C5.3402 12.3291 5.77404 11.8703 5.77404 11.3165C5.77404 10.7627 5.3402 10.3038 4.8166 10.3038ZM15.923 10.3038C15.3994 10.3038 14.9655 10.7627 14.9655 11.3165C14.9655 11.8703 15.3994 12.3291 15.923 12.3291C16.4466 12.3291 16.8804 11.8703 16.8804 11.3165C16.8804 10.7627 16.4466 10.3038 15.923 10.3038ZM4.8166 11.1139C4.9273 11.1139 5.00808 11.1994 5.00808 11.3165C5.00808 11.4335 4.9273 11.519 4.8166 11.519C4.70589 11.519 4.62511 11.4335 4.62511 11.3165C4.62511 11.1994 4.70589 11.1139 4.8166 11.1139ZM15.923 11.1139C16.0337 11.1139 16.1145 11.1994 16.1145 11.3165C16.1145 11.4335 16.0337 11.519 15.923 11.519C15.8123 11.519 15.7315 11.4335 15.7315 11.3165C15.7315 11.1994 15.8123 11.1139 15.923 11.1139ZM2.71021 15.0759C2.86729 15.1503 3.0139 15.2041 3.1291 15.2532C3.24728 15.3038 3.32507 15.3592 3.30862 15.3418C3.29216 15.3244 3.3505 15.4146 3.40436 15.5443C3.45223 15.6614 3.51357 15.8149 3.59585 15.9747H2.71021V15.0759ZM18.0294 15.0759V15.9747H17.1437C17.1796 15.9051 17.211 15.837 17.2395 15.7722C17.2739 15.6915 17.3083 15.6092 17.3352 15.5443C17.3891 15.4146 17.4474 15.3244 17.431 15.3418C17.4145 15.3592 17.4938 15.3038 17.6105 15.2532C17.7257 15.2041 17.8723 15.1503 18.0294 15.0759Z" fill="black"/>
</svg>
