<svg width="21" height="20" viewBox="0 0 21 20" fill="none" xmlns="http://www.w3.org/2000/svg">
<path d="M6.545 -0.0100098C2.93062 -0.0100098 0 2.92061 0 6.53499C0 9.7636 2.33945 12.4395 5.41406 12.9762C5.48259 11.8343 5.78524 10.7565 6.27881 9.79095C4.98906 9.51144 4.18761 8.76301 3.89963 7.60878H3.13715V6.84179H3.78834C3.7791 6.74323 3.7733 6.64356 3.7733 6.53499C3.7733 6.44952 3.7777 6.36318 3.78232 6.28233H3.13715V5.51985H3.8876C4.23949 4.00372 5.45262 3.1512 7.49697 3.1512C7.835 3.1512 8.17865 3.18764 8.38578 3.23692V4.56337C8.15093 4.52256 7.88496 4.50472 7.53307 4.50472C6.61292 4.50472 5.95846 4.8615 5.63814 5.51985H8.03387V6.28233H5.43512C5.42588 6.36318 5.42008 6.44963 5.42008 6.53048C5.42008 6.63905 5.42504 6.74246 5.43813 6.84179H8.03236V7.49749C9.35676 6.28936 11.0797 5.51878 12.9847 5.40405C12.4488 2.33021 9.77361 -0.0100098 6.545 -0.0100098ZM16.94 -0.0100098L14.63 2.29999L16.94 4.60999V3.06999H19.25V1.52999H16.94V-0.0100098ZM13.475 6.91999C9.86062 6.91999 6.93 9.85061 6.93 13.465C6.93 17.0794 9.86062 20.01 13.475 20.01C17.0894 20.01 20.02 17.0794 20.02 13.465C20.02 9.85061 17.0894 6.91999 13.475 6.91999ZM5.67273 7.60878C5.93761 8.12391 6.42967 8.43145 7.0834 8.52616C7.33596 8.19968 7.61179 7.89291 7.91055 7.60878H5.67273ZM13.09 9.22999H13.86V10.0271C15.1836 10.158 16.0762 10.9402 16.1008 12.0498H14.5563C14.5201 11.5847 14.0783 11.2618 13.49 11.2618C12.9018 11.2618 12.5155 11.5403 12.5155 11.9776C12.5155 12.3372 12.8068 12.5467 13.4991 12.683L14.3473 12.8469C15.6455 13.0979 16.2287 13.6864 16.2287 14.7298C16.2287 15.9895 15.3384 16.782 13.86 16.9044V17.7H13.09V16.9074C11.6463 16.7966 10.7468 16.049 10.7213 14.8802H12.3155C12.3563 15.3583 12.8354 15.6637 13.5276 15.6637C14.1521 15.6637 14.5804 15.3625 14.5804 14.9298C14.5804 14.5656 14.2927 14.3686 13.5412 14.2184L12.6764 14.0455C11.4737 13.8176 10.8537 13.1621 10.8537 12.128C10.8537 10.9499 11.7248 10.1518 13.09 10.0256V9.22999ZM3.08 14.62V16.16H0.77V17.7H3.08V19.24L5.39 16.93L3.08 14.62Z" fill="black"/>
</svg>
