<svg width="22" height="22" viewBox="0 0 22 22" fill="none" xmlns="http://www.w3.org/2000/svg">
<g clip-path="url(#clip0_1_1075)">
<path d="M10.8443 1.83871C10.5836 1.82807 10.3199 1.83221 10.0529 1.84945C6.15525 2.10245 3.20835 5.51141 3.20835 9.41733V10.0833V10.9105C2.68245 11.412 2.29169 12.0571 2.29169 12.8333C2.29169 13.9718 3.07778 14.816 4.0731 15.2288C5.26571 18.0795 7.6544 20.1667 10.5417 20.1667H13.2917V18.3333H10.5417C8.47144 18.3333 6.59173 16.7746 5.64683 14.3122L5.45168 13.8073L4.91457 13.7321C4.46312 13.67 4.12502 13.3055 4.12502 12.8333C4.12502 12.4804 4.30323 12.2036 4.58156 12.0438L5.04169 11.7806V10.0833V9.16667H16.0417V11V14.6667H12.375V13.75H9.62502V16.5H11H12.375H16.9584H19.7084V11H17.875V9.16667C17.875 5.21785 14.754 1.9983 10.8443 1.83871Z" fill="#FEDD2D"/>
</g>
<defs>
<clipPath id="clip0_1_1075">
<rect width="22" height="22" fill="white"/>
</clipPath>
</defs>
</svg>
