<svg width="20" height="20" viewBox="0 0 20 20" fill="none" xmlns="http://www.w3.org/2000/svg">
<path d="M8.9023 9.57667H1.89917C1.56898 9.57667 1.25231 9.44553 1.01883 9.21206C0.785344 8.97858 0.654175 8.66185 0.654175 8.33167V1.89917C0.654175 1.56898 0.785344 1.25231 1.01883 1.01883C1.25231 0.785344 1.56898 0.654175 1.89917 0.654175H16.6317C16.9618 0.654175 17.2786 0.785344 17.5121 1.01883C17.7455 1.25231 17.8767 1.56898 17.8767 1.89917V8.33167C17.8767 8.66185 17.7455 8.97858 17.5121 9.21206C17.2786 9.44553 16.9618 9.57667 16.6317 9.57667" stroke="#FEDD2D" stroke-linecap="round" stroke-linejoin="round"/>
<path d="M10.6225 19.2596L8.32835 16.6783C7.85118 16.1541 7.90082 15.3092 8.42538 14.8428C8.95575 14.3713 9.79447 14.4254 10.2598 14.9611L11.8675 16.7696V10.1296C11.8675 9.45153 12.4344 8.88473 13.1125 8.88464C13.7906 8.88473 14.3575 9.45153 14.3575 10.1296V14.9021H15.6025C16.5931 14.9021 17.5431 15.2957 18.2435 15.9962C18.944 16.6966 19.3375 17.6466 19.3375 18.6371V19.2596" stroke="#FEDD2D" stroke-linecap="round" stroke-linejoin="round"/>
<path d="M5.6951 3.87765C5.56681 3.51469 5.16747 3.25464 4.76057 3.25464C4.26392 3.25464 3.82605 3.65726 3.82605 4.15393C3.82605 4.54078 4.08934 4.878 4.46465 4.97183L4.99264 5.10383C5.40548 5.20704 5.6951 5.57797 5.6951 6.00352V6.05821C5.6951 6.57434 5.2767 6.99274 4.76058 6.99274C4.35368 6.99274 3.95434 6.7327 3.82605 6.36973" stroke="#FEDD2D" stroke-linecap="round" stroke-linejoin="round"/>
<path d="M8.18512 3.25781V6.05906C8.18512 6.57476 8.60317 6.99281 9.11885 6.99281C9.63452 6.99281 10.0526 6.57476 10.0526 6.05906V3.25781" stroke="#FEDD2D" stroke-linecap="round" stroke-linejoin="round"/>
<path d="M12.5426 3.25781V4.96969H13.5542C14.0269 4.96969 14.4101 4.58647 14.4101 4.11375C14.4101 3.64103 14.0269 3.25781 13.5542 3.25781H12.5426Z" stroke="#FEDD2D" stroke-linecap="round" stroke-linejoin="round"/>
<path d="M12.5426 4.96973V6.99285H13.7098C14.2685 6.99285 14.7214 6.53996 14.7214 5.98129C14.7214 5.42262 14.2685 4.96973 13.7098 4.96973H12.5426Z" stroke="#FEDD2D" stroke-linecap="round" stroke-linejoin="round"/>
</svg>
