<svg width="37" height="37" viewBox="0 0 37 37" fill="none" xmlns="http://www.w3.org/2000/svg">
<g clip-path="url(#clip0_1_177)">
<path d="M18.04 5.5325C17.6753 5.53255 17.3259 5.67847 17.0695 5.93774L3.30223 17.9508C3.12786 18.0795 3.02496 18.2833 3.02496 18.5C3.02496 18.8769 3.33053 19.1825 3.70746 19.1825H7.11996V30.1025C7.11996 30.856 7.73148 31.4675 8.48496 31.4675H13.945C14.6984 31.4675 15.31 30.856 15.31 30.1025V21.9125H20.77V30.1025C20.77 30.856 21.3815 31.4675 22.135 31.4675H27.595C28.3484 31.4675 28.96 30.856 28.96 30.1025V19.1825H32.3725C32.7494 19.1825 33.055 18.8769 33.055 18.5C33.055 18.2833 32.9521 18.0795 32.7777 17.9508L19.0184 5.94573C19.0157 5.94306 19.0131 5.94039 19.0104 5.93774C18.754 5.67847 18.4046 5.53255 18.04 5.5325Z" fill="#FDDC2E"/>
</g>
<defs>
<clipPath id="clip0_1_177">
<rect width="36" height="36" fill="white" transform="translate(0.039978 0.5)"/>
</clipPath>
</defs>
</svg>
