<svg width="37" height="37" viewBox="0 0 37 37" fill="none" xmlns="http://www.w3.org/2000/svg">
<path d="M18.7875 33.9533C27.3219 33.9533 34.2404 27.0342 34.2404 18.5C34.2404 9.96579 27.3219 3.04671 18.7875 3.04671C10.2524 3.04671 3.33383 9.96579 3.33383 18.5C3.33383 27.0342 10.2524 33.9533 18.7875 33.9533Z" stroke="#AEAEAE"/>
<path d="M18.7875 24.0632C17.0798 24.0632 15.6965 25.724 15.6965 27.7724C15.6965 29.8208 17.0798 31.4808 18.7875 31.4808C20.4938 31.4808 21.8778 29.8208 21.8778 27.7724C21.8778 25.724 20.4938 24.0632 18.7875 24.0632Z" fill="#AEAEAE"/>
<path d="M19.7904 7.99176C17.8049 7.99176 14.2186 8.39465 12.1148 11.0286C10.959 12.4532 10.8407 13.6888 10.7514 14.7645H15.9544C16.2876 13.2438 17.1856 11.9963 19.5537 11.9963C20.2652 11.9963 22.5461 12.1036 22.5461 13.6888C22.5461 14.8448 21.3614 15.6506 19.0492 17.3175C17.2125 18.6341 16.6484 19.7631 16.6484 21.268V22.8269H21.4499V22.3161C21.4499 20.7039 22.1911 20.0587 24.295 18.6071C27.0515 16.6993 28.0591 15.49 28.0591 13.6085C28.0591 10.6527 25.0659 7.99176 19.7904 7.99176Z" fill="#AEAEAE"/>
</svg>
