<svg width="24" height="24" viewBox="0 0 24 24" fill="none" xmlns="http://www.w3.org/2000/svg">
<path d="M21.7005 6.1544C19.6289 5.83305 18.136 3.21602 16.3782 2.58394C16.1686 2.50863 15.0432 3.47742 14.8306 3.61851C11.7927 5.63424 8.50836 7.2248 5.45408 9.22451C4.77203 9.67103 1.33957 10.9964 1.09074 11.8013C1.04647 11.945 1.03808 12.1509 1.09074 12.1612C1.87578 12.3151 2.68603 12.9526 3.34964 13.3957C3.77442 13.6793 7.51562 16.5668 7.82321 16.3321C11.0853 13.8413 18.1169 9.00059 21.9482 6.52148" stroke="black" stroke-opacity="0.64" stroke-linecap="round" stroke-linejoin="round"/>
<path d="M22.5608 8.42316C17.8897 10.7122 11.5929 17.4929 7.87877 19.4951C7.71238 19.5847 6.4129 18.5058 6.1992 18.3906C4.86497 17.6711 3.6159 16.7077 2.46332 15.6908" stroke="black" stroke-opacity="0.64" stroke-linecap="round" stroke-linejoin="round"/>
<path d="M23 10.6387C21.8023 10.102 9.17209 22.1138 7.95113 21.5861C6.73026 21.0585 4.20599 19.0402 2.69928 17.8796" stroke="black" stroke-opacity="0.64" stroke-linecap="round" stroke-linejoin="round"/>
<path d="M10.9932 7.95649C13.8815 4.50582 16.2626 11.3751 11.3955 10.6595C10.3926 10.5122 9.83875 8.31907 10.6215 7.75609" stroke="black" stroke-opacity="0.64" stroke-linecap="round" stroke-linejoin="round"/>
<path d="M4.52533 11.4604C5.04437 12.1587 5.41716 11.6801 6.38235 10.9599" stroke="black" stroke-opacity="0.64" stroke-linecap="round" stroke-linejoin="round"/>
<path d="M17.9558 6.92198C18.4566 6.60297 18.0486 6.86718 18.0486 6.25482" stroke="black" stroke-opacity="0.64" stroke-linecap="round" stroke-linejoin="round"/>
</svg>
