<svg width="24" height="24" viewBox="0 0 24 24" fill="none" xmlns="http://www.w3.org/2000/svg">
<path d="M5.0375 2C4.87344 2 4.72188 2.09688 4.6625 2.25C4.22188 3.36875 4 4.55625 4 5.775C4 10.65 7.58906 14.6125 12 14.6125C16.4109 14.6125 20 10.6484 20 5.775C20 4.55625 19.7781 3.36875 19.3375 2.25C19.2766 2.09688 19.1266 2 18.9625 2H5.0375ZM5.3125 2.8H18.6875C19.0281 3.75 19.2 4.75 19.2 5.775C19.2 5.99688 19.1906 6.20781 19.175 6.425H4.825C4.80938 6.20781 4.8 5.99688 4.8 5.775C4.8 4.75 4.97188 3.75 5.3125 2.8ZM10.7375 15.3125C10.775 15.4219 10.8 15.5391 10.8 15.6625V18.65C10.8 19.1781 9.38281 19.7781 8.5375 20.1375C7.54531 20.5609 6.89688 20.8438 6.825 21.3375C6.80781 21.4625 6.81563 21.7 7.075 21.9125C7.14688 21.9719 7.23281 22 7.325 22H16.675C16.7656 22 16.8547 21.9688 16.925 21.9125C17.1859 21.7047 17.1922 21.4609 17.175 21.3375C17.1094 20.8484 16.4969 20.5875 15.475 20.15C14.625 19.7859 13.2 19.1812 13.2 18.65V15.6625C13.2 15.5391 13.225 15.4203 13.2625 15.3125C12.8516 15.3766 12.4281 15.4125 12 15.4125C11.5719 15.4125 11.15 15.3766 10.7375 15.3125Z" fill="black" fill-opacity="0.64"/>
</svg>
