<svg width="16" height="16" viewBox="0 0 16 16" fill="none" xmlns="http://www.w3.org/2000/svg">
<path d="M10.2414 9.24136H9.75055V12.2189H10.2414V9.24136Z" fill="black" fill-opacity="0.64"/>
<path d="M10.5031 14.5093H10.0123V15.0001H10.5031V14.5093Z" fill="black" fill-opacity="0.64"/>
<path d="M0 0.0143433V9.01231H3.27197V8.5215H0.490813V0.505156H15.5092V8.5215H7.03475V9.01231H16V0.0143433H0Z" fill="black" fill-opacity="0.64"/>
<path d="M6.02035 7.998H15.0183V0.995941H0.981506V7.99797H3.27188V7.50716H1.47232V1.48675H6.24766C5.99122 1.63866 5.7561 1.81357 5.54738 2.01028H2.7811V2.25569C2.7811 2.49875 2.71001 2.73013 2.24123 2.73013H1.99582V6.23116H2.24123C2.60016 6.23116 2.7811 6.38954 2.7811 6.73832V6.98372H3.52597V10.8012L4.27735 12.0534V12.4914H3.52597V15.9877H11.5304V12.4914H4.76813V11.9175L4.01676 10.6653V6.75463H4.74429V5.21679H4.25347V6.26382H4.01676V4.23622C4.73185 4.35372 5.27913 4.97616 5.27913 5.72404V8.72441H5.77497C6.19207 8.72441 6.53138 9.06376 6.53138 9.48082V10.4826H7.02219V9.48082C7.02219 8.79307 6.46269 8.2336 5.77497 8.2336H5.76994V7.17954C5.91332 7.30113 6.06497 7.41104 6.22444 7.50716H6.02038L6.02035 7.998ZM11.0395 12.9821V15.4968H4.01676V12.9821H11.0395ZM14.5275 1.48675V7.50719H9.82719C10.0716 7.36019 10.2965 7.18388 10.4974 6.98366H13.2841V6.73825C13.2841 6.40394 13.4522 6.2311 13.7586 6.2311H14.004V2.7301H13.7586C13.3327 2.7301 13.2841 2.4566 13.2841 2.25566V2.01025H10.4859C10.2826 1.8096 10.0552 1.63328 9.80801 1.48672L14.5275 1.48675ZM10.9081 6.49288C11.3001 5.92713 11.5304 5.24122 11.5304 4.50263C11.5304 3.75907 11.297 3.06897 10.9002 2.50107H12.8162C12.8908 2.87091 13.1403 3.118 13.5133 3.1916V5.75557C13.1473 5.83807 12.8913 6.10838 12.8158 6.49291H10.9081V6.49288ZM4.56229 3.88903C4.31957 3.784 4.05219 3.7255 3.77132 3.7255H3.52594V6.49288H3.24307C3.16622 6.09157 2.89466 5.825 2.4866 5.75044V3.19604C2.90272 3.12975 3.16685 2.88675 3.24272 2.50107H5.11632C4.82898 2.90144 4.63473 3.36591 4.56229 3.88903ZM5.76994 6.49432V6.0371C6.26697 6.75229 7.09404 7.22175 8.02907 7.22175C9.54538 7.22175 10.779 5.98816 10.779 4.47182C10.779 2.95547 9.54538 1.72188 8.02907 1.72188C6.53144 1.72188 5.31044 2.92547 5.28054 4.4161C5.20563 4.32982 5.12382 4.24975 5.03538 4.17735C5.19485 2.66066 6.47657 1.49028 8.02907 1.49028C8.92032 1.49028 9.72222 1.88082 10.2739 2.49929V2.5011H10.2755C10.7504 3.03438 11.0395 3.73666 11.0395 4.50454C11.0395 5.26616 10.7547 5.96216 10.2866 6.49291H10.2739V6.50713C9.76716 7.07454 9.04963 7.44988 8.24516 7.50722H7.81397C7.02313 7.45172 6.29504 7.09129 5.76994 6.49432ZM5.76994 4.47182C5.76994 3.22613 6.78341 2.21266 8.0291 2.21266C9.27479 2.21266 10.2882 3.22613 10.2882 4.47182C10.2882 5.7175 9.27476 6.73094 8.0291 6.73094C6.78341 6.73094 5.76994 5.71747 5.76994 4.47182Z" fill="black" fill-opacity="0.64"/>
<path d="M8.24926 4.09583C7.91542 3.97008 7.7777 3.8877 7.7777 3.75779C7.7777 3.64798 7.86039 3.53792 8.11573 3.53792C8.39845 3.53792 8.5792 3.62817 8.68145 3.67145L8.79542 3.22754C8.6658 3.1647 8.48895 3.10967 8.22554 3.09792V2.75208H7.84058V3.12532C7.42039 3.20798 7.1768 3.47898 7.1768 3.82458C7.1768 4.20586 7.46345 4.40226 7.88386 4.54367C8.17467 4.64198 8.30039 4.73617 8.30039 4.88532C8.30039 5.04261 8.14704 5.12895 7.92326 5.12895C7.66792 5.12895 7.43608 5.04654 7.27095 4.95604L7.15308 5.41586C7.30251 5.5022 7.55786 5.57289 7.82101 5.58464V5.95782H8.20598V5.5572C8.6577 5.4787 8.90523 5.18007 8.90523 4.83029C8.90523 4.47686 8.71667 4.26067 8.24926 4.09583Z" fill="black" fill-opacity="0.64"/>
<path d="M14.2987 1.74854H13.8079V2.23935H14.2987V1.74854Z" fill="black" fill-opacity="0.64"/>
<path d="M14.2987 6.75467H13.8079V7.24548H14.2987V6.75467Z" fill="black" fill-opacity="0.64"/>
<path d="M2.25766 1.74854H1.76685V2.23935H2.25766V1.74854Z" fill="black" fill-opacity="0.64"/>
<path d="M2.25766 6.75467H1.76685V7.24548H2.25766V6.75467Z" fill="black" fill-opacity="0.64"/>
</svg>
