<svg width="33" height="29" viewBox="0 0 33 29" fill="none" xmlns="http://www.w3.org/2000/svg">
<path d="M8.70711 0.292891C8.31658 -0.0976334 7.68342 -0.0976333 7.29289 0.292891L0.928931 6.65685C0.538407 7.04738 0.538407 7.68054 0.928931 8.07107C1.31946 8.46159 1.95262 8.46159 2.34314 8.07107L8 2.41421L13.6569 8.07107C14.0474 8.46159 14.6805 8.46159 15.0711 8.07107C15.4616 7.68054 15.4616 7.04738 15.0711 6.65685L8.70711 0.292891ZM9 28L9 0.999998L7 0.999998L7 28L9 28Z" fill="#AEAEAE"/>
<path d="M25.7071 28.7071C25.3166 29.0976 24.6834 29.0976 24.2929 28.7071L17.9289 22.3431C17.5384 21.9526 17.5384 21.3195 17.9289 20.9289C18.3195 20.5384 18.9526 20.5384 19.3431 20.9289L25 26.5858L30.6569 20.9289C31.0474 20.5384 31.6805 20.5384 32.0711 20.9289C32.4616 21.3195 32.4616 21.9526 32.0711 22.3431L25.7071 28.7071ZM26 1L26 28L24 28L24 1L26 1Z" fill="#AEAEAE"/>
</svg>
