<svg width="18" height="15" viewBox="0 0 18 15" fill="none" xmlns="http://www.w3.org/2000/svg">
<path d="M16.2 0.199951H1.8C0.8055 0.199951 0 1.00545 0 1.99995V12.8C0 13.7945 0.8055 14.6 1.8 14.6H16.2C17.1945 14.6 18 13.7945 18 12.8V1.99995C18 1.00545 17.1945 0.199951 16.2 0.199951ZM4.5 11.9H2.7V10.1H4.5V11.9ZM5.4 5.59995H2.7V2.89995H5.4V5.59995ZM8.1 11.9H6.3V10.1H8.1V11.9ZM11.7 11.9H9.9V10.1H11.7V11.9ZM15.3 11.9H13.5V10.1H15.3V11.9ZM15.3 5.59995H9.9V3.79995H15.3V5.59995Z" fill="black"/>
</svg>
