<svg width="19" height="18" viewBox="0 0 19 18" fill="none" xmlns="http://www.w3.org/2000/svg">
<path d="M10.3698 18L10.0826 17.6709L7.01872 14.038L6.44425 13.3671H8.83787V11.7468H1.94425V10.5316H0.795319V0H17.2634V1.21519H18.7953V11.7468H11.9017V13.3671H14.2953L13.7209 14.038L10.657 17.6709L10.3698 18ZM10.3698 16.7848L12.5839 14.1772H11.1357V11.7468H9.60383V14.1772H8.15569L10.3698 16.7848ZM2.71021 10.9367H3.59585C3.51357 10.7769 3.45223 10.6234 3.40436 10.5063C3.3505 10.3766 3.29216 10.2864 3.30862 10.3038C3.32507 10.3212 3.24728 10.2658 3.1291 10.2152C3.0139 10.1661 2.86729 10.1123 2.71021 10.038V10.9367ZM4.84053 10.9367H15.899C16.2371 10.9367 16.3224 10.8133 16.4496 10.5823C16.5124 10.4668 16.5708 10.3212 16.6291 10.1772C16.6874 10.0332 16.7338 9.88924 16.8804 9.73418C17.0255 9.5807 17.1811 9.52848 17.3232 9.46835C17.4654 9.40823 17.5985 9.3481 17.7182 9.29114C17.8379 9.23418 17.9381 9.17247 17.9815 9.12658C18.0249 9.0807 18.0294 9.06962 18.0294 9.01266V3.94937C18.0294 3.8924 18.0249 3.88133 17.9815 3.83544C17.9381 3.78956 17.8379 3.72785 17.7182 3.67089C17.5985 3.61392 17.4654 3.5538 17.3232 3.49367C17.1811 3.43354 17.0255 3.38133 16.8804 3.22785V3.21519C16.7413 3.06329 16.6859 2.92563 16.6291 2.78481C16.5708 2.64082 16.5124 2.49525 16.4496 2.37975C16.3224 2.14873 16.2371 2.02532 15.899 2.02532H4.84053C4.58621 2.02532 4.4785 2.09652 4.38574 2.22785C4.35433 2.27215 4.32142 2.32278 4.29 2.37975C4.22717 2.49525 4.16882 2.6424 4.11048 2.78481C4.05213 2.92721 4.00576 3.07278 3.85915 3.22785C3.71404 3.38133 3.55845 3.43354 3.41633 3.49367C3.27421 3.5538 3.14106 3.61392 3.02138 3.67089C2.9017 3.72785 2.80147 3.78956 2.75808 3.83544C2.7147 3.88133 2.71021 3.8924 2.71021 3.94937V9.01266C2.71021 9.06962 2.7147 9.0807 2.75808 9.12658C2.80147 9.17247 2.9017 9.23418 3.02138 9.29114C3.14106 9.3481 3.27421 9.40823 3.41633 9.46835C3.55845 9.52848 3.71404 9.5807 3.85915 9.73418C4.00576 9.88924 4.05213 10.0348 4.11048 10.1772C4.16882 10.3196 4.22717 10.4668 4.29 10.5823C4.41716 10.8133 4.50243 10.9367 4.84053 10.9367ZM17.1437 10.9367H18.0294V10.038C17.8723 10.1123 17.7257 10.1661 17.6105 10.2152C17.4938 10.2658 17.4145 10.3212 17.431 10.3038C17.4474 10.2864 17.3891 10.3766 17.3352 10.5063C17.2873 10.6234 17.226 10.7769 17.1437 10.9367ZM10.3698 10.5316C8.44442 10.5316 6.92298 8.68829 6.92298 6.48101C6.92298 4.27373 8.44442 2.43038 10.3698 2.43038C12.2952 2.43038 13.8166 4.27373 13.8166 6.48101C13.8166 8.68829 12.2952 10.5316 10.3698 10.5316ZM1.56128 9.72152H1.94425V1.21519H16.4974V0.810125H1.56128V9.72152ZM10.3698 9.72152C11.8284 9.72152 13.0506 8.29905 13.0506 6.48101C13.0506 4.66297 11.8284 3.24051 10.3698 3.24051C8.91118 3.24051 7.68894 4.66297 7.68894 6.48101C7.68894 8.29905 8.91118 9.72152 10.3698 9.72152ZM4.8166 7.6962C4.29299 7.6962 3.85915 7.23734 3.85915 6.68354C3.85915 6.12975 4.29299 5.67089 4.8166 5.67089C5.3402 5.67089 5.77404 6.12975 5.77404 6.68354C5.77404 7.23734 5.3402 7.6962 4.8166 7.6962ZM15.923 7.6962C15.3994 7.6962 14.9655 7.23734 14.9655 6.68354C14.9655 6.12975 15.3994 5.67089 15.923 5.67089C16.4466 5.67089 16.8804 6.12975 16.8804 6.68354C16.8804 7.23734 16.4466 7.6962 15.923 7.6962ZM4.8166 6.88608C4.9273 6.88608 5.00808 6.80063 5.00808 6.68354C5.00808 6.56645 4.9273 6.48101 4.8166 6.48101C4.70589 6.48101 4.62511 6.56645 4.62511 6.68354C4.62511 6.80063 4.70589 6.88608 4.8166 6.88608ZM15.923 6.88608C16.0337 6.88608 16.1145 6.80063 16.1145 6.68354C16.1145 6.56645 16.0337 6.48101 15.923 6.48101C15.8123 6.48101 15.7315 6.56645 15.7315 6.68354C15.7315 6.80063 15.8123 6.88608 15.923 6.88608ZM2.71021 2.92405C2.86729 2.84968 3.0139 2.79589 3.1291 2.74683C3.24728 2.6962 3.32507 2.64082 3.30862 2.65823C3.29216 2.67563 3.3505 2.58544 3.40436 2.4557C3.45223 2.33861 3.51357 2.18513 3.59585 2.02532H2.71021V2.92405ZM18.0294 2.92405V2.02532H17.1437C17.1796 2.09494 17.211 2.16297 17.2395 2.22785C17.2739 2.30854 17.3083 2.39082 17.3352 2.4557C17.3891 2.58544 17.4474 2.67563 17.431 2.65823C17.4145 2.64082 17.4938 2.6962 17.6105 2.74683C17.7257 2.79589 17.8723 2.84968 18.0294 2.92405Z" fill="black"/>
</svg>
