<svg width="322" height="305" viewBox="0 0 322 305" fill="none" xmlns="http://www.w3.org/2000/svg">
<g clip-path="url(#clip0_1_431)">
<path d="M278.831 255.057C336.12 197.768 336.12 104.883 278.831 47.5939C221.541 -9.69543 128.657 -9.69544 71.3676 47.5939C14.0782 104.883 14.0782 197.768 71.3676 255.057C128.657 312.346 221.541 312.346 278.831 255.057Z" fill="#ECEEEF"/>
<path d="M4.90003 78.6C9.00003 47.4 37.6 25.5 68.8 29.6C100 33.7 121.9 62.3 117.8 93.5C113.7 124.7 85.1 146.6 53.9 142.5C22.7 138.3 0.800034 109.7 4.90003 78.6Z" fill="#FFDC19"/>
<path d="M297.3 249.2C299.3 253.9 300.4 259.1 300.4 264.6C300.4 286.4 282.6 304.2 260.8 304.2C248.9 304.2 238.2 298.9 230.9 290.6" stroke="black" stroke-width="0.75" stroke-miterlimit="10" stroke-linecap="round" stroke-dasharray="2.57 2.57"/>
<path d="M260.8 300.8C280.793 300.8 297 284.593 297 264.6C297 244.607 280.793 228.4 260.8 228.4C240.807 228.4 224.6 244.607 224.6 264.6C224.6 284.593 240.807 300.8 260.8 300.8Z" fill="#FFDC19"/>
<path d="M0.900024 78C5.30002 44.7 36 21.2 69.3 25.6C75.4 26.4 81.2 28.1 86.5 30.5" stroke="black" stroke-width="0.75" stroke-miterlimit="10" stroke-linecap="round" stroke-dasharray="3 3"/>
<path d="M20.3 131C6.10005 118 -1.79995 98.5 0.900048 78" stroke="black" stroke-width="0.75" stroke-miterlimit="10" stroke-linecap="round" stroke-dasharray="3 3"/>
<path d="M314.7 210.3C300.8 243.3 275.5 270.4 243.8 286.6" stroke="black" stroke-width="0.75" stroke-miterlimit="10" stroke-linecap="round"/>
<path d="M213 298.4C200.9 301.5 188.2 303.2 175.2 303.2C168.6 303.2 162.2 302.8 155.9 302" stroke="black" stroke-width="0.75" stroke-miterlimit="10" stroke-linecap="round"/>
<path d="M27.3 119.1C25 129.6 23.8 140.5 23.8 151.7C23.8 168 26.4001 183.7 31.1 198.3" stroke="black" stroke-width="0.75" stroke-miterlimit="10" stroke-linecap="round"/>
<path d="M293.6 16.7H265.2C263.1 16.7 261.4 15 261.4 12.9C261.4 10.8 263.1 9.1 265.2 9.1H266.7C268.8 9.1 270.5 7.4 270.5 5.3C270.5 3.2 268.8 1.5 266.7 1.5H228.3C226.2 1.5 224.5 3.2 224.5 5.3C224.5 7.4 226.2 9.1 228.3 9.1H232.3C234.4 9.1 236.1 10.8 236.1 12.9C236.1 15 234.4 16.7 232.3 16.7H211C208.9 16.7 207.2 18.4 207.2 20.5C207.2 22.6 208.9 24.3 211 24.3H246.7C248.8 24.3 250.5 26 250.5 28.1C250.5 30.2 248.8 31.9 246.7 31.9H236C233.9 31.9 232.2 33.6 232.2 35.7C232.2 37.8 233.9 39.5 236 39.5H277.9C280 39.5 281.7 37.8 281.7 35.7C281.7 33.6 280 31.9 277.9 31.9H274C271.9 31.9 270.2 30.2 270.2 28.1C270.2 26 271.9 24.3 274 24.3H293.6C295.7 24.3 297.4 22.6 297.4 20.5C297.4 18.4 295.7 16.7 293.6 16.7Z" fill="#FFDC19"/>
<path d="M277.4 9.00002H281.6C283.7 9.00002 285.4 7.30002 285.4 5.20002C285.4 3.10002 283.7 1.40002 281.6 1.40002H277.4C275.3 1.40002 273.6 3.10002 273.6 5.20002C273.6 7.30002 275.3 9.00002 277.4 9.00002Z" fill="#FFDC19"/>
<path d="M225.3 31.9H222.4C220.3 31.9 218.6 33.6 218.6 35.7C218.6 37.8 220.3 39.5 222.4 39.5H225.3C227.4 39.5 229.1 37.8 229.1 35.7C229.1 33.6 227.4 31.9 225.3 31.9Z" fill="#FFDC19"/>
<path d="M264.3 29.5C275.7 37.8 285.9 47.7 294.5 58.8" stroke="black" stroke-width="0.75" stroke-miterlimit="10" stroke-linecap="round"/>
<path d="M133.8 6.10002C146.9 2.40002 160.8 0.400024 175.1 0.400024C190.2 0.400024 204.8 2.60002 218.6 6.80002" stroke="black" stroke-width="0.75" stroke-miterlimit="10" stroke-linecap="round"/>
<path d="M256.4 53.2C257.228 53.2 257.9 52.5284 257.9 51.7C257.9 50.8716 257.228 50.2 256.4 50.2C255.572 50.2 254.9 50.8716 254.9 51.7C254.9 52.5284 255.572 53.2 256.4 53.2Z" stroke="black" stroke-width="0.75" stroke-miterlimit="10" stroke-linecap="round" stroke-linejoin="round"/>
<path d="M186.6 39.5H187.8" stroke="black" stroke-width="0.75" stroke-miterlimit="10" stroke-linecap="round" stroke-linejoin="round"/>
<path d="M158.8 35.2H199.3" stroke="black" stroke-width="0.75" stroke-miterlimit="10" stroke-linecap="round" stroke-linejoin="round"/>
<path d="M152.1 35.2H155.5" stroke="black" stroke-width="0.75" stroke-miterlimit="10" stroke-linecap="round" stroke-linejoin="round"/>
<path d="M155.4 39.5H183.4" stroke="black" stroke-width="0.75" stroke-miterlimit="10" stroke-linecap="round" stroke-linejoin="round"/>
<path d="M42.2 169H45.5999" stroke="black" stroke-width="0.75" stroke-miterlimit="10" stroke-linecap="round" stroke-linejoin="round"/>
<path d="M43.9 170.7V167.3" stroke="black" stroke-width="0.75" stroke-miterlimit="10" stroke-linecap="round" stroke-linejoin="round"/>
<path d="M242.1 231.9V135.4C242.1 127.8 235.9 121.6 228.3 121.6H71.6C64 121.6 57.8 127.8 57.8 135.4V234.3C57.8 234.3 43.3 250.6 38.6 255.8C37.5 257 37.1 258.7 37.5 260.3C38.8 265.4 43.4 269.2 48.9 269.2H251C256.5 269.2 261.9 264.2 262.5 258.9C262.9 255.5 262 254.2 260.7 252.6C256.2 247.3 242.1 231.9 242.1 231.9Z" fill="black"/>
<path d="M47.2 266.3H249.3C255.4 266.3 260.5 261.3 260.5 255.2H36C36.1 261.3 41.1 266.3 47.2 266.3Z" fill="#FFDC19"/>
<path d="M43.2 258.4H260.1C260.4 257.4 260.6 256.3 260.6 255.2H36C36.1 260 39.1 264 43.3 265.6C42.2 264.4 41.4 262.9 41 261.3C40.6 259.8 41.7 258.4 43.2 258.4Z" fill="white"/>
<path d="M239.9 132.9C239.9 125.6 233.9 119.6 226.6 119.6H70C62.7 119.6 56.7 125.6 56.7 132.9V133.4H240V132.9H239.9Z" fill="#FFDC19"/>
<path d="M240 232V133.6H56.5V232L35.9 255H260.7L240 232Z" fill="white"/>
<path d="M56.5 232.1H240" stroke="black" stroke-width="0.75" stroke-miterlimit="10" stroke-linecap="round" stroke-linejoin="round"/>
<path d="M260.7 255C260.7 261.3 255.6 266.4 249.3 266.4H47.2001C40.9001 266.4 35.8 261.3 35.8 255" stroke="black" stroke-width="0.75" stroke-miterlimit="10" stroke-linecap="round" stroke-linejoin="round"/>
<path d="M177.1 258.4H119.5C117.7 258.4 116.3 257 116.3 255.2H180.4C180.3 256.9 178.9 258.4 177.1 258.4Z" fill="black" stroke="black" stroke-width="0.75" stroke-miterlimit="10" stroke-linecap="round" stroke-linejoin="round"/>
<path d="M149.4 125.2H147.2C146.3 125.2 145.6 125.9 145.6 126.8C145.6 127.7 146.3 128.4 147.2 128.4H149.4C150.3 128.4 151 127.7 151 126.8C150.9 125.9 150.2 125.2 149.4 125.2Z" fill="black"/>
<path d="M45.7 249L56.3 237.1C57.3 236 58.7 235.4 60.2 235.4H236.2C237.7 235.4 239.1 236 240.1 237.1L250.7 249C251.6 250 250.9 251.6 249.5 251.6H46.9C45.5 251.7 44.8 250.1 45.7 249Z" fill="#E6E6E6"/>
<path d="M71.1999 122.5H229.3C232.5 122.5 235.4 123.6 237.7 125.5C235.3 121.9 231.2 119.6 226.6 119.6H70C62.7 119.6 56.7 125.6 56.7 132.9V133.4H57.9C58.4 128.8 59.5999 122.5 71.1999 122.5Z" fill="white"/>
<path d="M240 232V132.9C240 125.5 234 119.5 226.6 119.5H70C62.6 119.5 56.6 125.5 56.6 132.9V232L36 255H260.8L240 232Z" stroke="black" stroke-width="0.75" stroke-miterlimit="10" stroke-linecap="round" stroke-linejoin="round"/>
<path d="M56.5 133.6H240" stroke="black" stroke-width="0.75" stroke-miterlimit="10" stroke-linecap="round" stroke-linejoin="round"/>
<path d="M9.40002 221.2C9.40002 223 10.8 224.5 12.6 224.5H37C38.8 224.5 40.3 226 40.3 227.8C40.3 229.6 38.8 231.1 37 231.1H35.7C33.9 231.1 32.5 232.6 32.5 234.4C32.5 236.2 33.9 237.7 35.7 237.7H68.7C70.5 237.7 72 236.2 72 234.4C72 232.6 70.5 231.1 68.7 231.1H65.3C63.5 231.1 62.1 229.6 62.1 227.8C62.1 226 63.5 224.5 65.3 224.5H83.6C85.4 224.5 86.9 223 86.9 221.2C86.9 219.4 85.4 217.9 83.6 217.9H53C51.2 217.9 49.8 216.4 49.8 214.6C49.8 212.8 51.2 211.3 53 211.3H62.1C63.9 211.3 65.4 209.8 65.4 208C65.4 206.2 63.9 204.7 62.1 204.7H26.2C24.4 204.7 23 206.2 23 208C23 209.8 24.4 211.3 26.2 211.3H29.5C31.3 211.3 32.8 212.8 32.8 214.6C32.8 216.4 31.3 217.9 29.5 217.9H12.7C10.9 218 9.40002 219.4 9.40002 221.2Z" fill="#FFDC19"/>
<path d="M26.6 231C26.5001 231 26.5001 231 26.6 231H23C21.2 231 19.8 232.5 19.8 234.3C19.8 236.1 21.2 237.6 23 237.6H26.6C28.4001 237.6 29.9 236.1 29.9 234.3C29.8 232.5 28.4001 231 26.6 231Z" fill="#FFDC19"/>
<path d="M71.2999 211.4H73.7999C75.5999 211.4 77.0999 209.9 77.0999 208.1C77.0999 206.3 75.5999 204.8 73.7999 204.8H71.2999C69.4999 204.8 68.0999 206.3 68.0999 208.1C67.9999 209.9 69.4999 211.4 71.2999 211.4Z" fill="#FFDC19"/>
<path d="M37.5 95.8H58.9C60.5 95.8 61.8 97.1 61.8 98.7C61.8 100.3 60.5 101.6 58.9 101.6H57.7C56.1 101.6 54.9 102.9 54.9 104.5C54.9 106.1 56.2 107.4 57.7 107.4H90.7C92.3 107.4 93.6 106.1 93.6 104.5C93.6 102.9 92.3 101.6 90.7 101.6H83.7C82.1 101.6 80.9 100.3 80.9 98.7C80.9 97.1 82.2 95.8 83.7 95.8H99.8C101.4 95.8 102.7 94.5 102.7 92.9C102.7 91.3 101.4 90 99.8 90H72.8C71.2 90 70 88.7 70 87.1C70 85.5 71.3 84.2 72.8 84.2H80.8C82.4 84.2 83.7 82.9 83.7 81.3C83.7 79.7 82.4 78.4 80.8 78.4H49.3C47.7 78.4 46.5 79.7 46.5 81.3C46.5 82.9 47.8 84.2 49.3 84.2H52.2C53.8 84.2 55.1 85.5 55.1 87.1C55.1 88.7 53.8 90 52.2 90H37.5C35.9 90 34.7 91.3 34.7 92.9C34.6 94.5 35.9 95.8 37.5 95.8Z" fill="white"/>
<path d="M49.6 101.6H46.4C44.8 101.6 43.6 102.9 43.6 104.5C43.6 106.1 44.9 107.4 46.4 107.4H49.6C51.2 107.4 52.5 106.1 52.5 104.5C52.5 102.8 51.2 101.6 49.6 101.6Z" fill="white"/>
<path d="M88.9 84.3H91.1C92.7 84.3 94 83 94 81.4C94 79.8 92.7 78.5 91.1 78.5H88.9C87.3 78.5 86.1 79.8 86.1 81.4C86 83.1 87.3 84.3 88.9 84.3Z" fill="white"/>
<path d="M59.8 145.7C60.7 147 61.5 147.3 62.2 148.4C62.5 149 62.7 150.1 61.5 150.6C59.5 151.4 55.3 153 52.5 154.1C50.9 154.7 50.2 153.7 50.8 152.6C51.6 151.1 54.2 149.6 56.3 146.5C56.8 145.8 57.3001 145.3 57.9001 145C58.4001 144.8 59.1 144.8 59.8 145.7Z" fill="#FFDC19"/>
<path d="M55.6 149C55.6 149.1 55.6 149.3 55.4 149.3C55.3 149.3 55.1 149.3 55.1 149.1C55.1 149 55.1 148.8 55.3 148.8C55.4 148.8 55.5 148.9 55.6 149Z" fill="black"/>
<path d="M54.8 149.7C54.8 149.8 54.8 150 54.6 150C54.5 150 54.3 150 54.3 149.8C54.3 149.7 54.3 149.5 54.5 149.5C54.7 149.5 54.8 149.6 54.8 149.7Z" fill="black"/>
<path d="M54.1 150.4C54.1 150.5 54.1 150.7 53.9 150.7C53.8 150.7 53.6 150.7 53.6 150.5C53.6 150.4 53.6 150.2 53.8 150.2C53.9 150.2 54 150.3 54.1 150.4Z" fill="black"/>
<path d="M62 148.2C62.1 148.8 61.9 149.4 61.1 149.7C59.1 150.5 54.9 152.1 52.1 153.2C51.4 153.5 50.8 153.4 50.5 153.2C50.4 154 51.1 154.6 52.4 154C55.3 152.9 59.4 151.3 61.4 150.5C62.6 150 62.4 149 62.1 148.3C62.1 148.4 62 148.3 62 148.2Z" fill="black"/>
<path d="M59.8 145.7C60.7 147 61.5 147.3 62.2 148.4C62.5 149 62.7 150.1 61.5 150.6C59.5 151.4 55.3 153 52.5 154.1C50.9 154.7 50.2 153.7 50.8 152.6C51.6 151.1 54.2 149.6 56.3 146.5C56.8 145.8 57.3001 145.3 57.9001 145C58.4001 144.8 59.1 144.8 59.8 145.7Z" stroke="black" stroke-width="0.5" stroke-miterlimit="10" stroke-linecap="round" stroke-linejoin="round"/>
<path d="M51.1 143.2C51.8 144.5 52.7 144.9 53.2 146.1C53.5 146.8 53.5 147.8 52.3 148.2C50.2 148.8 45.9 150 43 150.8C41.3 151.3 40.7 150.2 41.5 149.1C42.5 147.7 45.2 146.4 47.6 143.6C48.1 143 48.7 142.5 49.4 142.3C49.8 142.2 50.5 142.3 51.1 143.2Z" fill="#FFDC19"/>
<path d="M46.6 146.1C46.6 146.2 46.5 146.4 46.4 146.4C46.3 146.4 46.1 146.3 46.1 146.2C46.1 146.1 46.2 145.9 46.3 145.9C46.4 145.8 46.5 145.9 46.6 146.1Z" fill="black"/>
<path d="M45.7 146.7C45.7 146.8 45.6 147 45.5 147C45.4 147 45.2 146.9 45.2 146.8C45.2 146.7 45.3 146.5 45.4 146.5C45.6 146.4 45.7 146.5 45.7 146.7Z" fill="black"/>
<path d="M44.9 147.3C44.9 147.4 44.8 147.6 44.7 147.6C44.6 147.6 44.4 147.5 44.4 147.4C44.4 147.3 44.5 147.1 44.6 147.1C44.8 147.1 44.9 147.1 44.9 147.3Z" fill="black"/>
<path d="M52.9999 146C52.9999 146.6 52.7999 147.2 51.8999 147.4C49.7999 148 45.4999 149.2 42.5999 150C41.8999 150.2 41.2999 150.1 40.9999 149.8C40.7999 150.6 41.4999 151.2 42.7999 150.8C45.7999 150 49.9999 148.8 52.0999 148.2C53.2999 147.9 53.2999 146.8 52.9999 146.1C53.0999 146.1 53.0999 146 52.9999 146Z" fill="black"/>
<path d="M51.1 143.2C51.8 144.5 52.7 144.9 53.2 146.1C53.5 146.8 53.5 147.8 52.3 148.2C50.2 148.8 45.9 150 43 150.8C41.3 151.3 40.7 150.2 41.5 149.1C42.5 147.7 45.2 146.4 47.6 143.6C48.1 143 48.7 142.5 49.4 142.3C49.8 142.2 50.5 142.3 51.1 143.2Z" stroke="black" stroke-width="0.5" stroke-miterlimit="10" stroke-linecap="round" stroke-linejoin="round"/>
<path d="M81 88.6C79.4 88.2 77.9 89.2 77.3 90.7C76.6 92.6 74.3 102.2 73.3 103.7C72.1 105.7 67.3 109 63.5 110.8C63 111 62.3 111.1 61.7 111.2C60.8 111.4 59.6 111.6 59.4 111.7C59.2 111.7 58.9 111.8 59 112C59.1 112.3 59.8 112.2 60.2 112.2C60.2 112.2 59.9 112.3 59.8 112.4C59.2 112.7 58.4 113 57.7 113.4C57.5 113.5 57.2 113.6 57.3 113.8C57.4 114 57.6 114 57.8 114C58.4 113.8 59.4 113.3 60.1 113.1C60.3 113 60.4 113.1 60.1 113.2C59.7 113.4 58.4 114 57.7 114.4C57.4 114.5 57.3 114.7 57.4 114.8C57.5 115 57.7 115 58 114.9C58.5 114.7 59.7 114.2 60.4 113.9C60.6 113.8 60.8 113.8 60.3 114.1C59.7 114.4 58.8 114.8 58.2 115.1C57.9 115.2 58 115.4 58.1 115.5C58.2 115.6 58.4 115.5 58.7 115.4C59.2 115.2 60.2 114.8 60.9 114.5C61.1 114.4 61.2 114.4 60.9 114.6C60.5 114.8 60.2 115 59.5 115.3C59.3 115.4 59.2 115.6 59.3 115.7C59.4 115.8 59.6 115.8 59.9 115.7C60.6 115.4 60.8 115.3 61.6 114.9C62.3 114.5 63.1 113.8 63.8 113.5C65.3 112.8 73.2 109.3 75.9 107.6C78.5 106 82.3 95.7 83 92.4C83.4 90.8 82.6 89.1 81 88.6Z" fill="white" stroke="black" stroke-width="0.35" stroke-miterlimit="10" stroke-linecap="round" stroke-linejoin="round"/>
<path d="M38.9 53.2H41.2" stroke="black" stroke-width="0.75" stroke-miterlimit="10" stroke-linecap="round" stroke-linejoin="round"/>
<path d="M41.2 57H58.9" stroke="black" stroke-width="0.75" stroke-miterlimit="10" stroke-linecap="round" stroke-linejoin="round"/>
<path d="M61.8 57H62.8" stroke="black" stroke-width="0.75" stroke-miterlimit="10" stroke-linecap="round" stroke-linejoin="round"/>
<path d="M44.3 53.2H72.6" stroke="black" stroke-width="0.75" stroke-miterlimit="10" stroke-linecap="round" stroke-linejoin="round"/>
<path d="M259.1 211.7H263.3" stroke="black" stroke-width="0.75" stroke-miterlimit="10" stroke-linecap="round" stroke-linejoin="round"/>
<path d="M263.1 216.1H276.8" stroke="black" stroke-width="0.75" stroke-miterlimit="10" stroke-linecap="round" stroke-linejoin="round"/>
<path d="M281.9 216.1H283.5" stroke="black" stroke-width="0.75" stroke-miterlimit="10" stroke-linecap="round" stroke-linejoin="round"/>
<path d="M268.6 211.7H290.2" stroke="black" stroke-width="0.75" stroke-miterlimit="10" stroke-linecap="round" stroke-linejoin="round"/>
<path d="M173.2 67.2H177.2" stroke="black" stroke-width="0.75" stroke-miterlimit="10" stroke-linecap="round" stroke-linejoin="round"/>
<path d="M175.2 69.2V65.2" stroke="black" stroke-width="0.75" stroke-miterlimit="10" stroke-linecap="round" stroke-linejoin="round"/>
<path d="M292.4 185.2H296.4" stroke="black" stroke-width="0.75" stroke-miterlimit="10" stroke-linecap="round" stroke-linejoin="round"/>
<path d="M294.4 187.2V183.2" stroke="black" stroke-width="0.75" stroke-miterlimit="10" stroke-linecap="round" stroke-linejoin="round"/>
<path d="M179.3 278.1H156.7" stroke="black" stroke-width="0.75" stroke-miterlimit="10" stroke-linecap="round" stroke-linejoin="round"/>
<path d="M151.6 278.1H150" stroke="black" stroke-width="0.75" stroke-miterlimit="10" stroke-linecap="round" stroke-linejoin="round"/>
<path d="M76.9001 112.7C71.9001 111.5 49.1001 113 47.7001 122.4C46.7001 129.6 47.2001 139 47.4001 142.9C47.5001 143.8 48.1001 144.5 48.9001 144.7L49.2001 144.8C50.1001 144.8 50.9 144.3 51.1 143.4C52.1 139.9 54.4001 130.9 54.4001 124.5C54.4001 124.1 54.8001 123.7 55.2001 123.8C58.1001 124.2 67.2 123.5 72.2 123.4C85.4 123.3 85.1001 114.6 76.9001 112.7Z" fill="white" stroke="black" stroke-width="0.35" stroke-miterlimit="10" stroke-linecap="round" stroke-linejoin="round"/>
<path d="M47.2 142.1C46.6 137.5 46.6 129 47.5 122.3C47.8 120.2 48.9 118.5 50.9 117.1C54.7 114.5 59.2 113.1 64.8 112.2C70.3 111.3 74.3 111.6 77.3 112C80.5 112.4 83 114 83.3 117.2C83.5 118.8 83.1 121.2 80.2 122.7C76.5 124.7 61.8 124 57.5 124.2C56 124.3 54.8 125.1 54.7 126.9C54.3 132.4 53.1 138.5 51.9 142.1C51.6 142.8 47.3 142.9 47.2 142.1Z" fill="black"/>
<path d="M81.2 87.9C78.9 87.3 76.7 88.9 76 91.2C75.6 92.6 75.1 95.9 74.9 97C74.9 97.2 75 97.4 75.2 97.4L81.1 98.9C81.3 98.9 81.4 98.9 81.5 98.7C82 97.9 83.6 95 84 93.3C84.6 91 83.6 88.6 81.2 87.9Z" fill="#F2F2F2"/>
<path d="M79.2 111.5C74 111.4 51.2 115.4 52 125.8C52.6 133 55.1 142.2 56.2 145.9C56.4 146.7 57.2 147.3 58.1 147.3H58.4C59.3 147.1 59.9 146.4 60 145.5C60.2 141.9 60.6 132.6 59.2 126.4C59.1 126 59.4 125.6 59.8 125.5C62.7 125.3 72.3 124.5 77.2 123.4C89.9 120.5 87.6 111.6 79.2 111.5Z" fill="white" stroke="black" stroke-width="0.35" stroke-miterlimit="10" stroke-linecap="round" stroke-linejoin="round"/>
<path d="M55.8 145.2C54.2 140.9 52.4 132.5 51.8 125.8C51.6 123.7 52.4 121.7 54 120C57.1 116.6 62.8 114.5 67.1 113.3C71.9 112 76.7 111.3 79.1 111.3H79.2C81.2 111.3 85.8 111.7 86.6 116.2C86.9 117.7 86.3 119.7 84.9 121C83.3 122.5 80.6 123.2 77.2 123.8C73.1 124.5 65.6 125.3 61.7 126C60.2 126.3 59.6 127 59.8 128.8C60.6 134.3 60.8 140.5 60.3 144.3C60.3 144.9 56 145.9 55.8 145.2Z" fill="#141414"/>
<path d="M79.6 86.3C81.2 85.4 85.7 84.8 88.4 88.3C91 91.7 89.9 96.9 88.8 100.7C86.2 109.7 89.2 116.2 87.4 118C86.5 118.9 86 116.5 83.1 114.5C78.9 111.6 73.7 112 71.7 112.2C69.8 112.4 72.5 109.2 73.8 99.9C74.6 92.6 75.8 88.3 79.6 86.3Z" fill="#FFDC19"/>
<path d="M74.8 100.3C75.8 92.8 76.9 88.3 81.4 86.3C82 86.1 82.8 85.7 83.7 85.6C82 85.4 80.4 85.8 79.6 86.2C75.8 88.3 74.6 92.6 73.6 99.8C72.4 109.1 69.6 112.3 71.5 112.1C71.8 112.2 73.9 106.9 74.8 100.3Z" fill="white"/>
<path d="M79.6 86.3C81.2 85.4 85.7 84.8 88.4 88.3C91 91.7 89.9 96.9 88.8 100.7C86.2 109.7 89.2 116.2 87.4 118C86.5 118.9 86 116.5 83.1 114.5C78.9 111.6 73.7 112 71.7 112.2C69.8 112.4 72.5 109.2 73.8 99.9C74.6 92.6 75.8 88.3 79.6 86.3Z" stroke="black" stroke-width="0.5" stroke-miterlimit="10" stroke-linecap="round" stroke-linejoin="round"/>
<path d="M85 85.9C83.9 85 83.4 81.3 83.4 78C83.8 74.9 82.9 71.9 79.5 71.8C76.7 71.7 74.9 73.9 74.8 76.1C74.7 77.5 75.5 78.2 75.6 79.1C75.6 79.7 75 80.5 75.1 81.1C75.2 81.5 76 81.5 76.2 81.6C76.4 81.7 76.7 82.3 76.7 83.4C76.8 84.8 77.7 84.9 78.4 84.9C79 84.8 79.6 84.6 80.1 84.2C80.1 84.8 80.1 85.4 80 85.8C80 86 79.8 86.2 79.6 86.3C79.3 86.4 79 86.7 79 86.7C79.5 86.9 80.1 87 80.7 87.1C82.6 87.4 84.4 87 85.7 86.3C85.5 86 85.2 85.9 85 85.9Z" fill="white" stroke="black" stroke-width="0.5" stroke-miterlimit="10" stroke-linecap="round" stroke-linejoin="round"/>
<path d="M78.3 83.5C79.5 82.7 81.1 78.1 78 76.9C76.9 76.3 78.7 74 77 74.2C76.8 74.2 76.5 74.4 76.2 74.6C75.7 75 75 74.9 74.6 74.4C73.4 73.1 74.6 72 76.3 71.8C76.9 71.7 77.8 70.8 79.6 71C81.9 71.2 83.8 70.7 84.9 73.5C85.4 74.9 84.9 76.8 84.6 77.8C84.2 79.2 83.8 80.3 83.5 80.5C83.2 80.7 81.9 80.5 82.5 78.9C83 77.7 82.7 76.8 81.9 76.9C81 76.9 80.9 78.6 81.1 80.1C81.3 81.9 82.2 83.1 80.4 84.9C78.9 86.1 76.4 85.5 76.7 83.8C76.8 83.1 77 84.3 78.3 83.5Z" fill="black"/>
<path d="M72.4 116.6L59.3 120.7C59.2 120.7 59.1 120.7 59 120.6L53 115.4C52.9 115.3 52.9 115.2 52.9 115.2C52.9 115.1 52.9 114.8 52.9 114.8L66 110.9C66.2 110.8 66.5 110.9 66.6 111L72.5 115.8V116.3C72.6 116.4 72.5 116.5 72.4 116.6Z" fill="#ECEEEF"/>
<path d="M72.4 116.1L59.3 120.2C59.2 120.2 59.1 120.2 59 120.1L53 114.9C52.8 114.7 52.9 114.4 53.1 114.4L66 110.3C66.2 110.2 66.5 110.3 66.6 110.4L72.4 115.5C72.7 115.7 72.6 116 72.4 116.1Z" fill="white"/>
<path d="M63.4 112.7C64 112.5 65.7 112 66.3 111.8C66.4 111.8 66.6 111.8 66.7 111.9C67.3 112.4 69.4 114.2 70 114.8C70.1 114.9 70.1 115 69.9 115L67 115.9C66.9 115.9 66.7 115.9 66.6 115.8L63.3 112.9C63.2 112.9 63.3 112.7 63.4 112.7Z" fill="#E6E6E6"/>
<path d="M60.7999 118.6C60.8999 118.6 61.1999 118.5 61.1999 118.5C61.1999 118.5 61.1999 118.5 61.2999 118.5C61.3999 118.6 61.6999 118.9 61.7999 118.9L61.3999 119C61.3999 119 61.3999 119 61.2999 119L60.7999 118.6Z" fill="#E6E6E6"/>
<path d="M59.7999 117.7C59.8999 117.7 60.1999 117.6 60.1999 117.6C60.1999 117.6 60.1999 117.6 60.2999 117.6C60.3999 117.7 60.6999 118 60.7999 118L60.3999 118.1C60.3999 118.1 60.3999 118.1 60.2999 118.1L59.7999 117.7Z" fill="#E6E6E6"/>
<path d="M58.7999 116.8C58.8999 116.8 59.1999 116.7 59.1999 116.7C59.1999 116.7 59.1999 116.7 59.2999 116.7C59.3999 116.8 59.6999 117.1 59.7999 117.1L59.3999 117.2C59.3999 117.2 59.3999 117.2 59.2999 117.2L58.7999 116.8Z" fill="#E6E6E6"/>
<path d="M57.7999 115.9C57.8999 115.9 58.1999 115.8 58.1999 115.8C58.1999 115.8 58.1999 115.8 58.2999 115.8C58.3999 115.9 58.6999 116.2 58.7999 116.2L58.3999 116.3C58.3999 116.3 58.3999 116.3 58.2999 116.3L57.7999 115.9Z" fill="#E6E6E6"/>
<path d="M56.7999 115C56.8999 115 57.1999 114.9 57.1999 114.9C57.1999 114.9 57.1999 114.9 57.2999 114.9C57.3999 115 57.6999 115.3 57.7999 115.3L57.3999 115.4C57.3999 115.4 57.3999 115.4 57.2999 115.4L56.7999 115Z" fill="#E6E6E6"/>
<path d="M55.7999 114.1C55.8999 114.1 56.1999 114 56.1999 114C56.1999 114 56.1999 114 56.2999 114C56.3999 114.1 56.6999 114.4 56.7999 114.4L56.3999 114.5C56.3999 114.5 56.3999 114.5 56.2999 114.5L55.7999 114.1Z" fill="#E6E6E6"/>
<path d="M61.9 118.3C62 118.3 62.3 118.2 62.3 118.2C62.3 118.2 62.3 118.2 62.4 118.2C62.5 118.3 62.8 118.6 62.9 118.6L62.5 118.7C62.5 118.7 62.5 118.7 62.4 118.7L61.9 118.3Z" fill="#E6E6E6"/>
<path d="M60.9 117.4C61 117.4 61.3 117.3 61.3 117.3C61.3 117.3 61.3 117.3 61.4 117.3C61.5 117.4 61.8 117.7 61.9 117.7L61.5 117.8C61.5 117.8 61.5 117.8 61.4 117.8L60.9 117.4Z" fill="#E6E6E6"/>
<path d="M59.9 116.5C60 116.5 60.3 116.4 60.3 116.4C60.3 116.4 60.3 116.4 60.4 116.4C60.5 116.5 60.8 116.8 60.9 116.8L60.5 116.9C60.5 116.9 60.5 116.9 60.4 116.9L59.9 116.5Z" fill="#E6E6E6"/>
<path d="M58.9 115.6C59 115.6 59.3 115.5 59.3 115.5C59.3 115.5 59.3 115.5 59.4 115.5C59.5 115.6 59.8 115.9 59.9 115.9L59.5 116C59.5 116 59.5 116 59.4 116L58.9 115.6Z" fill="#E6E6E6"/>
<path d="M57.9 114.7C58 114.7 58.3 114.6 58.3 114.6C58.3 114.6 58.3 114.6 58.4 114.6C58.5 114.7 58.8 115 58.9 115L58.5 115.1C58.5 115.1 58.5 115.1 58.4 115.1L57.9 114.7Z" fill="#E6E6E6"/>
<path d="M56.9 113.8C57 113.8 57.3 113.7 57.3 113.7C57.3 113.7 57.3 113.7 57.4 113.7C57.5 113.8 57.8 114.1 57.9 114.1L57.5 114.2C57.5 114.2 57.5 114.2 57.4 114.2L56.9 113.8Z" fill="#E6E6E6"/>
<path d="M63 117.9C63.1 117.9 63.4 117.8 63.4 117.8C63.4 117.8 63.4 117.8 63.5 117.8C63.6 117.9 63.9 118.2 64 118.2L63.6 118.3C63.6 118.3 63.6 118.3 63.5 118.3L63 117.9Z" fill="#E6E6E6"/>
<path d="M62 117C62.1 117 62.4 116.9 62.4 116.9C62.4 116.9 62.4 116.9 62.5 116.9C62.6 117 62.9 117.3 63 117.3L62.6 117.4C62.6 117.4 62.6 117.4 62.5 117.4L62 117Z" fill="#E6E6E6"/>
<path d="M61 116.1C61.1 116.1 61.4 116 61.4 116C61.4 116 61.4 116 61.5 116C61.6 116.1 61.9 116.4 62 116.4L61.6 116.5C61.6 116.5 61.6 116.5 61.5 116.5L61 116.1Z" fill="#E6E6E6"/>
<path d="M60 115.2C60.1 115.2 60.4 115.1 60.4 115.1C60.4 115.1 60.4 115.1 60.5 115.1C60.6 115.2 60.9 115.5 61 115.5L60.6 115.6C60.6 115.6 60.6 115.6 60.5 115.6L60 115.2Z" fill="#E6E6E6"/>
<path d="M59 114.3C59.1 114.3 59.4 114.2 59.4 114.2C59.4 114.2 59.4 114.2 59.5 114.2C59.6 114.3 59.9 114.6 60 114.6L59.6 114.7C59.6 114.7 59.6 114.7 59.5 114.7L59 114.3Z" fill="#E6E6E6"/>
<path d="M58 113.4C58.1 113.4 58.4 113.3 58.4 113.3C58.4 113.3 58.4 113.3 58.5 113.3C58.6 113.4 58.9 113.7 59 113.7L58.6 113.8C58.6 113.8 58.6 113.8 58.5 113.8L58 113.4Z" fill="#E6E6E6"/>
<path d="M64.1 117.5C64.2 117.5 64.5 117.4 64.5 117.4C64.5 117.4 64.5 117.4 64.6 117.4C64.7 117.5 65 117.8 65.1 117.8L64.7 117.9C64.7 117.9 64.7 117.9 64.6 117.9L64.1 117.5C64.1 117.6 64.1 117.6 64.1 117.5Z" fill="#E6E6E6"/>
<path d="M63.1 116.7C63.2 116.7 63.5 116.6 63.5 116.6C63.5 116.6 63.5 116.6 63.6 116.6C63.7 116.7 64 117 64.1 117L63.7 117.1C63.7 117.1 63.7 117.1 63.6 117.1L63.1 116.7Z" fill="#E6E6E6"/>
<path d="M62.1 115.8C62.2 115.8 62.5 115.7 62.5 115.7C62.5 115.7 62.5 115.7 62.6 115.7C62.7 115.8 63 116.1 63.1 116.1L62.7 116.2C62.7 116.2 62.7 116.2 62.6 116.2L62.1 115.8Z" fill="#E6E6E6"/>
<path d="M61.1 114.9C61.2 114.9 61.5 114.8 61.5 114.8C61.5 114.8 61.5 114.8 61.6 114.8C61.7 114.9 62 115.2 62.1 115.2L61.7 115.3C61.7 115.3 61.7 115.3 61.6 115.3L61.1 114.9Z" fill="#E6E6E6"/>
<path d="M60.1 114C60.2 114 60.5 113.9 60.5 113.9C60.5 113.9 60.5 113.9 60.6 113.9C60.7 114 61 114.3 61.1 114.3L60.7 114.4C60.7 114.4 60.7 114.4 60.6 114.4L60.1 114Z" fill="#E6E6E6"/>
<path d="M59.1 113.1C59.2 113.1 59.5 113 59.5 113C59.5 113 59.5 113 59.6 113C59.7 113.1 60 113.4 60.1 113.4L59.7 113.5C59.7 113.5 59.7 113.5 59.6 113.5L59.1 113.1C59 113.1 59 113.1 59.1 113.1Z" fill="#E6E6E6"/>
<path d="M53.3 106.8L59.1 120.1C59.1 120.1 59.1 120.2 59 120.2L53 115C52.9 114.9 52.8 114.8 52.7 114.6L47.2 102C47.1 101.8 47.3 101.7 47.4 101.8L52.9 106.5C53.1 106.5 53.2 106.6 53.3 106.8Z" fill="black"/>
<path d="M53.3999 111C53.6999 111.7 53.7999 112.4 53.5999 112.5C53.3999 112.6 52.9999 112 52.6999 111.3C52.3999 110.6 52.2999 109.9 52.4999 109.8C52.6999 109.7 53.0999 110.2 53.3999 111Z" fill="white"/>
<path d="M83.8 89.2C82.1 88.7 80.5 89.8 79.9 91.5C79.2 93.6 76.7 104 75.7 105.6C74.4 107.7 69.3 111.4 65.2 113.3C64.6 113.6 63.9 113.6 63.2 113.8C62.2 114 61 114.3 60.7 114.4C60.5 114.5 60.2 114.5 60.3 114.8C60.4 115.1 61.2 115 61.6 115C61.6 115 61.3 115.1 61.2 115.2C60.6 115.5 59.7 115.9 58.9 116.3C58.6 116.4 58.4 116.6 58.4 116.8C58.5 117 58.7 117 58.9 117C59.6 116.8 60.7 116.3 61.4 116C61.6 115.9 61.7 116 61.4 116.1C60.9 116.3 59.5 117 58.8 117.4C58.5 117.6 58.4 117.7 58.5 117.9C58.6 118.1 58.8 118.1 59.1 118C59.7 117.8 60.9 117.2 61.7 116.9C62 116.8 62.1 116.8 61.6 117.1C60.9 117.4 59.9 117.9 59.3 118.2C59 118.3 59.1 118.6 59.2 118.7C59.3 118.8 59.6 118.7 59.8 118.6C60.4 118.4 61.4 118 62.2 117.6C62.4 117.5 62.5 117.5 62.2 117.7C61.8 117.9 61.4 118.1 60.7 118.5C60.5 118.6 60.4 118.8 60.5 119C60.6 119.2 60.9 119.1 61.1 119C61.9 118.6 62.1 118.6 63 118.1C63.8 117.7 64.6 116.9 65.4 116.5C67 115.8 75.5 111.9 78.4 110C81.2 108.3 85.2 97.1 85.9 93.5C86.4 91.4 85.6 89.6 83.8 89.2Z" fill="white" stroke="black" stroke-width="0.35" stroke-miterlimit="10" stroke-linecap="round" stroke-linejoin="round"/>
<path d="M84.1 88.4C81.6 87.7 79.3 89.5 78.5 92C78 93.5 77.5 97.1 77.4 98.3C77.4 98.5 77.5 98.7 77.7 98.7L84.1 100.3C84.3 100.3 84.4 100.3 84.5 100.1C85 99.2 86.7 96.1 87.2 94.3C87.7 91.7 86.7 89.1 84.1 88.4Z" fill="black"/>
<path d="M258.6 71.9C229.9 70.8 205.2 93 203.1 121.6C202.1 135.6 206.6 148.7 214.6 158.8C214.9 159.2 215.2 159.7 215.2 160.3C215.2 160.8 215.2 161.3 215 161.7C213.3 168.2 206.9 173.7 206.8 173.8C206.7 173.9 206.7 174 206.7 174.1C206.7 174.2 206.8 174.3 206.9 174.3C213.2 174.7 219.6 173.1 224.3 172C225.7 171.7 226.9 171.4 227.9 171.2C228.1 171.2 228.3 171.2 228.5 171.3C236.8 176.3 246.5 179.2 257 179.1C284.8 178.8 308 157 309.9 129.3C312.2 98.9 288.8 73 258.6 71.9Z" fill="black"/>
<path d="M254.2 69.2C225.5 69.3 201.6 92.4 200.7 121.1C200.3 135.1 205.2 148 213.7 157.8C214.1 158.2 214.3 158.7 214.4 159.3C214.5 159.8 214.4 160.3 214.3 160.7C212.8 167.2 206.7 173 206.6 173.1C206.5 173.2 206.5 173.3 206.5 173.4C206.5 173.5 206.6 173.6 206.7 173.6C213 173.8 219.4 171.9 224 170.6C225.4 170.2 226.6 169.8 227.6 169.6C227.8 169.6 228 169.6 228.2 169.7C236.6 174.4 246.5 176.9 257 176.4C284.7 175 307.1 152.3 307.9 124.5C308.8 94 284.4 69.1 254.2 69.2Z" fill="#FFDC19"/>
<path d="M217.3 160C217.4 159.6 217.5 159.1 217.4 158.6C217.3 158.1 217.1 157.6 216.7 157.2C208.1 147.5 203.7 136.3 204.1 122.4C205 94.1 229.3 71.3 258.7 71.2C265.1 71.2 271.2 72.2 276.9 74.2C270 71 262.3 69.2 254.2 69.2C225.5 69.3 201.6 92.4 200.7 121.1C200.3 135.1 205.2 148 213.7 157.8C214.1 158.2 214.3 158.7 214.4 159.3C214.5 159.8 214.4 160.3 214.3 160.7C212.8 167.2 206.7 173 206.6 173.1C206.5 173.2 206.5 173.3 206.5 173.4C206.5 173.5 206.6 173.6 206.7 173.6C207.5 173.6 208.2 173.6 209 173.6C209.5 173.5 216 165.7 217.3 160Z" fill="white"/>
<path d="M254.2 69.2C225.5 69.3 201.6 92.4 200.7 121.1C200.3 135.1 205.2 148 213.7 157.8C214.1 158.2 214.3 158.7 214.4 159.3C214.5 159.8 214.4 160.3 214.3 160.7C212.8 167.2 206.7 173 206.6 173.1C206.5 173.2 206.5 173.3 206.5 173.4C206.5 173.5 206.6 173.6 206.7 173.6C213 173.8 219.4 171.9 224 170.6C225.4 170.2 226.6 169.8 227.6 169.6C227.8 169.6 228 169.6 228.2 169.7C236.6 174.4 246.5 176.9 257 176.4C284.7 175 307.1 152.3 307.9 124.5C308.8 94 284.4 69.1 254.2 69.2Z" stroke="black" stroke-width="0.75" stroke-miterlimit="10" stroke-linecap="round" stroke-linejoin="round"/>
<path d="M114.6 226.6H121.5V185.7C121.5 183.8 120 182.2 118 182.2C116.1 182.2 114.5 183.7 114.5 185.7V226.6H114.6Z" fill="black" stroke="black" stroke-width="0.75" stroke-miterlimit="10" stroke-linecap="round" stroke-linejoin="round"/>
<path d="M129.6 226.6H136.5V167.8C136.5 165.9 135 164.3 133 164.3C131.1 164.3 129.5 165.8 129.5 167.8V226.6H129.6Z" fill="black" stroke="black" stroke-width="0.75" stroke-miterlimit="10" stroke-linecap="round" stroke-linejoin="round"/>
<path d="M144.5 226.6H151.4V175.2C151.4 173.3 149.9 171.7 147.9 171.7C146 171.7 144.4 173.2 144.4 175.2V226.6H144.5Z" fill="black" stroke="black" stroke-width="0.75" stroke-miterlimit="10" stroke-linecap="round" stroke-linejoin="round"/>
<path d="M159.5 226.6H166.4V180.3C166.4 178.4 164.9 176.8 162.9 176.8C161 176.8 159.4 178.3 159.4 180.3V226.6H159.5Z" fill="black" stroke="black" stroke-width="0.75" stroke-miterlimit="10" stroke-linecap="round" stroke-linejoin="round"/>
<path d="M174.4 226.6H181.3V164.6C181.3 162.7 179.8 161.1 177.8 161.1C175.9 161.1 174.3 162.6 174.3 164.6V226.6H174.4Z" fill="black" stroke="black" stroke-width="0.75" stroke-miterlimit="10" stroke-linecap="round" stroke-linejoin="round"/>
<path d="M189.5 153.5V226.5H196.4V153.5C196.4 151.6 194.9 150 192.9 150C191 150.1 189.5 151.6 189.5 153.5Z" fill="#FFDC19" stroke="black" stroke-width="0.75" stroke-miterlimit="10" stroke-linecap="round" stroke-linejoin="round"/>
<path d="M204.8 226.6H91.2" stroke="black" stroke-width="0.75" stroke-miterlimit="10" stroke-linecap="round" stroke-linejoin="round"/>
<path d="M99.6 226.6H106.5V195.9C106.5 194 105 192.4 103 192.4C101.1 192.4 99.5 193.9 99.5 195.9V226.6H99.6Z" fill="black" stroke="black" stroke-width="0.75" stroke-miterlimit="10" stroke-linecap="round" stroke-linejoin="round"/>
<path d="M179.3 194.1C178.8 191.2 172.2 189 164 189C155.7 189 149.2 191.2 148.7 194.1C148.7 194.2 148.6 194.2 148.6 194.3V200.3V200.5V203.2V203.4V206.1V206.3V209V209.2V210.6C147 208.2 141.1 206.4 133.7 206.4C125.5 206.4 119 208.6 118.4 211.5C118.4 211.6 118.3 211.6 118.3 211.7V214.6V214.8V217.5V217.7V220.4V220.6V223.3V223.5V226.2V226.4V229.1V229.3V232V232.2V235.1C118.3 238.2 125 240.6 133.6 240.6V241.4V241.6V244.5C133.6 247.6 140.4 250 149 250C157.6 250 164.4 247.6 164.4 244.5V241.6V241.4V240.9C172.8 240.8 179.4 238.4 179.4 235.4V232.5V232.3V229.6V229V226.3V226.1V223.4V223.2V220.5V220.3V217.6V217.4V214.7V214.5V212V211.8V209.1V208.9V206.2V206V203.3V203.1V200.4V200.2V194.2C179.3 194.2 179.3 194.2 179.3 194.1Z" fill="black"/>
<path d="M177.9 192.7C177.4 189.8 170.8 187.6 162.6 187.6C154.3 187.6 147.8 189.8 147.3 192.7C147.3 192.8 147.2 192.8 147.2 192.9V198.9V199.1V201.8V202V204.7V204.9V207.6V207.8V210.5V210.7V213.4V213.6V216.3V216.5V219.2V219.4V222.1V222.3V225V225.2V227.9V228.1V230.8V231V233.9C147.2 237 154 239.4 162.6 239.4C171.2 239.4 178 237 178 233.9V231V230.8V228.1V227.9V225.2V225V222V221.8V219.1V219V216.3V216.1V213.4V213.2V210.5V210.3V207.6V207.4V204.7V204.5V202V201.8V199.1V198.9V192.9C177.9 192.8 177.9 192.8 177.9 192.7Z" fill="#FFDC19"/>
<path d="M149.1 233.5V230.6V230.4V227.7V227.5V224.8V224.6V222V221.8V219.1V219V216.3V216.1V213.4V213.2V210.5V210.3V207.6V207.4V204.7V204.5V202V201.8V199.1V198.9V192.9C149.1 192.8 149.1 192.8 149.2 192.7C149.7 189.9 155.8 187.8 163.5 187.6C163.2 187.6 162.8 187.6 162.5 187.6C154.2 187.6 147.7 189.8 147.2 192.7C147.2 192.8 147.1 192.8 147.1 192.9V198.9V199.1V201.8V202V204.7V204.9V207.6V207.8V210.5V210.7V213.4V213.6V216.3V216.5V219.2V219.4V222.1V222.3V225V225.2V227.9V228.1V230.8V231V233.9C147.1 237 153.9 239.4 162.5 239.4C162.8 239.4 163.2 239.4 163.5 239.4C155.4 238.8 149.1 236.5 149.1 233.5Z" fill="white"/>
<path d="M147.5 210C147 207.1 140.4 204.9 132.2 204.9C124 204.9 117.5 207.1 116.9 210C116.9 210.1 116.8 210.1 116.8 210.2V213.1V213.3V216V216.2V218.9V219.1V221.8V222V224.7V224.9V227.6V227.8V230.5V230.7V233.6C116.8 236.7 123.5 239.1 132.1 239.1C140.7 239.1 147.4 236.7 147.4 233.6V230.7V230.5V227.8V227.6V224.9V224.7V222V221.8V219.1V218.9V216.2V216V213.3V213V210.1C147.5 210.1 147.5 210 147.5 210Z" fill="#FFDC19"/>
<path d="M118.9 233.2V230.3V230.1V227.4V227.2V224.5V224.3V221.6V221.4V218.7V218.5V215.8V215.6V212.9V213V210.1C118.9 210 118.9 210 119 209.9C119.5 207.1 125.5 205 133.3 204.8C133 204.8 132.6 204.8 132.3 204.8C124.1 204.8 117.6 207 117 209.9C117 210 116.9 210 116.9 210.1V213V213.2V215.9V216.1V218.8V219V221.7V221.9V224.6V224.8V227.5V227.7V230.4V230.6V233.5C116.9 236.6 123.6 239 132.2 239C132.5 239 132.9 239 133.2 239C125.1 238.5 118.9 236.2 118.9 233.2Z" fill="white"/>
<path d="M177.7 216.3V222.1C177.7 225 170.9 227.3 162.5 227.3C154.1 227.3 147.3 225 147.3 222.1V216.3" stroke="black" stroke-width="0.75" stroke-miterlimit="10" stroke-linecap="round" stroke-linejoin="round"/>
<path d="M177.7 210.5V216.3C177.7 219.2 170.9 221.5 162.5 221.5C154.1 221.5 147.3 219.2 147.3 216.3V210.5" stroke="black" stroke-width="0.75" stroke-miterlimit="10" stroke-linecap="round" stroke-linejoin="round"/>
<path d="M177.7 204.7V210.5C177.7 213.4 170.9 215.7 162.5 215.7C154.1 215.7 147.3 213.4 147.3 210.5V204.7" stroke="black" stroke-width="0.75" stroke-miterlimit="10" stroke-linecap="round" stroke-linejoin="round"/>
<path d="M177.7 198.9V204.7C177.7 207.6 170.9 209.9 162.5 209.9C154.1 209.9 147.3 207.6 147.3 204.7V198.9" stroke="black" stroke-width="0.75" stroke-miterlimit="10" stroke-linecap="round" stroke-linejoin="round"/>
<path d="M177.7 227.9V233.7C177.7 236.6 170.9 238.9 162.5 238.9C154.1 238.9 147.3 236.6 147.3 233.7V227.3" stroke="black" stroke-width="0.75" stroke-miterlimit="10" stroke-linecap="round" stroke-linejoin="round"/>
<path d="M177.7 222.1V227.9C177.7 230.8 170.9 233.1 162.5 233.1C154.1 233.1 147.3 230.8 147.3 227.9V222.1" stroke="black" stroke-width="0.75" stroke-miterlimit="10" stroke-linecap="round" stroke-linejoin="round"/>
<path d="M147.4 216V221.8C147.4 224.7 140.6 227 132.2 227C123.8 227 117 224.7 117 221.8V216" stroke="black" stroke-width="0.75" stroke-miterlimit="10" stroke-linecap="round" stroke-linejoin="round"/>
<path d="M147.4 210.2V216C147.4 218.9 140.6 221.2 132.2 221.2C123.8 221.2 117 218.9 117 216V210.2" stroke="black" stroke-width="0.75" stroke-miterlimit="10" stroke-linecap="round" stroke-linejoin="round"/>
<path d="M147.4 210.2C147.4 213.1 140.6 215.4 132.2 215.4C123.8 215.4 117 213.1 117 210.2C117 207.3 123.8 205 132.2 205C140.6 205 147.4 207.4 147.4 210.2Z" fill="white" stroke="black" stroke-width="0.75" stroke-miterlimit="10" stroke-linecap="round" stroke-linejoin="round"/>
<path d="M147.4 227.3V233.4C147.4 236.3 140.6 238.6 132.2 238.6C123.8 238.6 117 236.3 117 233.4V227.6" stroke="black" stroke-width="0.75" stroke-miterlimit="10" stroke-linecap="round" stroke-linejoin="round"/>
<path d="M147.4 221.8V227.6C147.4 230.5 140.6 232.8 132.2 232.8C123.8 232.8 117 230.5 117 227.6V221.8" stroke="black" stroke-width="0.75" stroke-miterlimit="10" stroke-linecap="round" stroke-linejoin="round"/>
<path d="M177.7 193.1V198.9C177.7 201.8 170.9 204.1 162.5 204.1C154.1 204.1 147.3 201.8 147.3 198.9V193.1" stroke="black" stroke-width="0.75" stroke-miterlimit="10" stroke-linecap="round" stroke-linejoin="round"/>
<path d="M162.5 198.3C170.895 198.3 177.7 195.972 177.7 193.1C177.7 190.228 170.895 187.9 162.5 187.9C154.105 187.9 147.3 190.228 147.3 193.1C147.3 195.972 154.105 198.3 162.5 198.3Z" fill="white" stroke="black" stroke-width="0.75" stroke-miterlimit="10" stroke-linecap="round" stroke-linejoin="round"/>
<path d="M162.9 225C162.4 222.1 155.8 219.9 147.6 219.9C139.3 219.9 132.8 222.1 132.3 225C132.3 225.1 132.2 225.1 132.2 225.2V225.4V230.9V231.1V233.8V234V236.7V236.9V239.6V239.8V242.7C132.2 245.8 139 248.2 147.6 248.2C156.2 248.2 163 245.8 163 242.7V239.8V239.6V236.9V236.7V234V233.8V231.1V230.9V225.4V225.2C162.9 225.1 162.9 225.1 162.9 225Z" fill="#FFDC19"/>
<path d="M134.2 242.6V239.7V239.5V236.8V236.6V234V233.8V231.1V230.9V225.4V225.2C134.2 225.1 134.2 225.1 134.3 225C134.8 222.2 140.8 220.1 148.6 219.9C148.3 219.9 147.9 219.9 147.6 219.9C139.3 219.9 132.8 222.1 132.3 225C132.3 225.1 132.2 225.1 132.2 225.2V225.4V230.9V231.1V233.8V234V236.7V236.9V239.6V239.8V242.7C132.2 245.8 139 248.2 147.6 248.2C147.9 248.2 148.3 248.2 148.6 248.2C140.4 247.9 134.2 245.5 134.2 242.6Z" fill="white"/>
<path d="M159.7 194.5C160.1 194.9 161.2 195.2 162.5 195.2C164.2 195.2 165.5 194.7 165.5 194C165.5 193.1 164.1 192.9 162.5 192.8C160.4 192.7 159.5 192.3 159.5 191.6C159.5 190.9 160.9 190.4 162.5 190.4C163.8 190.4 164.8 190.7 165.3 191.1" stroke="black" stroke-width="0.75" stroke-miterlimit="10" stroke-linecap="round" stroke-linejoin="round"/>
<path d="M162.5 189.8V196" stroke="black" stroke-width="0.75" stroke-miterlimit="10" stroke-linecap="round" stroke-linejoin="round"/>
<path d="M162.7 225.2V231C162.7 233.9 155.9 236.2 147.5 236.2C139.1 236.2 132.3 233.9 132.3 231V225.2" stroke="black" stroke-width="0.75" stroke-miterlimit="10" stroke-linecap="round" stroke-linejoin="round"/>
<path d="M162.7 236.8V242.6C162.7 245.5 155.9 247.8 147.5 247.8C139.1 247.8 132.3 245.5 132.3 242.6V236.8" stroke="black" stroke-width="0.75" stroke-miterlimit="10" stroke-linecap="round" stroke-linejoin="round"/>
<path d="M162.7 231.1V236.9C162.7 239.8 155.9 242.1 147.5 242.1C139.1 242.1 132.3 239.8 132.3 236.9V231.1" stroke="black" stroke-width="0.75" stroke-miterlimit="10" stroke-linecap="round" stroke-linejoin="round"/>
<path d="M129.4 211.7C129.8 212.1 130.9 212.4 132.2 212.4C133.9 212.4 135.2 211.9 135.2 211.2C135.2 210.3 133.8 210.1 132.2 210C130.1 209.9 129.2 209.5 129.2 208.8C129.2 208.1 130.6 207.6 132.2 207.6C133.5 207.6 134.5 207.9 135 208.3" stroke="black" stroke-width="0.75" stroke-miterlimit="10" stroke-linecap="round" stroke-linejoin="round"/>
<path d="M132.2 207V213.1" stroke="black" stroke-width="0.75" stroke-miterlimit="10" stroke-linecap="round" stroke-linejoin="round"/>
<path d="M147.5 230.4C155.895 230.4 162.7 228.072 162.7 225.2C162.7 222.328 155.895 220 147.5 220C139.105 220 132.3 222.328 132.3 225.2C132.3 228.072 139.105 230.4 147.5 230.4Z" fill="white" stroke="black" stroke-width="0.75" stroke-miterlimit="10" stroke-linecap="round" stroke-linejoin="round"/>
<path d="M144.7 226.6C145.1 227 146.2 227.3 147.5 227.3C149.2 227.3 150.5 226.8 150.5 226.1C150.5 225.2 149.1 225 147.5 224.9C145.4 224.8 144.5 224.4 144.5 223.7C144.5 223 145.9 222.5 147.5 222.5C148.8 222.5 149.8 222.8 150.3 223.2" stroke="black" stroke-width="0.75" stroke-miterlimit="10" stroke-linecap="round" stroke-linejoin="round"/>
<path d="M147.5 222V228.1" stroke="black" stroke-width="0.75" stroke-miterlimit="10" stroke-linecap="round" stroke-linejoin="round"/>
<path d="M220.3 283.1C222.2 283.7 223.9 283.7 224.3 282.7C224.8 281.5 224.4 280.3 223.3 279.7C222.4 279.1 220.7 278.6 219.3 278.5C217.5 278.3 215.6 278.4 215.3 279.5C214.9 280.9 218.2 282.4 220.3 283.1Z" fill="#FFDC19"/>
<path d="M215.3 279.5C215.2 280.8 218.8 282.1 221 282.8C222.7 283.3 224.1 283.1 224.4 282.3C224.4 282.3 224.3 282.8 224.3 282.9C224 283.7 222.5 283.9 220.7 283.3C218.6 282.6 215.3 281.3 215.3 279.7C215.3 279.7 215.3 279.6 215.3 279.5Z" fill="black"/>
<path d="M219.1 279.7C219.1 279.8 219.2 279.9 219.3 279.9C219.4 279.9 219.5 279.8 219.5 279.7C219.5 279.6 219.4 279.5 219.3 279.5C219.1 279.5 219 279.6 219.1 279.7Z" fill="black"/>
<path d="M218.2 279.6C218.2 279.7 218.3 279.8 218.4 279.8C218.5 279.8 218.6 279.7 218.6 279.6C218.6 279.5 218.5 279.4 218.4 279.4C218.2 279.4 218.2 279.5 218.2 279.6Z" fill="black"/>
<path d="M217.4 279.5C217.4 279.6 217.5 279.6 217.6 279.6C217.7 279.6 217.7 279.5 217.7 279.4C217.7 279.3 217.6 279.3 217.5 279.3C217.4 279.4 217.3 279.5 217.4 279.5Z" fill="black"/>
<path d="M223.1 280.5C220.8 279 216 278.8 215.3 279.5C215.7 278.4 217.6 278.4 219.3 278.5C220.6 278.6 222.3 279.1 223.3 279.7C224.3 280.3 224.8 281.5 224.3 282.7C224.3 282.8 224.2 282.9 224.1 283C224.5 281.9 224.1 281.2 223.1 280.5Z" fill="white"/>
<path d="M220.3 283.1C222.2 283.7 223.9 283.7 224.3 282.7C224.8 281.5 224.4 280.3 223.3 279.7C222.4 279.1 220.7 278.6 219.3 278.5C217.5 278.3 215.6 278.4 215.3 279.5C214.9 280.9 218.2 282.4 220.3 283.1Z" stroke="black" stroke-width="0.5" stroke-miterlimit="10" stroke-linecap="round" stroke-linejoin="round"/>
<path d="M224.1 276.7C224 277.4 223.8 278.8 223.6 279.8C223.5 280.2 223.3 280.1 222.9 280.4C222.3 280.9 222.3 281.4 221.9 281.2C220.1 280.5 220 277.5 219.9 276.6L224.1 276.7Z" fill="white" stroke="black" stroke-width="0.5" stroke-miterlimit="10" stroke-linecap="round" stroke-linejoin="round"/>
<path d="M209 283.6C210.9 284.2 212.6 284.2 213 283.2C213.5 282 213.1 280.8 212 280.2C211.1 279.6 209.4 279.1 208 279C206.2 278.8 204.3 278.9 204 280C203.6 281.4 206.9 282.9 209 283.6Z" fill="#FFDC19"/>
<path d="M204 280C204.1 280 204.1 280 204 280C203.9 281.3 207.5 282.6 209.7 283.3C211.4 283.8 212.8 283.6 213.1 282.8C213.1 282.8 213 283.3 213 283.4C212.7 284.2 211.2 284.4 209.4 283.8C207.3 283.1 204 281.8 204 280.2C204 280.2 204 280.1 204 280Z" fill="black"/>
<path d="M207.8 280.2C207.8 280.3 207.9 280.4 208 280.4C208.1 280.4 208.2 280.3 208.2 280.2C208.2 280.1 208.1 280 208 280C207.8 280 207.8 280.1 207.8 280.2Z" fill="black"/>
<path d="M206.9 280.1C206.9 280.2 207 280.3 207.1 280.3C207.2 280.3 207.3 280.2 207.3 280.1C207.3 280 207.2 279.9 207.1 279.9C206.9 279.9 206.9 280 206.9 280.1Z" fill="black"/>
<path d="M206.1 280C206.1 280.1 206.2 280.1 206.3 280.1C206.4 280.1 206.4 280 206.4 279.9C206.4 279.8 206.3 279.8 206.2 279.8C206.1 279.9 206.1 280 206.1 280Z" fill="black"/>
<path d="M211.8 281C208.9 279.4 205 279.5 204 280.1C204.4 279 206.3 279 208 279.1C209.3 279.2 211 279.7 212 280.3C213 280.9 213.5 282.1 213 283.3C213 283.4 212.9 283.5 212.8 283.6C213.2 282.4 212.9 281.5 211.8 281Z" fill="white"/>
<path d="M209 283.6C210.9 284.2 212.6 284.2 213 283.2C213.5 282 213.1 280.8 212 280.2C211.1 279.6 209.4 279.1 208 279C206.2 278.8 204.3 278.9 204 280C203.6 281.4 206.9 282.9 209 283.6Z" stroke="black" stroke-width="0.5" stroke-miterlimit="10" stroke-linecap="round" stroke-linejoin="round"/>
<path d="M212.8 277.2C212.7 277.9 212.5 279.3 212.3 280.3C212.2 280.7 212 280.6 211.6 280.9C211 281.4 211 281.9 210.6 281.7C208.8 281 208.7 278 208.6 277.1L212.8 277.2Z" fill="white" stroke="black" stroke-width="0.5" stroke-miterlimit="10" stroke-linecap="round" stroke-linejoin="round"/>
<path d="M216.1 243.3L215.8 231.6H224.2C227.6 239.1 227.1 264.7 224.6 276.7C224.4 277.5 223.9 278.1 223 278.3C222.4 278.4 221.6 278.5 220.9 278.3C219.9 278 219.5 277.4 219.3 276.5C218.5 273.2 216.1 250 216.1 243.3Z" fill="black"/>
<path d="M216.6 243.8L216.9 232.1H208.5C205.1 239.6 205.6 265.2 208.1 277.2C208.3 278 208.8 278.6 209.7 278.8C210.3 278.9 211.1 279 211.8 278.8C212.8 278.5 213.2 277.9 213.4 277C214.2 273.7 216.6 250.5 216.6 243.8Z" fill="black"/>
<path d="M220.3 234.1C220.9 233.4 229.9 224 229.4 222.2C228.9 220.6 224.3 216 222 212.1C220.8 210.1 221.6 207.7 223.4 206.5C225.3 205.2 227.5 206 229 208.1C230.2 209.8 234.4 217.3 235.4 219.9C237 224 227.2 233.7 223.4 236.8C222.7 237.4 219.8 234.7 220.3 234.1Z" fill="#FFDC19"/>
<path d="M234.3 219.9C233.3 217.4 229.1 209.8 227.9 208.1C227 206.9 226.1 205.9 225.1 205.1C225.7 205.3 227.9 206.6 229 208.1C230.2 209.8 234.4 217.3 235.4 219.9C237 224 227.2 233.7 223.4 236.8C223.2 237 222.9 236.9 222.5 236.7C226.4 233.5 235.9 224 234.3 219.9Z" fill="white"/>
<path d="M220.3 234.1C220.9 233.4 229.9 224 229.4 222.2C228.9 220.6 224.3 216 222 212.1C220.8 210.1 221.6 207.7 223.4 206.5C225.3 205.2 227.5 206 229 208.1C230.2 209.8 234.4 217.3 235.4 219.9C237 224 227.2 233.7 223.4 236.8C222.7 237.4 219.8 234.7 220.3 234.1Z" stroke="black" stroke-width="0.5" stroke-miterlimit="10" stroke-linecap="round" stroke-linejoin="round"/>
<path d="M190.8 202C190.9 200.8 191 199.8 190.9 199.2C190.8 198.7 190.8 198.2 190.8 197.7C190.8 197.3 190.9 196.9 190.6 196.9C190.2 196.9 189.9 197.7 189.9 198C189.9 198.3 189.9 198.7 189.9 199C189.9 199 189.9 199.2 189.8 199.2H189.7C189.4 198.5 188.6 196.2 188.6 196.2C188.4 195.8 188.2 195 187.8 195C187.3 195.1 187.5 195.8 187.7 196.2C187.9 196.9 188.1 197.7 188.3 198.3C188.3 198.3 188.3 198.4 188.2 198.3C188.1 198.2 188 198.1 187.8 198.1C187.4 198.1 187.4 198.4 187.4 198.8C187.4 198.8 187.4 198.8 187.3 198.8C187.2 198.7 187.1 198.6 186.9 198.6C186.6 198.6 186.5 198.9 186.5 199.3C186.4 199.2 186.3 199.2 186.2 199.2C185.7 199.2 185.8 199.8 186 200.3C186.1 200.7 186.4 201.5 187.3 202.7C187.7 203.2 188.1 204 188.7 205.7L191.4 204.5C190.9 203.3 190.8 202.6 190.8 202Z" fill="white" stroke="black" stroke-width="0.5" stroke-miterlimit="10" stroke-linecap="round" stroke-linejoin="round"/>
<path d="M191.8 203.8C192.3 204.6 197.6 218.2 199.3 217.1C200.5 216.4 205.3 210.5 207.3 208.3C209.4 206.1 212.4 203.6 218.4 203.7C222.3 203.8 226.1 204.9 228.5 207.7C233.3 213.3 224.3 212.3 226.4 232.8C226.8 236.4 227.6 238.5 227.4 239.8C226.8 244.3 212.6 244.3 206.9 241.2C202.9 239.1 208.8 235 208.8 218C208 218.7 206 220.1 205.2 220.8C202 223.5 200.7 224.5 199.3 224.8C194.7 225.6 189.2 210.6 187.7 205.8C187.7 204.8 191.5 203.1 191.8 203.8Z" fill="#FFDC19"/>
<path d="M211.7 193.8C211.5 189.8 214.5 187 217.4 187.2C220.3 187.4 222.4 190.8 222.1 194.8C221.9 196.8 221.2 198.6 220.3 199.9C220.4 202.1 221 203.9 222.4 204.2H222.5C223.2 204.4 223.9 204.6 224.5 204.9C224 205.9 221.3 206.5 218.1 206.4C214.8 206.3 212.3 206 211.9 205C212.8 204.5 215.1 204.1 215.6 202.4C215.7 202.2 215.7 201.9 215.8 201.7C213.5 200.7 211.9 197.5 211.7 193.8Z" fill="white" stroke="black" stroke-width="0.5" stroke-miterlimit="10" stroke-linecap="round" stroke-linejoin="round"/>
<path d="M200.2 217.4C201.4 216.7 206.3 211.3 208.4 209.1C210.5 206.9 213.5 204.4 219.5 204.5C221.3 204.5 223 204.3 224.7 204.9C222.8 204.1 220.7 203.7 218.5 203.7C212.5 203.5 209.5 206.1 207.4 208.3C205.3 210.4 200.5 216.3 199.4 217.1C199.4 217.1 199.4 217.1 199.3 217.1C199.7 217.4 200 217.6 200.2 217.4Z" fill="white"/>
<path d="M207.9 241.5C203.9 239.4 211.5 231.9 209.5 218.9C209.4 218.1 209 217.9 209 218.9C208.8 235 203.2 239 207.1 241.1C207.6 241.4 208.2 241.6 208.9 241.9C208.5 241.8 208.2 241.7 207.9 241.5Z" fill="white"/>
<path d="M189.1 206.1C188.9 205.4 190.8 204.2 192 204C192 203.9 191.9 203.8 191.9 203.8C191.5 203.1 187.7 204.9 188 205.8C189.4 210.4 194.3 223.8 198.7 224.8C194.7 221.2 190.4 210.4 189.1 206.1Z" fill="white"/>
<path d="M191.8 203.8C192.3 204.6 197.6 218.2 199.3 217.1C200.5 216.4 205.3 210.5 207.3 208.3C209.4 206.1 212.4 203.6 218.4 203.7C222.3 203.8 226.1 204.9 228.5 207.7C233.3 213.3 224.3 212.3 226.4 232.8C226.8 236.4 227.6 238.5 227.4 239.8C226.8 244.3 212.6 244.3 206.9 241.2C202.9 239.1 208.8 235 208.8 218C208 218.7 206 220.1 205.2 220.8C202 223.5 200.7 224.5 199.3 224.8C194.7 225.6 189.2 210.6 187.7 205.8C187.7 204.8 191.5 203.1 191.8 203.8Z" stroke="black" stroke-width="0.5" stroke-miterlimit="10" stroke-linecap="round" stroke-linejoin="round"/>
<path d="M211.1 203.1C215.8 197.9 214.6 193.5 212.8 194C210.1 194.7 210.3 191.9 211.1 190C212 188 214.5 186.2 217 186.5C222.6 187.2 222.4 194.1 227.5 200.7C231.5 205.9 230.6 209.5 230 212C228.8 216.8 235 213.4 231.3 217.8C227.9 221.9 217.6 222.8 211.6 218.7C204.6 213.9 207.4 207.3 211.1 203.1Z" fill="black"/>
<path d="M213.2 196C213.2 196.8 213.4 197.4 213.8 197.5C214.1 197.6 214.6 197.1 214.8 195.8C214.9 194.9 214.5 194.5 214.1 194.5C213.5 194.5 213.2 195.1 213.2 196Z" fill="white"/>
<path d="M275.076 135.912C286.284 124.704 286.284 106.532 275.076 95.3241C263.868 84.1162 245.696 84.1162 234.488 95.3241C223.28 106.532 223.28 124.704 234.488 135.912C245.696 147.12 263.868 147.12 275.076 135.912Z" fill="white"/>
<path d="M255.3 97.6C246.3 98.6 239.1 105.8 238 114.8C237 123 241.2 130.3 247.6 134.1C247.7 134.1 247.7 134.2 247.7 134.3V142.6V146.3C247.7 151.7 252.1 156.1 257.5 156.1C262.9 156.1 267.3 151.7 267.3 146.3V142.6V134.3C267.3 134.2 267.4 134.1 267.4 134.1C273.2 130.7 277.1 124.4 277.1 117.1C277.2 105.6 267.2 96.3 255.3 97.6Z" fill="black"/>
<path d="M245 140.9H264.6V132.6C264.6 132.5 264.7 132.4 264.7 132.4C270.5 129 274.4 122.7 274.4 115.4C274.4 103.8 264.4 94.5 252.5 95.9C243.5 96.9 236.3 104.1 235.2 113.1C234.2 121.3 238.4 128.6 244.8 132.4C244.9 132.4 244.9 132.5 244.9 132.6L245 140.9Z" fill="#FFDC19"/>
<path d="M255.7 104.2C258.3 104.2 260.7 105.3 262.4 107C263.1 107.7 263.8 108.6 264.2 109.6" stroke="black" stroke-width="0.75" stroke-miterlimit="10" stroke-linecap="round" stroke-linejoin="round"/>
<path d="M282.2 115.7H285.2" stroke="black" stroke-width="0.75" stroke-miterlimit="10" stroke-linecap="round" stroke-linejoin="round"/>
<path d="M254.8 88.3V85.3" stroke="black" stroke-width="0.75" stroke-miterlimit="10" stroke-linecap="round" stroke-linejoin="round"/>
<path d="M274.2 96.3L276.3 94.2" stroke="black" stroke-width="0.75" stroke-miterlimit="10" stroke-linecap="round" stroke-linejoin="round"/>
<path d="M276.3 137.1L274.2 135" stroke="black" stroke-width="0.75" stroke-miterlimit="10" stroke-linecap="round" stroke-linejoin="round"/>
<path d="M227.4 115.7H224.5" stroke="black" stroke-width="0.75" stroke-miterlimit="10" stroke-linecap="round" stroke-linejoin="round"/>
<path d="M235.5 96.3L233.3 94.2" stroke="black" stroke-width="0.75" stroke-miterlimit="10" stroke-linecap="round" stroke-linejoin="round"/>
<path d="M233.3 137.1L235.5 135" stroke="black" stroke-width="0.75" stroke-miterlimit="10" stroke-linecap="round" stroke-linejoin="round"/>
<path d="M262.7 121C262.7 125.4 259.2 128.9 254.8 128.9C250.4 128.9 246.9 125.4 246.9 121" stroke="black" stroke-width="0.75" stroke-miterlimit="10" stroke-linecap="round" stroke-linejoin="round"/>
<path d="M252.6 128.6V140.9" stroke="black" stroke-width="0.75" stroke-miterlimit="10" stroke-linecap="round" stroke-linejoin="round"/>
<path d="M257 128.6V140.9" stroke="black" stroke-width="0.75" stroke-miterlimit="10" stroke-linecap="round" stroke-linejoin="round"/>
<path d="M249 133.5C249 132.5 248.5 131.6 247.7 131.1C241.9 127.3 238.4 121.9 239.2 114.2C240.1 106.5 245.2 100 252.7 97.7C255.8 96.8 258.8 96.6 261.6 97C258.8 95.9 255.7 95.5 252.5 95.9C243.5 96.9 236.3 104.1 235.2 113.1C234.2 121.3 238.4 128.6 244.8 132.4C244.9 132.4 244.9 132.5 244.9 132.6V140.9H248.9V133.5H249Z" fill="white"/>
<path d="M245 140.9H264.6V132.6C264.6 132.5 264.7 132.4 264.7 132.4C270.5 129 274.4 122.7 274.4 115.4C274.4 103.8 264.4 94.5 252.5 95.9C243.5 96.9 236.3 104.1 235.2 113.1C234.2 121.3 238.4 128.6 244.8 132.4C244.9 132.4 244.9 132.5 244.9 132.6L245 140.9Z" stroke="black" stroke-width="0.75" stroke-miterlimit="10" stroke-linecap="round" stroke-linejoin="round"/>
<path d="M254.8 154.9C249.4 154.9 245 150.5 245 145.1V140.9H264.6V145.1C264.6 150.5 260.2 154.9 254.8 154.9Z" fill="white" stroke="black" stroke-width="0.75" stroke-miterlimit="10" stroke-linecap="round" stroke-linejoin="round"/>
<path d="M248.4 144.1H261.2" stroke="black" stroke-width="0.75" stroke-miterlimit="10" stroke-linecap="round" stroke-linejoin="round"/>
<path d="M248.5 146.4H261.1" stroke="black" stroke-width="0.75" stroke-miterlimit="10" stroke-linecap="round" stroke-linejoin="round"/>
<path d="M249 148.7H260.6" stroke="black" stroke-width="0.75" stroke-miterlimit="10" stroke-linecap="round" stroke-linejoin="round"/>
<path d="M250.4 151H259.2" stroke="black" stroke-width="0.75" stroke-miterlimit="10" stroke-linecap="round" stroke-linejoin="round"/>
<path d="M129.7 66.5C131 66.5 132.1 65.4 132.1 64.1V33.5C132.1 32.7 131.4 32 130.6 32H112.6C112.2 32 111.8 32.2 111.5 32.4L107.5 36.4C107.2 36.7 107.1 37.1 107.1 37.5V65C107.1 65.8 107.8 66.5 108.6 66.5H129.7Z" fill="black"/>
<path d="M129.4 65.3C130.2 65.3 130.9 64.6 130.9 63.8V32.3C130.9 31.5 130.2 30.8 129.4 30.8H111.4C111 30.8 110.6 31 110.3 31.2L106.3 35.2C106 35.5 105.9 35.9 105.9 36.3V63.8C105.9 64.6 106.6 65.3 107.4 65.3H129.4Z" fill="white"/>
<path d="M123.9 39.4H126.8" stroke="black" stroke-width="0.75" stroke-miterlimit="10" stroke-linecap="round" stroke-linejoin="round"/>
<path d="M110.1 39.4H120.5" stroke="black" stroke-width="0.75" stroke-miterlimit="10" stroke-linecap="round" stroke-linejoin="round"/>
<path d="M117.9 41.9H126.8" stroke="black" stroke-width="0.75" stroke-miterlimit="10" stroke-linecap="round" stroke-linejoin="round"/>
<path d="M110.1 41.9H114.7" stroke="black" stroke-width="0.75" stroke-miterlimit="10" stroke-linecap="round" stroke-linejoin="round"/>
<path d="M122.8 46.8H126.8" stroke="black" stroke-width="0.75" stroke-miterlimit="10" stroke-linecap="round" stroke-linejoin="round"/>
<path d="M110.1 46.8H119.6" stroke="black" stroke-width="0.75" stroke-miterlimit="10" stroke-linecap="round" stroke-linejoin="round"/>
<path d="M110.1 44.3H126.8" stroke="black" stroke-width="0.75" stroke-miterlimit="10" stroke-linecap="round" stroke-linejoin="round"/>
<path d="M117 49.3H126.8" stroke="black" stroke-width="0.75" stroke-miterlimit="10" stroke-linecap="round" stroke-linejoin="round"/>
<path d="M110.1 49.3H113.8" stroke="black" stroke-width="0.75" stroke-miterlimit="10" stroke-linecap="round" stroke-linejoin="round"/>
<path d="M110.1 51.7H118.6" stroke="black" stroke-width="0.75" stroke-miterlimit="10" stroke-linecap="round" stroke-linejoin="round"/>
<path d="M111.1 35V30.9C110.9 31 110.6 31.1 110.4 31.3L106.4 35.3C106.3 35.4 106.2 35.5 106.2 35.6H110.5C110.8 35.6 111.1 35.3 111.1 35Z" fill="#FFDC19"/>
<path d="M111.1 31.5V30.9C110.9 31 110.6 31.1 110.4 31.3L106.4 35.3C106.3 35.4 106.2 35.5 106.2 35.6H107.4L111.1 31.5Z" fill="white"/>
<path d="M129.4 65.3C130.2 65.3 130.9 64.6 130.9 63.8V32.3C130.9 31.5 130.2 30.8 129.4 30.8H111.4C111 30.8 110.6 31 110.3 31.2L106.3 35.2C106 35.5 105.9 35.9 105.9 36.3V63.8C105.9 64.6 106.6 65.3 107.4 65.3H129.4Z" stroke="black" stroke-width="0.75" stroke-miterlimit="10" stroke-linecap="round" stroke-linejoin="round"/>
<path d="M106.1 35.7H110.5C110.9 35.7 111.1 35.4 111.1 35.1V30.9" stroke="black" stroke-width="0.75" stroke-miterlimit="10" stroke-linecap="round" stroke-linejoin="round"/>
<path d="M133.4 57.1L124 53.6C123.8 53.5 123.6 53.7 123.7 53.9L127.2 63.3C127.3 63.5 127.5 63.5 127.6 63.4L129.1 61.9C129.2 61.8 129.3 61.8 129.4 61.9L133.4 65.9C133.5 66 133.6 66 133.7 65.9L136 63.6C136.1 63.5 136.1 63.4 136 63.3L132 59.3C131.9 59.2 131.9 59.1 132 59L133.5 57.5C133.6 57.4 133.6 57.2 133.4 57.1Z" fill="#FFDC19"/>
<path d="M123.2 52.1L123 51.7" stroke="black" stroke-width="0.75" stroke-miterlimit="10" stroke-linecap="round" stroke-linejoin="round"/>
<path d="M125.5 53.1L126 52.9" stroke="black" stroke-width="0.75" stroke-miterlimit="10" stroke-linecap="round" stroke-linejoin="round"/>
<path d="M121.8 54.7L122.3 54.5" stroke="black" stroke-width="0.75" stroke-miterlimit="10" stroke-linecap="round" stroke-linejoin="round"/>
<path d="M122.3 53.1L121.8 52.9" stroke="black" stroke-width="0.75" stroke-miterlimit="10" stroke-linecap="round" stroke-linejoin="round"/>
<path d="M124.6 52.1L124.8 51.7" stroke="black" stroke-width="0.75" stroke-miterlimit="10" stroke-linecap="round" stroke-linejoin="round"/>
<path d="M123 55.9L123.2 55.4" stroke="black" stroke-width="0.75" stroke-miterlimit="10" stroke-linecap="round" stroke-linejoin="round"/>
<path d="M124.8 53.9L124 53.6C123.8 53.5 123.6 53.7 123.7 53.9L127.2 63.3C127.3 63.5 127.5 63.5 127.6 63.4L128.1 62.9L124.8 53.9Z" fill="white"/>
<path d="M130.5 62C130.4 61.9 130.3 61.9 130.2 62L129.8 62.4001L133.4 66C133.5 66.1 133.6 66.1 133.7 66L134.1 65.6L130.5 62Z" fill="white"/>
<path d="M133.4 57.1L124 53.6C123.8 53.5 123.6 53.7 123.7 53.9L127.2 63.3C127.3 63.5 127.5 63.5 127.6 63.4L129.1 61.9C129.2 61.8 129.3 61.8 129.4 61.9L133.4 65.9C133.5 66 133.6 66 133.7 65.9L136 63.6C136.1 63.5 136.1 63.4 136 63.3L132 59.3C131.9 59.2 131.9 59.1 132 59L133.5 57.5C133.6 57.4 133.6 57.2 133.4 57.1Z" stroke="black" stroke-width="0.75" stroke-miterlimit="10" stroke-linecap="round" stroke-linejoin="round"/>
<path d="M154.8 107.1C156 107.1 156.9 106.2 156.9 105V78.7C156.9 78 156.3 77.4 155.6 77.4H140.1C139.8 77.4 139.4 77.5 139.2 77.8L135.8 81.2C135.6 81.4 135.4 81.8 135.4 82.1V105.8C135.4 106.5 136 107.1 136.7 107.1H154.8Z" fill="black"/>
<path d="M154.6 106C155.3 106 155.9 105.4 155.9 104.7V77.6C155.9 76.9 155.3 76.3 154.6 76.3H139.1C138.8 76.3 138.4 76.4 138.2 76.7L134.8 80.1C134.6 80.3 134.4 80.7 134.4 81V104.7C134.4 105.4 135 106 135.7 106H154.6Z" fill="white"/>
<path d="M149.8 83.8H152.3" stroke="black" stroke-width="0.75" stroke-miterlimit="10" stroke-linecap="round" stroke-linejoin="round"/>
<path d="M138 83.8H146.9" stroke="black" stroke-width="0.75" stroke-miterlimit="10" stroke-linecap="round" stroke-linejoin="round"/>
<path d="M144.6 85.9H152.3" stroke="black" stroke-width="0.75" stroke-miterlimit="10" stroke-linecap="round" stroke-linejoin="round"/>
<path d="M138 85.9H141.9" stroke="black" stroke-width="0.75" stroke-miterlimit="10" stroke-linecap="round" stroke-linejoin="round"/>
<path d="M148.9 90.1H152.3" stroke="black" stroke-width="0.75" stroke-miterlimit="10" stroke-linecap="round" stroke-linejoin="round"/>
<path d="M138 90.1H146.1" stroke="black" stroke-width="0.75" stroke-miterlimit="10" stroke-linecap="round" stroke-linejoin="round"/>
<path d="M138 88H152.3" stroke="black" stroke-width="0.75" stroke-miterlimit="10" stroke-linecap="round" stroke-linejoin="round"/>
<path d="M143.9 92.2H152.3" stroke="black" stroke-width="0.75" stroke-miterlimit="10" stroke-linecap="round" stroke-linejoin="round"/>
<path d="M138 92.2H141.2" stroke="black" stroke-width="0.75" stroke-miterlimit="10" stroke-linecap="round" stroke-linejoin="round"/>
<path d="M138 94.3H145.3" stroke="black" stroke-width="0.75" stroke-miterlimit="10" stroke-linecap="round" stroke-linejoin="round"/>
<path d="M138.8 80V76.5C138.6 76.6 138.4 76.7 138.2 76.8L134.8 80.2C134.7 80.3 134.7 80.4 134.6 80.5H138.3C138.6 80.5 138.8 80.2 138.8 80Z" fill="#FFDC19"/>
<path d="M138.8 77V76.5C138.6 76.6 138.4 76.7 138.2 76.8L134.8 80.2C134.7 80.3 134.7 80.4 134.6 80.5H135.6L138.8 77Z" fill="white"/>
<path d="M154.6 106C155.3 106 155.9 105.4 155.9 104.7V77.6C155.9 76.9 155.3 76.3 154.6 76.3H139.1C138.8 76.3 138.4 76.4 138.2 76.7L134.8 80.1C134.6 80.3 134.4 80.7 134.4 81V104.7C134.4 105.4 135 106 135.7 106H154.6Z" stroke="black" stroke-width="0.75" stroke-miterlimit="10" stroke-linecap="round" stroke-linejoin="round"/>
<path d="M134.5 80.5H138.3C138.6 80.5 138.9 80.3 138.9 79.9V76.3" stroke="black" stroke-width="0.75" stroke-miterlimit="10" stroke-linecap="round" stroke-linejoin="round"/>
<path d="M118.2 126.5C119.2 126.5 120.1 125.7 120.1 124.6V100.8C120.1 100.1 119.6 99.6 118.9 99.6H104.9C104.6 99.6 104.3 99.7 104.1 99.9L101 103C100.8 103.2 100.7 103.5 100.7 103.8V125.2C100.7 125.9 101.2 126.4 101.9 126.4H118.2V126.5Z" fill="black"/>
<path d="M118 125.6C118.7 125.6 119.2 125.1 119.2 124.4V99.9C119.2 99.2 118.7 98.7 118 98.7H104C103.7 98.7 103.4 98.8 103.2 99L100.1 102.1C99.9 102.3 99.8 102.6 99.8 102.9V124.3C99.8 125 100.3 125.5 101 125.5H118V125.6Z" fill="white"/>
<path d="M113.7 105.5H115.9" stroke="black" stroke-width="0.75" stroke-miterlimit="10" stroke-linecap="round" stroke-linejoin="round"/>
<path d="M102.9 105.5H111" stroke="black" stroke-width="0.75" stroke-miterlimit="10" stroke-linecap="round" stroke-linejoin="round"/>
<path d="M109 107.4H115.9" stroke="black" stroke-width="0.75" stroke-miterlimit="10" stroke-linecap="round" stroke-linejoin="round"/>
<path d="M102.9 107.4H106.5" stroke="black" stroke-width="0.75" stroke-miterlimit="10" stroke-linecap="round" stroke-linejoin="round"/>
<path d="M112.8 111.2H115.9" stroke="black" stroke-width="0.75" stroke-miterlimit="10" stroke-linecap="round" stroke-linejoin="round"/>
<path d="M102.9 111.2H110.3" stroke="black" stroke-width="0.75" stroke-miterlimit="10" stroke-linecap="round" stroke-linejoin="round"/>
<path d="M102.9 109.3H115.9" stroke="black" stroke-width="0.75" stroke-miterlimit="10" stroke-linecap="round" stroke-linejoin="round"/>
<path d="M108.3 113.1H115.9" stroke="black" stroke-width="0.75" stroke-miterlimit="10" stroke-linecap="round" stroke-linejoin="round"/>
<path d="M102.9 113.1H105.8" stroke="black" stroke-width="0.75" stroke-miterlimit="10" stroke-linecap="round" stroke-linejoin="round"/>
<path d="M102.9 115H109.6" stroke="black" stroke-width="0.75" stroke-miterlimit="10" stroke-linecap="round" stroke-linejoin="round"/>
<path d="M103.7 102V98.8C103.5 98.8 103.3 98.9 103.2 99.1L100.1 102.2C100 102.3 100 102.4 99.9 102.4H103.2C103.5 102.5 103.7 102.3 103.7 102Z" fill="#FFDC19"/>
<path d="M103.7 99.3V98.8C103.5 98.8 103.3 98.9 103.2 99.1L100.1 102.2C100 102.3 100 102.4 99.9 102.4H100.8L103.7 99.3Z" fill="white"/>
<path d="M118 125.6C118.7 125.6 119.2 125.1 119.2 124.4V99.9C119.2 99.2 118.7 98.7 118 98.7H104C103.7 98.7 103.4 98.8 103.2 99L100.1 102.1C99.9 102.3 99.8 102.6 99.8 102.9V124.3C99.8 125 100.3 125.5 101 125.5H118V125.6Z" stroke="black" stroke-width="0.75" stroke-miterlimit="10" stroke-linecap="round" stroke-linejoin="round"/>
<path d="M99.8 102.5H103.2C103.5 102.5 103.7 102.3 103.7 102V98.7" stroke="black" stroke-width="0.75" stroke-miterlimit="10" stroke-linecap="round" stroke-linejoin="round"/>
</g>
<defs>
<clipPath id="clip0_1_431">
<rect width="321.8" height="304.5" fill="white"/>
</clipPath>
</defs>
</svg>
