<svg width="37" height="37" viewBox="0 0 37 37" fill="none" xmlns="http://www.w3.org/2000/svg">
<g clip-path="url(#clip0_1_181)">
<path d="M30.645 3.485C29.1372 3.485 27.915 4.70726 27.915 6.215C27.9151 6.37049 27.9284 6.52568 27.955 6.67889L23.3934 10.4806C23.093 10.3691 22.7754 10.3114 22.455 10.31C21.9202 10.3105 21.3973 10.4681 20.9513 10.7632L16.987 8.77971C16.8996 7.33996 15.7074 6.21658 14.265 6.215C12.7572 6.215 11.535 7.43726 11.535 8.945C11.5357 9.00372 11.5384 9.06241 11.543 9.12096L7.28268 11.9603C6.90734 11.7737 6.4941 11.6761 6.07497 11.675C4.56723 11.675 3.34497 12.8973 3.34497 14.405C3.34497 15.9127 4.56723 17.135 6.07497 17.135C7.58271 17.135 8.80497 15.9127 8.80497 14.405C8.80414 14.3472 8.80147 14.2894 8.79697 14.2317L13.0573 11.3897C13.4326 11.5763 13.8458 11.6739 14.265 11.675C14.7998 11.6745 15.3226 11.5169 15.7686 11.2218L19.733 13.2053C19.8203 14.645 21.0126 15.7684 22.455 15.77C23.9627 15.77 25.185 14.5477 25.185 13.04C25.1849 12.8845 25.1715 12.7293 25.145 12.5761L29.7065 8.77438C30.0069 8.88588 30.3246 8.94364 30.645 8.945C32.1527 8.945 33.375 7.72274 33.375 6.215C33.375 4.70726 32.1527 3.485 30.645 3.485ZM29.28 14.405C28.5265 14.405 27.915 15.0165 27.915 15.77V33.515H33.375V15.77C33.375 15.0165 32.7635 14.405 32.01 14.405H29.28ZM12.9 17.135C12.1465 17.135 11.535 17.7465 11.535 18.5V33.515H16.995V18.5C16.995 17.7465 16.3835 17.135 15.63 17.135H12.9ZM21.09 19.865C20.3365 19.865 19.725 20.4765 19.725 21.23V33.515H25.185V21.23C25.185 20.4765 24.5735 19.865 23.82 19.865H21.09ZM4.70997 22.595C3.95649 22.595 3.34497 23.2065 3.34497 23.96V33.515H8.80497V23.96C8.80497 23.2065 8.19345 22.595 7.43997 22.595H4.70997Z" fill="#AEAEAE"/>
</g>
<defs>
<clipPath id="clip0_1_181">
<rect width="36" height="36" fill="white" transform="translate(0.359985 0.5)"/>
</clipPath>
</defs>
</svg>
